<?xml version="1.0" encoding="UTF-8"?>
<svg id="Layer_1" xmlns="http://www.w3.org/2000/svg" xmlns:xlink="http://www.w3.org/1999/xlink" version="1.1" viewBox="0 0 627.5 633">
  <!-- Generator: Adobe Illustrator 29.5.1, SVG Export Plug-In . SVG Version: 2.1.0 Build 141)  -->
  <defs>
    <style>
      .st0 {
        fill: none;
      }

      .st1 {
        fill: #003ea5;
      }

      .st2 {
        fill: #0547a5;
      }

      .st3 {
        fill: #3e5489;
      }

      .st4 {
        isolation: isolate;
      }

      .st5 {
        clip-path: url(#clippath-11);
      }

      .st6 {
        clip-path: url(#clippath-10);
      }

      .st7 {
        clip-path: url(#clippath-13);
      }

      .st8 {
        clip-path: url(#clippath-14);
      }

      .st9 {
        clip-path: url(#clippath-12);
      }

      .st10 {
        fill: #e2e6f0;
      }

      .st11 {
        clip-path: url(#clippath-1);
      }

      .st12 {
        clip-path: url(#clippath-3);
      }

      .st13 {
        clip-path: url(#clippath-4);
      }

      .st14 {
        clip-path: url(#clippath-2);
      }

      .st15 {
        clip-path: url(#clippath-7);
      }

      .st16 {
        clip-path: url(#clippath-6);
      }

      .st17 {
        clip-path: url(#clippath-9);
      }

      .st18 {
        clip-path: url(#clippath-8);
      }

      .st19 {
        clip-path: url(#clippath-5);
      }

      .st20 {
        fill: #04358c;
      }

      .st21 {
        fill: #fff;
      }

      .st22 {
        opacity: .2;
      }

      .st23 {
        fill: #f2f2f2;
      }

      .st24 {
        fill: #2663bc;
      }

      .st25 {
        clip-path: url(#clippath);
      }
    </style>
    <clipPath id="clippath">
      <rect class="st0" x="-46.1" y="329.3" width="590.5" height="303.7"/>
    </clipPath>
    <clipPath id="clippath-1">
      <rect class="st0" x="-46.1" y="329.3" width="590.5" height="303.7"/>
    </clipPath>
    <clipPath id="clippath-2">
      <path class="st0" d="M538.7,525.8c3.2,0,5.7,2.6,5.7,5.7s-2.6,5.7-5.7,5.7h-4.5v85.8h5.2c2.8,0,5,2.2,5,5s-2.2,5-5,5H29.8c-29.6,0-53.6-24-53.6-53.6s24-53.6,53.6-53.6h508.9Z"/>
    </clipPath>
    <clipPath id="clippath-3">
      <rect class="st0" x="-46.1" y="329.3" width="590.5" height="303.7"/>
    </clipPath>
    <clipPath id="clippath-4">
      <path class="st0" d="M534.2,537.2v85.8H177.9c-9.8,0-17.7-7.9-17.7-17.7v-50.4c0-9.8,7.9-17.7,17.7-17.7h356.3Z"/>
    </clipPath>
    <clipPath id="clippath-5">
      <rect class="st0" x="149.7" y="534.3" width="394.7" height="98.7"/>
    </clipPath>
    <clipPath id="clippath-6">
      <rect class="st0" x="-46.1" y="329.3" width="590.5" height="303.7"/>
    </clipPath>
    <clipPath id="clippath-7">
      <path class="st0" d="M454,446.7c21.8,0,39.6,17.7,39.6,39.6s-17.7,39.6-39.6,39.6H78.5c-2.3,0-4.2-1.9-4.2-4.2s1.9-4.2,4.2-4.2h3.3v-63.3h-3.8c-2,0-3.7-1.6-3.7-3.7s1.6-3.7,3.7-3.7h376Z"/>
    </clipPath>
    <clipPath id="clippath-8">
      <rect class="st0" x="-46.1" y="329.3" width="590.5" height="303.7"/>
    </clipPath>
    <clipPath id="clippath-9">
      <path class="st0" d="M344.7,454c7.2,0,13.1,5.8,13.1,13.1v37.2c0,7.2-5.8,13.1-13.1,13.1H81.8v-63.3h262.9Z"/>
    </clipPath>
    <clipPath id="clippath-10">
      <rect class="st0" x="70.3" y="446.7" width="279.7" height="39"/>
    </clipPath>
    <clipPath id="clippath-11">
      <rect class="st0" x="-46.1" y="329.3" width="590.5" height="303.7"/>
    </clipPath>
    <clipPath id="clippath-12">
      <path class="st0" d="M443.1,383.2c6.3,0,11.4,5.1,11.4,11.4v32.6c0,6.3-5.1,11.4-11.4,11.4H122.1v-55.5h321Z"/>
    </clipPath>
    <clipPath id="clippath-13">
      <rect class="st0" x="114" y="417.4" width="344.2" height="29.2"/>
    </clipPath>
    <clipPath id="clippath-14">
      <rect class="st0" x="-46.1" y="329.3" width="590.5" height="303.7"/>
    </clipPath>
  </defs>
  <circle id="Ellipse_2" class="st2" cx="239.5" cy="598.5" r="372.5"/>
  <circle id="Ellipse_1" class="st20" cx="249.5" cy="608.5" r="362.5"/>
  <g id="Group_190" class="st4">
    <g class="st25">
      <g id="Group_188">
        <g id="Group_158">
          <g class="st11">
            <g id="Group_157">
              <path id="Path_361" class="st1" d="M539.4,633H29.8c-29.6,0-53.6-24-53.6-53.6s24-53.6,53.6-53.6h508.9c3.2,0,5.7,2.6,5.7,5.7s-2.6,5.7-5.7,5.7h-4.5v85.8h5.2c2.8,0,5,2.2,5,5s-2.2,5-5,5"/>
            </g>
          </g>
        </g>
        <g id="Group_160">
          <g class="st14">
            <g id="Group_159">
              <rect id="Rectangle_63" class="st24" x="-46.1" y="554.7" width="225.9" height="51.3"/>
            </g>
          </g>
        </g>
        <g id="Group_162">
          <g class="st12">
            <g id="Group_161">
              <path id="Path_363" class="st21" d="M534.2,623H177.9c-9.8,0-17.7-7.9-17.7-17.7h0v-50.4c0-9.8,7.9-17.7,17.7-17.7h356.3v85.8h0Z"/>
            </g>
          </g>
        </g>
        <g id="Group_167">
          <g class="st13">
            <g id="Group_166">
              <g id="Group_165" class="st22">
                <g id="Group_164">
                  <g class="st19">
                    <g id="Group_163">
                      <path id="Path_364" class="st3" d="M182.5,534.3s97.4,55.7,188.4,67.2,173.6,5.8,173.6,5.8v25.6H151.7l-2-90.4,32.7-8.3h.1Z"/>
                    </g>
                  </g>
                </g>
              </g>
            </g>
          </g>
        </g>
        <g id="Group_169">
          <g class="st16">
            <g id="Group_168">
              <path id="Path_366" class="st24" d="M74.3,450.3c0-2,1.6-3.7,3.7-3.7h376c21.8,0,39.6,17.7,39.6,39.6s-17.7,39.6-39.6,39.6H78.5c-2.3,0-4.2-1.9-4.2-4.2s1.9-4.2,4.2-4.2h3.3v-63.3h-3.8c-2,0-3.7-1.6-3.7-3.7h0"/>
            </g>
          </g>
        </g>
        <g id="Group_171">
          <g class="st15">
            <g id="Group_170">
              <path id="Path_367" class="st24" d="M330.4,454s34.9-1.4,34.9,32.2-36.2,31.1-36.2,31.1c0,0,26.3-24.4,24.7-31.7s-23.4-31.7-23.4-31.7"/>
            </g>
          </g>
        </g>
        <g id="Group_173">
          <g class="st18">
            <g id="Group_172">
              <path id="Path_369" class="st21" d="M81.8,454h262.9c7.2,0,13.1,5.8,13.1,13.1v37.2c0,7.2-5.8,13.1-13.1,13.1H81.8v-63.3h0Z"/>
            </g>
          </g>
        </g>
        <g id="Group_178">
          <g class="st17">
            <g id="Group_177">
              <g id="Group_176" class="st22">
                <g id="Group_175">
                  <g class="st6">
                    <g id="Group_174">
                      <path id="Path_370" class="st3" d="M70.3,485.7l279.7-31.3v-7.8H74.3l-4,39h0Z"/>
                    </g>
                  </g>
                </g>
              </g>
            </g>
          </g>
        </g>
        <g id="Group_180">
          <g class="st5">
            <g id="Group_179">
              <path id="Path_372" class="st1" d="M114.1,442.6h0c0-2.2,1.8-4,4-4h4v-55.5h-4c-2.2,0-4-1.8-4-4s1.8-4,4-4h327.4c19.6,0,36,15.6,36.3,35.2.3,19.8-15.5,36-35.3,36.3H118.1c-2.2,0-4-1.8-4-4h0"/>
              <path id="Path_373" class="st21" d="M443.1,438.6H122.1v-55.5h321c6.3,0,11.4,5.1,11.4,11.4h0v32.6c0,6.3-5.1,11.4-11.4,11.4"/>
            </g>
          </g>
        </g>
        <g id="Group_185">
          <g class="st9">
            <g id="Group_184">
              <g id="Group_183" class="st22">
                <g id="Group_182">
                  <g class="st7">
                    <g id="Group_181">
                      <path id="Path_374" class="st3" d="M114,417.4l344.2,21.2-344,8-.2-29.2h0Z"/>
                    </g>
                  </g>
                </g>
              </g>
            </g>
          </g>
        </g>
        <g id="Group_187">
          <g class="st8">
            <g id="Group_186">
              <path id="Path_376" class="st1" d="M285.2,375.1h133.8c5.2,0,9.4-4.2,9.4-9.4h0v-26.9c0-5.2-4.2-9.4-9.4-9.4h-133.8v45.8h0Z"/>
              <path id="Path_377" class="st24" d="M304.3,365.7v-26.9c0-5.2-4.2-9.4-9.4-9.4h-141.7c-2.9,0-5.3,2.4-5.3,5.3v35.6c0,2.7,2.2,4.9,4.9,4.9h142.2c5.2,0,9.4-4.2,9.4-9.4h0"/>
              <path id="Path_378" class="st23" d="M147.8,369.3h144.9c3.9,0,7-3.1,7-7v-20c0-3.9-3.1-7-7-7h-144.9v34h0Z"/>
              <rect id="Rectangle_71" class="st10" x="147.8" y="342.1" width="143.5" height="2.9"/>
              <rect id="Rectangle_72" class="st10" x="147.8" y="350.8" width="143.5" height="2.9"/>
              <rect id="Rectangle_73" class="st10" x="147.8" y="359.5" width="143.5" height="2.9"/>
              <path id="Path_379" class="st24" d="M394.4,367.8v-31.1c0-3.4-2.3-6.3-5.6-7.1v-.2h11.5c4,0,7.3,3.3,7.3,7.3v31.1c0,4-3.3,7.3-7.3,7.3h-11.5v-.2c3.3-.8,5.6-3.7,5.6-7.1"/>
              <path id="Path_380" class="st24" d="M370.7,367.8v-31.1c0-3.4-2.3-6.3-5.6-7.1v-.2h11.5c4,0,7.3,3.3,7.3,7.3v31.1c0,4-3.3,7.3-7.3,7.3h-11.5v-.2c3.3-.8,5.6-3.7,5.6-7.1"/>
              <path id="Path_381" class="st24" d="M346.9,367.8v-31.1c0-3.4-2.3-6.3-5.6-7.1v-.2h11.5c4,0,7.3,3.3,7.3,7.3v31.1c0,4-3.3,7.3-7.3,7.3h-11.5v-.2c3.3-.8,5.6-3.7,5.6-7.1"/>
              <path id="Path_382" class="st24" d="M323.1,367.8v-31.1c0-3.4-2.3-6.3-5.6-7.1v-.2h11.5c4,0,7.3,3.3,7.3,7.3v31.1c0,4-3.3,7.3-7.3,7.3h-11.5v-.2c3.3-.8,5.6-3.7,5.6-7.1"/>
            </g>
          </g>
        </g>
      </g>
    </g>
  </g>
</svg>