<?xml version="1.0" encoding="UTF-8"?>
<svg id="Layer_1" xmlns="http://www.w3.org/2000/svg" xmlns:xlink="http://www.w3.org/1999/xlink" version="1.1" viewBox="0 0 627.5 633">
  <!-- Generator: Adobe Illustrator 29.5.1, SVG Export Plug-In . SVG Version: 2.1.0 Build 141)  -->
  <defs>
    <style>
      .st0 {
        fill: none;
      }

      .st1 {
        fill: #003ea5;
      }

      .st2 {
        fill: #75a501;
      }

      .st3 {
        fill: #0547a5;
      }

      .st4 {
        fill: #3e5489;
      }

      .st5 {
        isolation: isolate;
      }

      .st6 {
        clip-path: url(#clippath-17);
      }

      .st7 {
        clip-path: url(#clippath-19);
      }

      .st8 {
        clip-path: url(#clippath-11);
      }

      .st9 {
        clip-path: url(#clippath-16);
      }

      .st10 {
        clip-path: url(#clippath-18);
      }

      .st11 {
        clip-path: url(#clippath-10);
      }

      .st12 {
        clip-path: url(#clippath-15);
      }

      .st13 {
        clip-path: url(#clippath-13);
      }

      .st14 {
        clip-path: url(#clippath-14);
      }

      .st15 {
        clip-path: url(#clippath-12);
      }

      .st16 {
        clip-path: url(#clippath-27);
      }

      .st17 {
        clip-path: url(#clippath-29);
      }

      .st18 {
        clip-path: url(#clippath-26);
      }

      .st19 {
        clip-path: url(#clippath-28);
      }

      .st20 {
        clip-path: url(#clippath-20);
      }

      .st21 {
        clip-path: url(#clippath-21);
      }

      .st22 {
        clip-path: url(#clippath-22);
      }

      .st23 {
        clip-path: url(#clippath-23);
      }

      .st24 {
        clip-path: url(#clippath-24);
      }

      .st25 {
        clip-path: url(#clippath-25);
      }

      .st26 {
        fill: #e2e6f0;
      }

      .st27 {
        clip-path: url(#clippath-1);
      }

      .st28 {
        clip-path: url(#clippath-3);
      }

      .st29 {
        clip-path: url(#clippath-4);
      }

      .st30 {
        clip-path: url(#clippath-2);
      }

      .st31 {
        clip-path: url(#clippath-7);
      }

      .st32 {
        clip-path: url(#clippath-6);
      }

      .st33 {
        clip-path: url(#clippath-9);
      }

      .st34 {
        clip-path: url(#clippath-8);
      }

      .st35 {
        clip-path: url(#clippath-5);
      }

      .st36 {
        fill: #04358c;
      }

      .st37 {
        fill: #c1d72e;
      }

      .st38 {
        fill: #fff;
      }

      .st39 {
        opacity: .2;
      }

      .st40 {
        fill: #f2f2f2;
      }

      .st41 {
        fill: #679c21;
      }

      .st42 {
        fill: #2663bc;
      }

      .st43 {
        clip-path: url(#clippath);
      }
    </style>
    <clipPath id="clippath">
      <rect class="st0" x="85.7" y="329.3" width="590.5" height="303.7"/>
    </clipPath>
    <clipPath id="clippath-1">
      <rect class="st0" x="85.7" y="329.3" width="590.5" height="303.7"/>
    </clipPath>
    <clipPath id="clippath-2">
      <path class="st0" d="M91.4,525.8h508.9c29.6,0,53.6,24,53.6,53.6s-24,53.6-53.6,53.6H90.7c-2.8,0-5-2.2-5-5s2.2-5,5-5h5.2v-85.8h-4.5c-3.1,0-5.7-2.6-5.7-5.7s2.5-5.7,5.7-5.7h0Z"/>
    </clipPath>
    <clipPath id="clippath-3">
      <rect class="st0" x="85.7" y="329.3" width="590.5" height="303.7"/>
    </clipPath>
    <clipPath id="clippath-4">
      <path class="st0" d="M95.9,537.2h356.3c9.8,0,17.7,7.9,17.7,17.7v50.4c0,9.8-7.9,17.7-17.7,17.7H95.9v-85.8h0Z"/>
    </clipPath>
    <clipPath id="clippath-5">
      <rect class="st0" x="85.7" y="534.3" width="394.7" height="98.7"/>
    </clipPath>
    <clipPath id="clippath-6">
      <rect class="st0" x="85.7" y="329.3" width="590.5" height="303.7"/>
    </clipPath>
    <clipPath id="clippath-7">
      <path class="st0" d="M176.1,446.8h376c2.1,0,3.7,1.6,3.7,3.7s-1.7,3.7-3.7,3.7h-3.8v63.3h3.3c2.3,0,4.2,1.9,4.2,4.2s-1.9,4.2-4.2,4.2H176.1c-21.9,0-39.6-17.7-39.6-39.6s17.8-39.6,39.6-39.6h0Z"/>
    </clipPath>
    <clipPath id="clippath-8">
      <rect class="st0" x="85.7" y="329.3" width="590.5" height="303.7"/>
    </clipPath>
    <clipPath id="clippath-9">
      <path class="st0" d="M285.4,454.1h262.9v63.3h-262.9c-7.3,0-13.1-5.9-13.1-13.1v-37.2c0-7.3,5.9-13.1,13.1-13.1h0Z"/>
    </clipPath>
    <clipPath id="clippath-10">
      <rect class="st0" x="280.1" y="446.7" width="279.7" height="39"/>
    </clipPath>
    <clipPath id="clippath-11">
      <rect class="st0" x="85.7" y="329.3" width="590.5" height="303.7"/>
    </clipPath>
    <clipPath id="clippath-12">
      <path class="st0" d="M187,383.1h321v55.5H187c-6.3,0-11.4-5.1-11.4-11.4v-32.6c0-6.3,5.1-11.4,11.4-11.4h0Z"/>
    </clipPath>
    <clipPath id="clippath-13">
      <rect class="st0" x="171.9" y="417.4" width="344.2" height="29.2"/>
    </clipPath>
    <clipPath id="clippath-14">
      <rect class="st0" x="85.7" y="329.3" width="590.5" height="303.7"/>
    </clipPath>
    <clipPath id="clippath-15">
      <rect class="st0" x="85.7" y="329.3" width="590.5" height="303.7"/>
    </clipPath>
    <clipPath id="clippath-16">
      <rect class="st0" x="85.7" y="329.3" width="590.5" height="303.7"/>
    </clipPath>
    <clipPath id="clippath-17">
      <path class="st0" d="M91.4,525.8h508.9c29.6,0,53.6,24,53.6,53.6,0,29.6-24,53.6-53.6,53.6H90.7c-2.8,0-5-2.2-5-5s2.2-5,5-5h5.2s0-85.8,0-85.8h-4.5c-3.1,0-5.7-2.6-5.7-5.7s2.5-5.7,5.7-5.7h0Z"/>
    </clipPath>
    <clipPath id="clippath-18">
      <rect class="st0" x="85.7" y="329.3" width="590.5" height="303.7"/>
    </clipPath>
    <clipPath id="clippath-19">
      <path class="st0" d="M95.9,537.2h356.3c9.8,0,17.7,7.9,17.7,17.7v50.4c0,9.8-7.9,17.7-17.7,17.7H95.9v-85.8h0Z"/>
    </clipPath>
    <clipPath id="clippath-20">
      <rect class="st0" x="85.7" y="534.3" width="394.7" height="98.7"/>
    </clipPath>
    <clipPath id="clippath-21">
      <rect class="st0" x="85.7" y="329.3" width="590.5" height="303.7"/>
    </clipPath>
    <clipPath id="clippath-22">
      <path class="st0" d="M176.1,446.8h376c2.1,0,3.7,1.6,3.7,3.7s-1.7,3.7-3.7,3.7h-3.8s0,63.3,0,63.3h3.3c2.3,0,4.2,1.9,4.2,4.2s-1.9,4.2-4.2,4.2H176.1c-21.9,0-39.6-17.7-39.6-39.6,0-21.9,17.8-39.6,39.6-39.6h0Z"/>
    </clipPath>
    <clipPath id="clippath-23">
      <rect class="st0" x="85.7" y="329.3" width="590.5" height="303.7"/>
    </clipPath>
    <clipPath id="clippath-24">
      <path class="st0" d="M285.4,454.1h262.9v63.3h-262.9c-7.3,0-13.1-5.9-13.1-13.1v-37.2c0-7.3,5.9-13.1,13.1-13.1h0Z"/>
    </clipPath>
    <clipPath id="clippath-25">
      <rect class="st0" x="280.1" y="446.7" width="279.7" height="39"/>
    </clipPath>
    <clipPath id="clippath-26">
      <rect class="st0" x="85.7" y="329.3" width="590.5" height="303.7"/>
    </clipPath>
    <clipPath id="clippath-27">
      <path class="st0" d="M187,383.1h321v55.5H187c-6.3,0-11.4-5.1-11.4-11.4v-32.6c0-6.3,5.1-11.4,11.4-11.4h0Z"/>
    </clipPath>
    <clipPath id="clippath-28">
      <rect class="st0" x="171.9" y="417.4" width="344.2" height="29.2"/>
    </clipPath>
    <clipPath id="clippath-29">
      <rect class="st0" x="85.7" y="329.3" width="590.5" height="303.7"/>
    </clipPath>
  </defs>
  <circle id="Ellipse_1" class="st41" cx="380.6" cy="608.5" r="362.5"/>
  <g id="Group_190" class="st5">
    <g class="st43">
      <g id="Group_188">
        <g id="Group_158">
          <g class="st27">
            <g id="Group_157">
              <path id="Path_361" class="st2" d="M90.7,633c-2.8,0-5-2.2-5-5s2.2-5,5-5h5.2v-85.8h-4.5c-3.1,0-5.7-2.6-5.7-5.7s2.5-5.7,5.7-5.7h508.9c29.6,0,53.6,24,53.6,53.6s-24,53.6-53.6,53.6H90.7"/>
            </g>
          </g>
        </g>
        <g id="Group_160">
          <g class="st30">
            <g id="Group_159">
              <rect id="Rectangle_63" class="st37" x="450.3" y="554.7" width="225.9" height="51.3"/>
            </g>
          </g>
        </g>
        <g id="Group_162">
          <g class="st28">
            <g id="Group_161">
              <path id="Path_363" class="st38" d="M95.9,623v-85.8h356.3c9.8,0,17.7,7.9,17.7,17.7v50.4h0c0,9.8-7.9,17.7-17.7,17.7H95.9Z"/>
            </g>
          </g>
        </g>
        <g id="Group_167">
          <g class="st29">
            <g id="Group_166">
              <g id="Group_165" class="st39">
                <g id="Group_164">
                  <g class="st35">
                    <g id="Group_163">
                      <path id="Path_364" class="st4" d="M447.7,534.2l32.7,8.3-2,90.4H85.6v-25.6s82.6,5.7,173.6-5.8c91-11.5,188.4-67.2,188.4-67.2h.1Z"/>
                    </g>
                  </g>
                </g>
              </g>
            </g>
          </g>
        </g>
        <g id="Group_169">
          <g class="st32">
            <g id="Group_168">
              <path id="Path_366" class="st37" d="M555.8,450.4h0c0,2.1-1.7,3.7-3.7,3.7h-3.8v63.3h3.3c2.3,0,4.2,1.9,4.2,4.2s-1.9,4.2-4.2,4.2H176.1c-21.9,0-39.6-17.7-39.6-39.6s17.8-39.6,39.6-39.6h376c2.1,0,3.7,1.7,3.7,3.7"/>
            </g>
          </g>
        </g>
        <g id="Group_171">
          <g class="st31">
            <g id="Group_170">
              <path id="Path_367" class="st37" d="M299.7,453.9s-21.8,24.4-23.4,31.7,24.7,31.7,24.7,31.7c0,0-36.2,2.5-36.2-31.1s34.9-32.2,34.9-32.2"/>
            </g>
          </g>
        </g>
        <g id="Group_173">
          <g class="st34">
            <g id="Group_172">
              <path id="Path_369" class="st38" d="M548.3,454.1v63.3h-262.9c-7.3,0-13.1-5.9-13.1-13.1v-37.2c0-7.3,5.9-13.1,13.1-13.1h262.9Z"/>
            </g>
          </g>
        </g>
        <g id="Group_178">
          <g class="st33">
            <g id="Group_177">
              <g id="Group_176" class="st39">
                <g id="Group_175">
                  <g class="st11">
                    <g id="Group_174">
                      <path id="Path_370" class="st4" d="M559.8,485.6l-4-39h-275.7v7.8l279.7,31.3h0Z"/>
                    </g>
                  </g>
                </g>
              </g>
            </g>
          </g>
        </g>
        <g id="Group_180">
          <g class="st8">
            <g id="Group_179">
              <path id="Path_372" class="st2" d="M516,442.6h0c0,2.2-1.8,4-4,4H183.6c-19.8-.3-35.6-16.5-35.3-36.3.3-19.6,16.7-35.2,36.3-35.2h327.4c2.2,0,4,1.8,4,4s-1.8,4-4,4h-4v55.5h4c2.2,0,4,1.8,4,4h0"/>
              <path id="Path_373" class="st38" d="M187,438.5c-6.3,0-11.4-5.1-11.4-11.4v-32.6h0c0-6.3,5.1-11.4,11.4-11.4h321v55.5H187"/>
            </g>
          </g>
        </g>
        <g id="Group_185">
          <g class="st15">
            <g id="Group_184">
              <g id="Group_183" class="st39">
                <g id="Group_182">
                  <g class="st13">
                    <g id="Group_181">
                      <path id="Path_374" class="st4" d="M516.1,417.4l-.2,29.2-344-8,344.2-21.2h0Z"/>
                    </g>
                  </g>
                </g>
              </g>
            </g>
          </g>
        </g>
        <g id="Group_187">
          <g class="st14">
            <g id="Group_186">
              <path id="Path_376" class="st2" d="M344.9,375.2v-45.8h-133.8c-5.2,0-9.4,4.2-9.4,9.4v26.9h0c0,5.2,4.2,9.4,9.4,9.4h133.8Z"/>
              <path id="Path_377" class="st37" d="M325.7,365.8h0c0,5.2,4.2,9.4,9.4,9.4h142.2c2.7,0,4.9-2.2,4.9-4.9v-35.6c0-2.9-2.4-5.3-5.3-5.3h-141.7c-5.2,0-9.4,4.2-9.4,9.4v26.9"/>
              <path id="Path_378" class="st40" d="M482.3,369.3v-34h-144.9c-3.9,0-7,3.1-7,7v20c0,3.9,3.1,7,7,7h144.9Z"/>
              <rect id="Rectangle_71" class="st26" x="338.8" y="342.1" width="143.5" height="2.9"/>
              <rect id="Rectangle_72" class="st26" x="338.8" y="350.8" width="143.5" height="2.9"/>
              <rect id="Rectangle_73" class="st26" x="338.8" y="359.5" width="143.5" height="2.9"/>
              <path id="Path_379" class="st37" d="M235.7,367.8c0,3.4,2.3,6.3,5.6,7.1v.2h-11.5c-4,0-7.3-3.3-7.3-7.3v-31.1c0-4,3.3-7.3,7.3-7.3h11.5v.2c-3.3.8-5.6,3.7-5.6,7.1v31.1"/>
              <path id="Path_380" class="st37" d="M259.4,367.8c0,3.4,2.3,6.3,5.6,7.1v.2h-11.5c-4,0-7.3-3.3-7.3-7.3v-31.1c0-4,3.3-7.3,7.3-7.3h11.5v.2c-3.3.8-5.6,3.7-5.6,7.1v31.1"/>
              <path id="Path_381" class="st37" d="M283.2,367.8c0,3.4,2.3,6.3,5.6,7.1v.2h-11.5c-4,0-7.3-3.3-7.3-7.3v-31.1c0-4,3.3-7.3,7.3-7.3h11.5v.2c-3.3.8-5.6,3.7-5.6,7.1v31.1"/>
              <path id="Path_382" class="st37" d="M307,367.8c0,3.4,2.3,6.3,5.6,7.1v.2h-11.5c-4,0-7.3-3.3-7.3-7.3v-31.1c0-4,3.3-7.3,7.3-7.3h11.5v.2c-3.3.8-5.6,3.7-5.6,7.1v31.1"/>
            </g>
          </g>
        </g>
      </g>
    </g>
  </g>
  <g>
    <circle id="Ellipse_2" class="st3" cx="390.6" cy="598.5" r="372.5"/>
    <circle id="Ellipse_11" data-name="Ellipse_1" class="st36" cx="380.6" cy="608.5" r="362.5"/>
    <g id="Group_1901" data-name="Group_190" class="st5">
      <g class="st12">
        <g id="Group_1881" data-name="Group_188">
          <g id="Group_1581" data-name="Group_158">
            <g class="st9">
              <g id="Group_1571" data-name="Group_157">
                <path id="Path_3611" data-name="Path_361" class="st1" d="M90.7,633c-2.8,0-5-2.2-5-5s2.2-5,5-5h5.2s0-85.8,0-85.8h-4.5c-3.1,0-5.7-2.6-5.7-5.7s2.5-5.7,5.7-5.7h508.9c29.6,0,53.6,24,53.6,53.6,0,29.6-24,53.6-53.6,53.6H90.7"/>
              </g>
            </g>
          </g>
          <g id="Group_1601" data-name="Group_160">
            <g class="st6">
              <g id="Group_1591" data-name="Group_159">
                <rect id="Rectangle_631" data-name="Rectangle_63" class="st42" x="450.3" y="554.7" width="225.9" height="51.3" transform="translate(1126.5 1160.7) rotate(-180)"/>
              </g>
            </g>
          </g>
          <g id="Group_1621" data-name="Group_162">
            <g class="st10">
              <g id="Group_1611" data-name="Group_161">
                <path id="Path_3631" data-name="Path_363" class="st38" d="M95.9,623h0v-85.8h356.3c9.8,0,17.7,7.9,17.7,17.7v50.4h0c0,9.8-7.9,17.7-17.7,17.7H95.9h0Z"/>
              </g>
            </g>
          </g>
          <g id="Group_1671" data-name="Group_167">
            <g class="st7">
              <g id="Group_1661" data-name="Group_166">
                <g id="Group_1651" data-name="Group_165" class="st39">
                  <g id="Group_1641" data-name="Group_164">
                    <g class="st20">
                      <g id="Group_1631" data-name="Group_163">
                        <path id="Path_3641" data-name="Path_364" class="st4" d="M447.6,534.2h.1s32.7,8.3,32.7,8.3l-2,90.4H85.6v-25.6s82.6,5.7,173.6-5.8c91-11.5,188.4-67.2,188.4-67.2h0Z"/>
                      </g>
                    </g>
                  </g>
                </g>
              </g>
            </g>
          </g>
          <g id="Group_1691" data-name="Group_169">
            <g class="st21">
              <g id="Group_1681" data-name="Group_168">
                <path id="Path_3661" data-name="Path_366" class="st42" d="M555.8,450.4h0c0,2.1-1.7,3.7-3.7,3.7h-3.8s0,63.3,0,63.3h3.3c2.3,0,4.2,1.9,4.2,4.2s-1.9,4.2-4.2,4.2H176.1c-21.9,0-39.6-17.7-39.6-39.6,0-21.9,17.8-39.6,39.6-39.6h376c2.1,0,3.7,1.7,3.7,3.7"/>
              </g>
            </g>
          </g>
          <g id="Group_1711" data-name="Group_171">
            <g class="st22">
              <g id="Group_1701" data-name="Group_170">
                <path id="Path_3671" data-name="Path_367" class="st42" d="M299.7,453.9s-21.8,24.4-23.4,31.7c-1.6,7.3,24.7,31.7,24.7,31.7,0,0-36.2,2.5-36.2-31.1,0-33.6,34.9-32.2,34.9-32.2"/>
              </g>
            </g>
          </g>
          <g id="Group_1731" data-name="Group_173">
            <g class="st23">
              <g id="Group_1721" data-name="Group_172">
                <path id="Path_3691" data-name="Path_369" class="st38" d="M548.3,454.1h0v63.3h-262.9c-7.3,0-13.1-5.9-13.1-13.1v-37.2c0-7.3,5.9-13.1,13.1-13.1h262.9,0Z"/>
              </g>
            </g>
          </g>
          <g id="Group_1781" data-name="Group_178">
            <g class="st24">
              <g id="Group_1771" data-name="Group_177">
                <g id="Group_1761" data-name="Group_176" class="st39">
                  <g id="Group_1751" data-name="Group_175">
                    <g class="st25">
                      <g id="Group_1741" data-name="Group_174">
                        <path id="Path_3701" data-name="Path_370" class="st4" d="M559.8,485.6h0l-4-39h-275.7s0,7.8,0,7.8l279.7,31.3h0Z"/>
                      </g>
                    </g>
                  </g>
                </g>
              </g>
            </g>
          </g>
          <g id="Group_1801" data-name="Group_180">
            <g class="st18">
              <g id="Group_1791" data-name="Group_179">
                <path id="Path_3721" data-name="Path_372" class="st1" d="M516,442.6h0c0,2.2-1.8,4-4,4H183.6c-19.8-.3-35.6-16.5-35.3-36.3.3-19.6,16.7-35.2,36.3-35.2h327.4c2.2,0,4,1.8,4,4s-1.8,4-4,4h-4s0,55.5,0,55.5h4c2.2,0,4,1.8,4,4h0"/>
                <path id="Path_3731" data-name="Path_373" class="st38" d="M187,438.5c-6.3,0-11.4-5.1-11.4-11.4v-32.6h0c0-6.3,5.1-11.4,11.4-11.4h321v55.5H187"/>
              </g>
            </g>
          </g>
          <g id="Group_1851" data-name="Group_185">
            <g class="st16">
              <g id="Group_1841" data-name="Group_184">
                <g id="Group_1831" data-name="Group_183" class="st39">
                  <g id="Group_1821" data-name="Group_182">
                    <g class="st19">
                      <g id="Group_1811" data-name="Group_181">
                        <path id="Path_3741" data-name="Path_374" class="st4" d="M516.1,417.4h0l-.2,29.2-344-8,344.2-21.2h0Z"/>
                      </g>
                    </g>
                  </g>
                </g>
              </g>
            </g>
          </g>
          <g id="Group_1871" data-name="Group_187">
            <g class="st17">
              <g id="Group_1861" data-name="Group_186">
                <path id="Path_3761" data-name="Path_376" class="st1" d="M344.9,375.2h0v-45.8s-133.8,0-133.8,0c-5.2,0-9.4,4.2-9.4,9.4v26.9h0c0,5.2,4.2,9.4,9.4,9.4h133.8,0Z"/>
                <path id="Path_3771" data-name="Path_377" class="st42" d="M325.7,365.8h0c0,5.2,4.2,9.4,9.4,9.4h142.2c2.7,0,4.9-2.2,4.9-4.9v-35.6c0-2.9-2.4-5.3-5.3-5.3h-141.7c-5.2,0-9.4,4.2-9.4,9.4v26.9"/>
                <path id="Path_3781" data-name="Path_378" class="st40" d="M482.3,369.3h0v-34s-144.9,0-144.9,0c-3.9,0-7,3.1-7,7v20c0,3.9,3.1,7,7,7h144.9s0,0,0,0Z"/>
                <rect id="Rectangle_711" data-name="Rectangle_71" class="st26" x="338.8" y="342.1" width="143.5" height="2.9" transform="translate(821.1 687.1) rotate(-180)"/>
                <rect id="Rectangle_721" data-name="Rectangle_72" class="st26" x="338.8" y="350.8" width="143.5" height="2.9" transform="translate(821.1 704.5) rotate(-180)"/>
                <rect id="Rectangle_731" data-name="Rectangle_73" class="st26" x="338.8" y="359.5" width="143.5" height="2.9" transform="translate(821.1 721.9) rotate(-180)"/>
                <path id="Path_3791" data-name="Path_379" class="st42" d="M235.7,367.8c0,3.4,2.3,6.3,5.6,7.1v.2h-11.5c-4,0-7.3-3.3-7.3-7.3v-31.1c0-4,3.3-7.3,7.3-7.3h11.5v.2c-3.3.8-5.6,3.7-5.6,7.1v31.1"/>
                <path id="Path_3801" data-name="Path_380" class="st42" d="M259.4,367.8c0,3.4,2.3,6.3,5.6,7.1v.2h-11.5c-4,0-7.3-3.3-7.3-7.3v-31.1c0-4,3.3-7.3,7.3-7.3h11.5v.2c-3.3.8-5.6,3.7-5.6,7.1v31.1"/>
                <path id="Path_3811" data-name="Path_381" class="st42" d="M283.2,367.8c0,3.4,2.3,6.3,5.6,7.1v.2h-11.5c-4,0-7.3-3.3-7.3-7.3v-31.1c0-4,3.3-7.3,7.3-7.3h11.5v.2c-3.3.8-5.6,3.7-5.6,7.1v31.1"/>
                <path id="Path_3821" data-name="Path_382" class="st42" d="M307,367.8c0,3.4,2.3,6.3,5.6,7.1v.2h-11.5c-4,0-7.3-3.3-7.3-7.3v-31.1c0-4,3.3-7.3,7.3-7.3h11.5v.2c-3.3.8-5.6,3.7-5.6,7.1v31.1"/>
              </g>
            </g>
          </g>
        </g>
      </g>
    </g>
  </g>
</svg>