<?xml version="1.0" encoding="UTF-8"?>
<svg id="Layer_2" data-name="Layer 2" xmlns="http://www.w3.org/2000/svg" xmlns:xlink="http://www.w3.org/1999/xlink" viewBox="0 0 406.96 417.88">
  <defs>
    <style>
      .cls-1 {
        fill: #444;
      }

      .cls-2 {
        filter: url(#drop-shadow-1);
      }

      .cls-3 {
        fill: #424143;
      }

      .cls-4 {
        fill: #51c8ec;
      }

      .cls-5 {
        fill: #2a2c7a;
      }

      .cls-6 {
        fill: #fff;
      }

      .cls-7 {
        fill: #f3b33c;
      }

      .cls-8 {
        fill: #eaefb6;
      }

      .cls-9 {
        fill: #bfd430;
      }
    </style>
    <filter id="drop-shadow-1" x="27.12" y="40.83" width="290.16" height="387.12" filterUnits="userSpaceOnUse">
      <feOffset dx="4" dy="4"/>
      <feGaussianBlur result="blur" stdDeviation="2"/>
      <feFlood flood-color="#427136" flood-opacity=".22"/>
      <feComposite in2="blur" operator="in"/>
      <feComposite in="SourceGraphic"/>
    </filter>
  </defs>
  <g id="Layer_1-2" data-name="Layer 1">
    <circle class="cls-8" cx="203.48" cy="203.48" r="203.48"/>
    <g class="cls-2">
      <g>
        <circle class="cls-3" cx="135.64" cy="336.25" r="24.3"/>
        <g>
          <path class="cls-9" d="M219.37,260.06c.09.55.03,1.04-.2,1.43-2.08,3.54-16.93-1.33-33.17-10.88-16.24-9.55-27.71-20.16-25.63-23.7.1-.17.24-.31.4-.45-21.36,4.11-44.11,16.99-55.91,37.04-10.76,18.3-11.24,39.76-3.27,57.79,5.18,11.72,13.89,22,25.77,28.99,11.89,6.99,25.11,9.61,37.86,8.44,19.64-1.8,38.16-12.64,48.93-30.94,12.12-20.61,12.32-47.03,5.21-67.73Z"/>
          <path class="cls-3" d="M160.78,226.46c1.3-.25,2.59-.46,3.88-.65-1.82-.16-3.15.04-3.88.65Z"/>
          <path class="cls-3" d="M218.87,258.59c.18.48.34.98.5,1.47-.07-.44-.24-.93-.5-1.47Z"/>
          <path class="cls-3" d="M186.01,250.61c16.24,9.55,31.09,14.42,33.17,10.88.23-.39.29-.88.2-1.43-.17-.49-.33-.98-.5-1.47-2.38-4.83-12.32-13.16-25.32-20.81-11.84-6.96-22.94-11.44-28.89-11.98-1.29.18-2.58.4-3.88.65-.16.13-.3.28-.4.45-2.08,3.54,9.39,14.15,25.63,23.7Z"/>
        </g>
      </g>
      <path class="cls-6" d="M176.64,308.62c.73.43,1.24,1.07,1.52,1.8.1.25,1.42,5.47,1.42,5.47,2.1-1.91,3.95-4.16,5.47-6.74.83-1.41,1.52-2.86,2.09-4.33.47-1.22.85-2.47,1.14-3.72,0,0-25.66,6.65-25.67,6.65-3.07.56-6.35.07-9.25-1.64-1.18-.69-2.21-1.54-3.1-2.5-.86-.94-1.57-1.98-2.12-3.09-1.96-3.94-1.95-8.75.45-12.82,3.07-5.22,9.13-7.61,14.73-6.26,1.27.3,2.5.79,3.68,1.49,2.55,1.5,4.46,3.78,5.62,6.48.53,1.23.71,2.5,0,3.7-.43.74-1.09,1.26-1.83,1.54-.23.08-.47.15-.71.18-.78.12-1.61-.02-2.35-.45-1.04-.61-1.37-1.62-1.84-2.66-.51-1.11-1.45-2.06-2.49-2.68-3.02-1.78-6.92-.77-8.7,2.25-1.41,2.4-1.07,5.35.65,7.36.44.52.98.98,1.6,1.34,1.38.81,3,1.09,4.56.71.49-.12,27.51-7.08,27.51-7.14-.04-1.19-.15-2.38-.34-3.55-1.3-8.22-6.14-15.81-13.87-20.36-13.73-8.08-31.42-3.49-39.5,10.24-8.08,13.74-3.49,31.42,10.24,39.5,8.84,5.2,19.32,5.16,27.81.8,0,0-2.03-7.71-2.07-7.96-.12-.78.02-1.61.45-2.35.5-.85,1.3-1.42,2.18-1.65s1.86-.12,2.71.38Z"/>
      <ellipse class="cls-6" cx="62.76" cy="260.66" rx="35.36" ry="14.8" transform="translate(-85.23 37.1) rotate(-19.97)"/>
      <ellipse class="cls-6" cx="217.15" cy="383.12" rx="35.36" ry="14.8" transform="translate(-201.82 518.73) rotate(-78.39)"/>
      <path class="cls-1" d="M262.09,88.92c-.07-.01-.14-.03-.21-.04-1.62-.4-2.62-2.04-2.22-3.66,1.4-5.69.03-12.1-3.57-16.72-1.03-1.32-.79-3.22.53-4.25,1.32-1.03,3.22-.79,4.25.53,4.79,6.14,6.53,14.33,4.67,21.89-.38,1.55-1.9,2.53-3.46,2.26Z"/>
      <circle class="cls-9" cx="250.91" cy="55.74" r="12.74"/>
      <path class="cls-9" d="M296.06,109.42c-9.97,16.38-30.51,23.8-49.01,16.62-18.5-7.18-28.66-26.52-24.96-45.34-20.52,5.3-38.3,20.01-46.56,41.27-15.26,39.31,6.21,89.69,34.06,100.55,27.16,10.58,77.92-12.41,92.98-51.22,8.26-21.27,5.06-44.12-6.51-61.88Z"/>
      <path class="cls-6" d="M247.04,126.04c18.5,7.18,39.04-.23,49.01-16.62-7.52-11.54-18.53-20.94-32.35-26.31-13.82-5.36-28.29-5.85-41.63-2.41-3.7,18.82,6.46,38.15,24.96,45.34Z"/>
      <path class="cls-5" d="M291.74,167.33c-11.61,29.9-50.71,47.62-71.64,39.46-21.46-8.36-38-47.18-26.24-77.46,10.49-27.03,40.91-40.43,67.94-29.94,27.03,10.49,40.43,40.91,29.94,67.94Z"/>
      <g>
        <g>
          <path class="cls-4" d="M276.15,174.51c1.55.4,3.21-.34,3.91-1.83.8-1.69.07-3.71-1.62-4.5l-6.25-2.95c-1.69-.8-3.71-.07-4.5,1.62-.8,1.69-.07,3.71,1.62,4.5l6.25,2.95c.19.09.39.16.59.22Z"/>
          <path class="cls-4" d="M206.37,142.91c-1.32-.9-1.86-2.63-1.2-4.15.74-1.71,2.74-2.5,4.45-1.76l6.34,2.75c1.72.74,2.5,2.74,1.76,4.45-.74,1.71-2.74,2.5-4.45,1.76l-6.34-2.75c-.2-.09-.38-.19-.55-.3Z"/>
        </g>
        <path class="cls-4" d="M260.49,145.83c1.67-2.97,3.5-5.33,6.19-7.54.15-.12.3-.24.45-.36-.38.29,0,0,.07-.04.3-.21.59-.42.9-.62.58-.38,1.17-.72,1.78-1.03.25-.13.51-.25.77-.37.4-.19-.47.18-.07.03.11-.04.21-.08.32-.12.57-.21,1.15-.38,1.75-.51.37-.08.67-.09.07-.04.25-.02.49-.05.74-.06.2,0,.41,0,.61,0,.11,0,.23.03.34.03.34-.02-.71-.18-.24-.02.16.06.35.1.52.14.59.14-.53-.35-.04-.02.15.1.32.22.48.31-.68-.37-.13-.06.11.19.47.48-.15-.36.06.08.12.24.29.47.42.71.07.13.12.26.19.39-.05-.09-.22-.61-.04-.09.1.3.21.6.3.91.09.32.17.65.24.98.03.14.16.95.12.66s.05.57.06.72c.03.45.04.89.04,1.34,0,2.01-.22,3.32-.78,5.35-.61,2.21-1.52,4.27-2.65,6.26-.8,1.41-.33,3.28,1.08,4.1s3.3.34,4.1-1.08c2.37-4.16,3.94-8.76,4.22-13.55.19-3.31-.29-7.1-2.22-9.89-3.85-5.56-11.17-3.49-15.85-.22-3.84,2.68-6.91,6.27-9.2,10.34-.79,1.41-.34,3.28,1.08,4.1s3.31.34,4.1-1.08h0Z"/>
        <path class="cls-4" d="M225.54,126.32c1.67-2.97,3.5-5.33,6.19-7.54.15-.12.3-.24.45-.36-.38.29,0,0,.07-.04.3-.21.59-.42.9-.62.58-.38,1.17-.72,1.78-1.03.25-.13.51-.25.77-.37.4-.19-.47.18-.07.03.11-.04.21-.08.32-.12.57-.21,1.15-.38,1.75-.51.37-.08.67-.09.07-.04.25-.02.49-.05.74-.06.2,0,.41,0,.61,0,.11,0,.23.03.34.03.34-.02-.71-.18-.24-.02.16.06.35.1.52.14.59.14-.53-.35-.04-.02.15.1.32.22.48.31-.68-.37-.13-.06.11.19.47.48-.15-.36.06.08.12.24.29.47.42.71.07.13.12.26.19.39-.05-.09-.22-.61-.04-.09.1.3.21.6.3.91.09.32.17.65.24.98.03.14.16.95.12.66s.05.57.06.72c.03.45.04.89.04,1.34,0,2.01-.22,3.32-.78,5.35-.61,2.21-1.52,4.27-2.65,6.26-.8,1.41-.33,3.28,1.08,4.1s3.3.34,4.1-1.08c2.37-4.16,3.94-8.76,4.22-13.55.19-3.31-.29-7.1-2.22-9.89-3.85-5.56-11.17-3.49-15.85-.22-3.84,2.68-6.91,6.27-9.2,10.34-.79,1.41-.34,3.28,1.08,4.1s3.31.34,4.1-1.08h0Z"/>
      </g>
    </g>
    <path class="cls-7" d="M80.63,128.25l-12.23.42c-2.93.1-5.61,1.67-7.13,4.18l-6.33,10.47c-3.45,5.71-11.97,4.88-14.25-1.39l-4.18-11.5c-1-2.76-3.33-4.82-6.18-5.49l-11.92-2.78c-6.49-1.52-8.34-9.88-3.08-13.98l9.65-7.53c2.31-1.8,3.56-4.65,3.31-7.58l-1.04-12.19c-.57-6.65,6.82-10.98,12.35-7.25l10.14,6.85c2.43,1.64,5.52,1.94,8.23.8l11.27-4.75c6.15-2.59,12.55,3.09,10.71,9.5l-3.38,11.76c-.81,2.82-.14,5.85,1.78,8.07l8.01,9.25c4.36,5.04.94,12.89-5.73,13.12Z"/>
    <path class="cls-7" d="M320.81,300.01l3.64-6.41c.87-1.54.91-3.41.1-4.98l-3.38-6.56c-1.84-3.57,1.28-7.69,5.21-6.88l7.23,1.48c1.73.36,3.53-.19,4.77-1.44l5.19-5.24c2.83-2.86,7.71-1.16,8.15,2.83l.82,7.33c.2,1.76,1.27,3.3,2.85,4.09l6.59,3.32c3.59,1.81,3.49,6.97-.17,8.63l-6.72,3.05c-1.61.73-2.74,2.22-3.01,3.97l-1.12,7.29c-.61,3.97-5.55,5.47-8.26,2.5l-4.97-5.45c-1.19-1.31-2.96-1.92-4.71-1.64l-7.28,1.19c-3.97.65-6.92-3.59-4.93-7.08Z"/>
  </g>
</svg>
