<?xml version="1.0" encoding="UTF-8"?>
<svg xmlns="http://www.w3.org/2000/svg" xmlns:xlink="http://www.w3.org/1999/xlink" viewBox="0 0 1080 1080">
  <defs>
    <style>
      .cls-1, .cls-2 {
        fill: none;
      }

      .cls-3 {
        fill: #003ea5;
      }

      .cls-4 {
        opacity: .21;
      }

      .cls-4, .cls-5 {
        fill: #9bc1f9;
      }

      .cls-6 {
        fill: #fff;
      }

      .cls-2 {
        stroke: #003ea5;
        stroke-linecap: round;
        stroke-linejoin: round;
        stroke-width: 12px;
      }

      .cls-7 {
        fill: #2663bc;
      }

      .cls-8 {
        clip-path: url(#clippath);
      }
    </style>
    <clipPath id="clippath">
      <circle class="cls-1" cx="813.23" cy="285.05" r="227.31"/>
    </clipPath>
  </defs>
  <g id="Layer_3" data-name="Layer 3">
    <path class="cls-4" d="M340.26,662.46c-5.56-17.95-16.56-33.16-30.76-45.71-7.44-6.57,38.81,7.64,33.38-1.05-33.85-54.16-77.14-26.45-87.25-30.26-12.95-4.89-26.29-8.53-39.25-10.95-51.45-9.6-166.52-3.93-181.48,173.49-8.02,95.08,6.35,200.28,88.6,253.65,72.76,47.22,228.13,45.59,304.54,24.66,179.22-49.09,132.27-140.77,85.67-178.96-62.81-51.48-106.12,32.53-173.45-184.88Z"/>
    <circle class="cls-4" cx="811.6" cy="285.14" r="227.2"/>
    <path class="cls-6" d="M689.17,443.11c-8.05-7.12-8.58-19.79-6.35-30.31,2.22-10.52,7.25-20.2,10.66-30.4,14.19-42.41-.43-89.95,11.43-133.07,5.01-18.23,14.56-34.84,24-51.23,7.95-13.79,16.12-27.85,28.08-38.36,26.1-22.94,69.16-23.29,95.62-.78,6.31,5.37,12.09,12.03,20.07,14.26,6.92,1.93,14.27.16,21.45.41,16.99.6,32.66,14.08,35.8,30.79,5.3,28.26-21.79,54.49-18.44,83.05,1.94,16.53,13.85,30.19,26.99,40.41s28.05,18.19,40.05,29.71c12,11.52,21.03,28.07,17.8,44.4-2.6,13.14-12.82,23.8-24.7,29.98-11.88,6.18-25.36,8.5-38.65,10.2-13.32,1.7-27.19,2.81-39.91-1.52s-24.03-15.42-24.59-28.84c-.43-10.37,5.39-20.05,6.16-30.4.92-12.38-5.36-23.98-9.22-35.78-7.03-21.48-6.11-44.63-5.12-67.21.2-4.51.7-9.62,4.28-12.37s10.53.54,8.79,4.7c2.86-6.65,5.77-13.52,5.86-20.75s-3.35-15.02-10.02-17.84-15.98,1.79-15.99,9.03c-11.42-2.73-17.58-14.72-22.9-25.19-5.31-10.47-13.31-21.97-25.05-22.13-10.83-.15-19.07,9.66-24.01,19.3-13.08,25.56-14.84,55.47-12.63,84.09.96,12.44,2.96,25.61,11.09,35.06,8.14,9.46,24.41,12.84,32.96,3.76-4.62,28.49-9.24,56.97-13.86,85.46-1.36,8.39-2.88,17.16-8.02,23.93-8.71,11.47-24.81,13.74-39.2,14.48-12.77.66-25.76.81-38.14-2.4-7.74-2-19-9.78-24.29-14.46Z"/>
    <path class="cls-6" d="M201.01,841.11c10.57-5.31,15.94-17.17,19.75-28.37,10.17-29.88,14.96-61.58,14.07-93.13-2.66,5.64-11.63,5.11-15.81.48-4.18-4.63-4.87-11.34-5.36-17.56-.43-5.51-.87-11.02-1.3-16.54-.29-3.66-.55-7.48.87-10.87s5.1-6.13,8.66-5.2c3.25.85,5.45,4.4,8.8,4.64,3.08.22,5.64-2.61,6.52-5.57s.59-6.13.94-9.21c.97-8.61,6.95-16.01,14.16-20.79,7.22-4.79,15.64-7.37,23.92-9.88,13.48-4.09,27.2-8.22,41.29-8.13,14.08.1,28.83,5.07,37.46,16.2,10.23,13.2,9.76,31.5,8.82,48.18-1.65,29.29-3.54,59.48-16.5,85.79-6.4,12.99-15.43,24.83-19.5,38.73s-1.51,31.38,10.88,38.88c2.38,1.44,5.29,2.77,6.01,5.45.53,1.97-.34,4.04-1.33,5.82-7.84,14.15-23.9,22.38-39.98,24.13s-32.27-2.18-47.55-7.48c-19.91-6.91-54.81-35.58-54.81-35.58Z"/>
    <g class="cls-8">
      <path class="cls-7" d="M989.56,429.64s-43.56-44.63-63.7-50.26-48.8-9.35-48.8-9.35c0,0-31.85,21.25-46.36,19.11s-24.23-13.74-29.49-17.44c-6.82,2.67-20.79,6.45-26.67,6.8s-23.45-3.32-38.67,3.97-50.7,51.3-65.86,70.64-4.43,18.88,12.31,32.05,97.97,41.4,148.65,41.4,189.25-73.69,158.6-96.92Z"/>
    </g>
    <path class="cls-7" d="M588.8,271.74c-6.32-37.01-38.54-65.19-77.35-65.19h-190c-43.35,0-78.5,35.15-78.5,78.5h0c0,43.35,35.15,78.5,78.5,78.5h190c25.78,0,48.66-12.43,62.97-31.63,20.88,3.2,50-11.89,69.85-43.99-22.34,9.55-44.29-5.99-55.47-16.19Z"/>
    <path class="cls-3" d="M319.92,649.67c-1.04-8.9-9.75-15.65-18.69-16.27-8.94-.62-14.14,10.38-20.47,16.73-5.79,5.81-9.01,10.67-17.06,13.89-.78.31-1.74-.35-1.97-1.16-1.48-5.15-1.64-9.6-.96-14.91.12-.92-1-1.43-1.61-.74-4.52,5.01-7.45,11.45-8.24,18.15-.09.73-.96,1.07-1.52.58h0c-.68-.59-1.72.05-1.5.92,3.75,14.87,2.12,31.05-4.53,44.87-.33.68-1.26.71-1.64.06-.75-1.27-2.25-2.17-3.76-2.12s-2.77.8-3.74,1.88c-.54.6-1.53.29-1.61-.52l-2.76-28.29c-1.21-12.41-1.43-32.5,18.71-49.08,14.84-12.21,26.04-20.39,55.17-22.1,21.88-1.29,46.02,6.71,53.28,12.05,10.46,7.7,16.73,23.92,18.19,36.83.86,7.56,1.32,15.85-2,22.47-.4.8-1.61.62-1.74-.26-.21-1.38-.79-2.7-1.68-3.77-.47-.57-1.39-.39-1.61.31-2.56,8.01-4.77,16.14-6.6,24.35-.19.83-1.3,1-1.71.26-7.76-13.87-5.13-31.82-9.35-47.18-.3-1.1-1.93-.81-1.82.32.25,2.4.3,4.81.16,7.22-.06,1.08-1.6,1.18-1.84.13-1.67-7.58-4.62-14.88-8.71-21.48-.09-.15-.22-.28-.36-.38-5.56-3.83-8.35.49-10.84,3.79-1.75,2.33-4.72,4.62-7.32,3.29"/>
    <path class="cls-3" d="M232.6,708.75s-2.57,30.24-2.25,37.29c.32,7.05.66,17.42,7.39,25.07,6.73,7.66,33.69,34.99,38.94,38.92s9.12,6.29,14.57,7,24.2.58,27.7.38,8.67.01,13.8-7c5.14-7.01,26.07-36.84,26.07-58.09s-4.7-5.5-6.99.52c-2.29,6.02-15.75,32.33-23.94,31.94s-11.16-1.12-18.33-1.12-12.76-.16-15.4.7c-2.65.86-33.02-17.64-36.45-23.98s-11.71-43.59-12.65-48.04-5.72-9.95-6.21-6.75-4.55-4.97-6.26,3.15Z"/>
    <path class="cls-3" d="M310.45,745.03c-2.8-3.01-8.01-5.33-12.68-4.27s-8.79,3.74-13.27,5.46c-3.75,1.44-8.18,2.1-11.78.59-.45-.19-.87.34-.56.72,4.15,4.96,10.01,8.49,16.35,9.79,7.1,1.45,14.74.09,20.9-3.72,11.54,4.94,25.84,2.44,35.16-5.92.39-.35.04-.97-.46-.85-3.35.78-7.06-.1-10.32-1.42-3.96-1.61-7.71-3.86-11.91-4.64s-10.24.89-11.44,4.27Z"/>
    <path class="cls-7" d="M494.25,942.59c-57.26-63.96-63.05-66.87-112.77-81.28-11.39-3.3-23.87-5.3-34.93-1.05-10.46,4.02-18.08,13.15-27.88,18.58-14.67,8.13-32.98,7.14-48.8,1.58-15.83-5.56-29.82-15.22-43.96-24.23-9.76-6.22-19.94-12.29-31.28-14.62-10.09-2.07-20.52-1.08-30.77-.07-22.09,2.17-44.57,4.43-65.04,13.01-20.47,8.58-39.01,24.59-45.08,45.94-6.37,22.41,16.86,125.93,194.08,139.31,48.74,3.68,323.1-11.55,246.44-97.18Z"/>
  </g>
  <g id="Layer_2" data-name="Layer 2">
    <path class="cls-2" d="M635.61,137c49.17-59.81,127.37-93.36,209.66-81.84,125.76,17.61,213.43,133.83,195.83,259.59-17.61,125.76-133.83,213.43-259.59,195.83-78.1-10.94-141.52-59.91-174.14-125.58"/>
    <g>
      <path class="cls-3" d="M184.7,370.47c-10.87,16.43-21.55,32.98-32.03,49.66-10.44,16.61-20.68,33.34-30.72,50.19-5.69,9.54-11.31,19.12-16.86,28.73-1.22,2.11-.56,5.18,1.67,6.36s5.06.58,6.36-1.67c9.86-17.05,19.93-33.99,30.19-50.8,10.22-16.74,20.64-33.37,31.25-49.87,6.01-9.34,12.08-18.64,18.21-27.9,1.35-2.04.47-5.25-1.67-6.39-2.34-1.24-4.94-.5-6.39,1.67h0Z"/>
      <path class="cls-3" d="M113.87,502.82c4.49-3.87,9.12-7.57,13.62-11.43s8.89-7.81,13.32-11.72c8.87-7.82,17.74-15.65,26.6-23.49,17.59-15.56,35.19-31.13,52.78-46.69,4.61-4.08,9.17-8.24,13.95-12.11.57-.46,1.15-.92,1.73-1.37-.15.12-.62.47.11-.08.35-.27.7-.53,1.06-.79,1.18-.87,2.38-1.71,3.6-2.52,2.44-1.61,4.99-3.07,7.62-4.35,2.17-1.06,2.93-4.32,1.65-6.29-1.46-2.27-3.94-2.72-6.29-1.65-9.87,4.48-18.03,12.01-26.07,19.11-8.86,7.83-17.72,15.67-26.58,23.5-17.78,15.72-35.58,31.44-53.34,47.19-4.99,4.42-9.99,8.82-14.96,13.26s-9.7,9.12-14.63,13.59c-1.61,1.46-1.59,4.38,0,5.84,1.75,1.61,4.09,1.51,5.84,0h0Z"/>
      <path class="cls-3" d="M192.52,376.12c4.86.43,8.1.85,12.68,1.6s8.73,1.56,13.07,2.49c8.77,1.88,17.46,4.1,26.14,6.32,2.35.6,5.15-.77,5.72-3.25s-.73-5.07-3.25-5.72c-17.91-4.61-35.89-9.09-54.37-10.7-2.42-.21-4.73,2.28-4.63,4.63.12,2.69,2.04,4.4,4.63,4.63h0Z"/>
      <path class="cls-3" d="M113.45,499.36c1.31-4.34,2.78-8.63,4.08-12.97s2.48-8.88,3.66-13.33c2.34-8.83,4.54-17.7,6.63-26.6,4.16-17.71,7.86-35.53,11.09-53.43,1.87-10.34,3.8-20.72,5.09-31.15.28-2.27-1.98-4.27-4.01-4.55s-4.67,1.04-5.08,3.32c-1.6,8.91-2.86,17.88-4.44,26.8s-3.31,17.97-5.15,26.92c-3.63,17.75-7.75,35.39-12.25,52.93-1.27,4.93-2.6,9.85-3.91,14.77s-2.43,10.06-3.81,15.05c-.59,2.11.73,4.66,2.93,5.16s4.48-.68,5.16-2.93h0Z"/>
      <path class="cls-3" d="M136.56,354.88c-14.55-.15-29.1-.21-43.65-.25-2.36,0-4.88,2.15-4.67,4.67,1.6,18.89,3.4,37.76,5.33,56.61s4.17,37.87,6.5,56.77c.67,5.48,1.32,10.95,2.16,16.41.4,2.6.76,5.22,1.23,7.82.44,2.42.71,5.44,1.21,8.08.35,1.84,2.43,2.94,4.14,2.71s3.4-1.83,3.28-3.71c-.31-4.69-1.06-9.35-1.37-14.04s-.93-9.37-1.47-14.05c-1.1-9.45-2.2-18.9-3.14-28.37-1.87-18.77-3.86-37.53-5.64-56.31-1.01-10.63-1.96-21.26-2.88-31.9l-4.67,4.67c14.55.01,29.1.02,43.65-.07,2.36-.01,4.61-2.06,4.5-4.5s-1.98-4.48-4.5-4.5h0Z"/>
      <path class="cls-3" d="M112.93,509.57c12.95-6.07,25.98-11.96,39.09-17.66,3.28-1.43,6.56-2.84,9.85-4.24,1.49-.64,2.99-1.27,4.49-1.9s-.79.33.68-.29c.45-.19.9-.38,1.35-.57.9-.38,1.8-.75,2.7-1.13,6.52-2.72,13.06-5.4,19.62-8.04,7.46-3,14.95-5.93,22.46-8.81,2.02-.77,3.33-2.29,3.43-4.5.69-16.33,1.37-32.66,2.06-48.99.1-2.44-2.22-4.78-4.67-4.67-2.62.12-4.56,2.05-4.67,4.67-.69,16.33-1.37,32.66-2.06,48.99l3.43-4.5c-27.08,10.38-53.87,21.52-80.32,33.41-7.41,3.33-14.79,6.72-22.15,10.17-2.22,1.04-2.95,4.4-1.67,6.39,1.47,2.28,4.01,2.79,6.39,1.67h0Z"/>
      <path class="cls-3" d="M138.79,364.46c1.47,9.82,3.06,19.63,4.76,29.41.84,4.85,1.71,9.7,2.61,14.54s1.66,9.9,2.86,14.74c.59,2.36,3.36,4,5.71,3.24,2.63-.85,3.62-3.13,3.24-5.71-.72-4.86-1.86-9.69-2.76-14.52s-1.8-9.85-2.66-14.78c-1.7-9.78-3.28-19.59-4.76-29.41-.36-2.42-3.54-3.97-5.74-3.26-2.64.86-3.65,3.15-3.26,5.74h0Z"/>
      <path class="cls-3" d="M142.43,362.92c2.93,0,2.93-4.55,0-4.55s-2.93,4.55,0,4.55h0Z"/>
      <path class="cls-3" d="M146.49,364.02c.47-1.03.8-1.83.77-3-.01-.62-.08-1.3-.32-1.89-.16-.4-.36-1-.63-1.42s-.61-.84-.94-1.22c-.42-.48-.97-.87-1.51-1.2s-1.22-.62-1.87-.76c-.7-.15-1.46-.27-2.19-.25-.18,0-.36.02-.54.05-.55.07-1.11.13-1.66.23-.17.03-.34.06-.5.1-1.2.29-2.44,1.19-3,2.29-.33.52-.51,1.08-.54,1.68-.13.6-.11,1.2.08,1.81l.46,1.08c.4.68.94,1.22,1.62,1.62l.05.04,1.1.46c.22.08.45.12.69.11.22.03.44.06.66.09.33,0,1-.1,1.32-.17.07-.01.14-.03.21-.05.25-.05.5-.1.75-.13l-1.24.17c.42-.05.83-.07,1.25-.01l-1.24-.17c.23.04.46.09.68.18l-1.11-.47c.2.08.38.19.55.32l-.94-.73c.15.12.29.26.41.41l-.73-.94c.12.15.21.31.29.48l-.47-1.11c.06.15.11.3.13.47l-.17-1.24c.02.14.02.28,0,.42l.17-1.24c-.02.12-.05.24-.1.35l.47-1.11-.03.06c-.34.54-.53,1.11-.55,1.74-.14.62-.11,1.24.08,1.86.14.61.42,1.14.84,1.59.33.51.77.91,1.31,1.2l1.11.47c.83.22,1.65.22,2.48,0l1.11-.47c.7-.41,1.26-.97,1.67-1.67h0Z"/>
    </g>
    <path class="cls-3" d="M982.2,848.19c-6.73-12.96-14.92-25.17-23.59-36.91-8.79-11.9-18.24-23.31-28.36-34.1-5.02-5.36-10.21-10.56-15.55-15.6-5.4-5.1-10.87-10.36-17.09-14.47s-15.04-7.8-22.48-4.8c-3.86,1.56-7.15,4.65-8.24,8.78-1.15,4.35.56,8.78,3.66,11.89,5.35,5.36,13.75,6.28,20.75,4.18s13.15-6.53,18.91-10.83c10.92-8.17,21.34-18.62,24.5-32.37.92-4.02,1.26-8.49-.24-12.42-1.52-3.97-4.41-7.1-8.43-8.6-7.47-2.8-14.91,3.48-16.15,10.72-1.41,8.22,3.37,15.2,7.53,21.81s8.73,13.81,13.13,20.69c8.85,13.83,17.81,27.59,26.87,41.27,4.51,6.81,9.05,13.6,13.61,20.38,2.31,3.43,4.89,6.68,7.4,9.96.37.49.75.97,1.13,1.46.12.16.24.32.37.47-.13-.17-.42-.55.18.23s1.2,1.53,1.82,2.27c.55.67.86,1.01,1.55,1.84.55.67,1.12,1.32,1.72,1.96,2.37,2.52,5.14,4.41,8.17,6.03,1.55.83,3.55.39,4.46-1.17.86-1.48.39-3.63-1.17-4.46-2.58-1.37-4.68-3.71-6.65-6.05-.95-1.13-1.4-1.76-2.27-3.13s-1.7-2.73-2.52-4.1c-1.92-3.21-3.77-6.49-5.87-9.6s-4.19-6.24-6.28-9.36c-8.44-12.63-16.8-25.32-25.06-38.07-8.26-12.75-16.44-25.55-24.5-38.43-.84-1.34-1.68-2.69-2.44-4.09-.41-.76-.8-1.53-1.15-2.32.41.9-.14-.38-.17-.47-.14-.4-.28-.8-.4-1.21s-.22-.82-.31-1.23c-.03-.15-.18-1.5-.09-.44-.05-.62-.03-1.23-.04-1.84-.01-1.11-.26.99,0-.09.08-.33.14-.66.23-.98.06-.22.15-.8.32-.96-.26.59-.29.66-.07.19.07-.15.15-.3.23-.44.13-.24.27-.48.42-.71l.18-.27c.3-.41.26-.36-.13.17,0-.15.56-.6.67-.7l.24-.22c.39-.32.32-.27-.19.14,0-.04.45-.29.53-.33l.28-.15c.46-.22.38-.18-.25.1,0-.04.91-.27.92-.25-.71.08-.8.1-.27.05.24-.01.48,0,.72,0l-.53-.08c.18.03.35.07.52.11.29.07.57.17.85.27-1.09-.41-.04.04.17.17.23.14,1,.87.23.13.26.25.52.51.79.76.58.56.09.07-.03-.09.22.3.42.6.6.92.12.21.24.43.34.65-.23-.58-.24-.59-.03-.03.12.42.26.83.36,1.26,0-.04.22,1.35.14.67s.04.73.03.68c.02.44.02.88,0,1.32s-.06.88-.09,1.32c-.12,1.41.21-.87-.08.51-.17.83-.34,1.66-.56,2.48-.37,1.37-.84,2.69-1.33,4.01-.45,1.19.41-.86-.12.29-.16.35-.31.69-.48,1.04-.33.69-.68,1.36-1.05,2.03-.71,1.28-1.48,2.53-2.31,3.73-.4.58-.82,1.15-1.23,1.71-.76,1.03.6-.72-.22.28-.33.4-.65.8-.98,1.19-1.93,2.29-4.05,4.42-6.27,6.43-1.07.97-2.17,1.91-3.29,2.83-.61.5-1.23.99-1.85,1.48.14-.11.71-.54,0,0-.42.32-.84.63-1.26.95-2.49,1.85-5.05,3.61-7.67,5.28-1.37.87-2.76,1.7-4.19,2.45-.78.41-1.57.8-2.38,1.14.89-.38-.44.16-.51.18-.48.18-.96.34-1.45.48-.77.23-1.55.43-2.34.58-.27.05-1.33.41-.22.05-.32.1-.78.07-1.11.09-.62.03-1.24.03-1.86,0-.35-.02-.77,0-1.11-.09,1.23.31-.35-.09-.59-.15-.6-.14-1.17-.34-1.76-.51-1.13-.34.81.47-.23-.09-.32-.17-.65-.33-.96-.51s-.6-.41-.91-.59c.75.44.29.26.09.06-.27-.25-.54-.48-.79-.75-.17-.18-.33-.36-.49-.54.3.41.29.39-.01-.05-.21-.36-.43-.7-.61-1.08.39.84.08-.05-.02-.23-.28-.53-.07.85-.04-.12v-.35c.03-.53,0-.47-.07.19-.03-.11.17-.94.27-1.01l-.21.46c.1-.21.21-.42.32-.63.12-.21.25-.4.38-.6-.6.96.22-.21.44-.42.19-.18,1.09-.75.18-.18.31-.19.62-.37.93-.56.92-.59-.65.14.07-.05.35-.09.68-.23,1.03-.31.14-.03,1.5-.23.45-.12.43-.04.86-.06,1.29-.06s.86.03,1.29.05c1.35.07-.84-.21.49.06,1.64.33,3.19.83,4.76,1.42.76.28-.95-.47.26.12.38.19.77.36,1.15.55.89.45,1.76.93,2.61,1.45,1.35.82,2.64,1.71,3.9,2.65-.06-.04,1.06.82.56.42s.6.48.54.44c.79.63,1.56,1.28,2.32,1.94,2.52,2.17,4.98,4.42,7.41,6.69,4.89,4.56,9.66,9.25,14.3,14.07s9.34,9.98,13.79,15.17c2.18,2.54,4.33,5.1,6.44,7.7,1.01,1.24,2.01,2.49,3,3.74.54.68,1.08,1.37,1.62,2.06.27.34.54.69.8,1.03-.55-.7.31.41.34.44,8.24,10.73,15.84,21.93,22.91,33.46,1.75,2.85,3.56,5.67,5.32,8.51,1.19,1.92,3.92,2.84,5.91,1.55s2.67-3.76,1.55-5.91h0Z"/>
    <path class="cls-3" d="M1007.49,822.09c-.64-.73-1.28-1.47-1.89-2.21-.18-.21-.36-.43-.53-.64.27.34.82.87-.5-.67-.36-.42-.74-.82-1.1-1.24-.63-.73-1.26-1.48-1.87-2.23-.35-.43-.69-.86-1.04-1.29-.14-.17-1.03-1.32-.6-.76-2.52-3.3-4.82-6.77-6.84-10.4-1.01-1.81-1.94-3.67-2.81-5.55-.2-.44-.4-.88-.6-1.32-.08-.18-.59-1.36-.31-.69-.43-1.02-.83-2.05-1.22-3.09-1.52-4.07-2.92-8.35-3.76-12.62-.93-4.77-1.45-8.48-1.92-13.04s-.78-9.41-1.07-14.13c-.56-9.27-1.01-18.55-2.31-27.75-2.21-15.53-7.38-31.4-18.51-42.88-6.34-6.54-14.34-10.93-22.76-14.2-7.88-3.06-16.05-5.06-24.47-5.83-16.42-1.51-33.76,1.96-47.32,11.64-7.4,5.29-14.05,11.82-20.06,18.63s-11.3,14.49-14.77,23.1c-6.77,16.74-5.97,35.84,1.05,52.34,6.68,15.7,18.82,28.06,33.45,36.57,14.6,8.49,30.84,13.44,46.44,19.67.48.19.96.39,1.44.58.28.11,1.09.42.36.14,1.21.46,2.42.96,3.63,1.43.42.16.84.36,1.27.5.64.21-.57-.26.06.01.18.08.36.16.54.24.95.43,1.9.88,2.84,1.33,3.53,1.69,6.99,3.52,10.34,5.54,1.66,1,3.29,2.04,4.89,3.14.74.51,1.48,1.03,2.2,1.56.36.26.72.53,1.08.8.08.06.71.55.34.26s.5.4.48.38c2.97,2.38,5.77,4.98,8.33,7.8,1.19,1.31,2.35,2.65,3.44,4.04.47.61.19.25.09.12.15.2.31.41.47.61.27.36.53.72.8,1.08.56.78,1.14,1.57,1.62,2.4.98,1.7,3.29,2.29,4.97,1.3s2.28-3.26,1.3-4.97c-2-3.48-3.97-6.8-6.56-9.9-2.4-2.88-5.1-5.49-7.97-7.88-5.99-5-12.61-9.16-19.56-12.71-3.41-1.74-6.87-3.5-10.38-5.05-1.07-.47-2.16-.92-3.24-1.38-.42-.18-.84-.35-1.26-.52-.24-.1-.48-.2-.72-.3-.24-.1-.24-.1,0,0,.37.16.25.11-.36-.15-2.02-.85-4.05-1.68-6.1-2.46-3.86-1.47-7.74-2.92-11.59-4.4-1.9-.73-3.79-1.48-5.67-2.24-.91-.37-1.81-.75-2.72-1.12-.5-.2.07.03.15.06-.26-.11-.51-.22-.77-.33-.51-.22-1.03-.44-1.54-.67-7.47-3.27-14.78-7.03-21.42-11.79-.39-.28-.78-.57-1.17-.85-.2-.15-1.22-.93-.54-.4-.82-.64-1.62-1.29-2.42-1.96-1.51-1.28-2.97-2.62-4.37-4.02s-2.81-2.94-4.11-4.5c-.3-.36-.6-.73-.9-1.1-.17-.21-.93-1.2-.4-.5-.61-.81-1.21-1.63-1.79-2.47-2.28-3.28-4.28-6.76-5.96-10.38-.2-.43-.39-.86-.58-1.3-.05-.12-.39-.91-.17-.38.21.49-.05-.13-.08-.19-.4-1.01-.79-2.01-1.15-3.04-.65-1.85-1.22-3.73-1.7-5.63s-.91-4-1.22-6.03c-.04-.29-.09-.57-.13-.86.01.08.08.71.03.16-.05-.51-.12-1.01-.17-1.51-.11-1.16-.19-2.31-.24-3.47-.09-2.1-.08-4.21.04-6.31.06-1.01.14-2.03.24-3.04.05-.5.11-1.01.17-1.51-.02.19-.13.87.01-.05.04-.29.09-.57.13-.86.68-4.22,1.79-8.37,3.32-12.36.18-.47.37-.94.56-1.41-.32.78.21-.47.31-.68.45-.99.92-1.97,1.42-2.93,1-1.92,2.1-3.79,3.28-5.6.55-.85,1.12-1.68,1.71-2.51.29-.41.59-.82.89-1.23.13-.17.26-.35.39-.52-.02.03.73-.96.43-.56-.32.42.23-.29.3-.38.13-.17.27-.34.41-.51.32-.39.64-.79.96-1.18.74-.89,1.5-1.77,2.27-2.64,2.81-3.17,5.79-6.2,8.85-9.14,1.65-1.59,3.34-3.15,5.09-4.63.81-.69,1.65-1.36,2.48-2.04.41-.33.04-.03-.04.03.24-.19.49-.37.73-.55.49-.36.99-.72,1.49-1.07,1.69-1.18,3.44-2.27,5.25-3.26.82-.45,1.64-.87,2.48-1.28.42-.2.84-.4,1.26-.59.18-.08.36-.16.54-.25.11-.05,1.11-.48.54-.24-.5.21.11-.04.18-.07.25-.1.49-.2.74-.29.43-.17.87-.33,1.3-.49.93-.34,1.88-.66,2.82-.95,1.9-.59,3.83-1.09,5.78-1.51.91-.19,1.83-.37,2.74-.53.46-.08.92-.15,1.38-.22.2-.03.4-.06.59-.09-1.01.15-.06.01.15-.02,1.93-.23,3.86-.39,5.8-.47,3.97-.16,7.95-.02,11.9.42.47.05.94.11,1.41.17.2.02.91.14-.03,0,.2.03.4.06.6.09,1,.15,2,.32,3,.5,2,.37,3.99.75,5.96,1.24s3.78.99,5.64,1.61c.96.32,1.91.65,2.85,1.01.41.15.82.31,1.23.47.27.11.54.22.82.33.09.04,1.13.47.68.28-.41-.17.25.11.27.12.27.12.54.24.8.36.47.21.93.42,1.4.64.99.47,1.97.96,2.94,1.48,1.93,1.03,3.81,2.18,5.6,3.44.36.25.71.51,1.07.77.72.53.28.2.12.08.23.18.46.36.68.55.77.63,1.52,1.28,2.25,1.96,1.34,1.25,2.61,2.58,3.8,3.97.29.33.57.67.84,1.02.21.26.85,1.12.32.4.59.81,1.19,1.62,1.75,2.46,1.02,1.52,1.96,3.09,2.83,4.7s1.68,3.28,2.42,4.97c.08.19.71,1.65.29.65.15.35.29.71.44,1.07.38.96.74,1.92,1.09,2.89,1.26,3.55,2.22,7.17,3.05,10.84.43,1.9.8,3.81,1.13,5.73.15.89.3,1.79.43,2.68.07.45.13.89.19,1.34.03.19.05.38.08.57-.14-.99-.01-.07.01.14.57,4.48.96,8.99,1.27,13.5.65,9.51,1.13,19.02,2.42,28.47,1.18,8.64,3.13,17.25,6.47,25.32,3.21,7.77,7.31,15.13,12.44,21.8,2.58,3.35,5.34,6.35,8.55,9.11,1.57,1.34,4.07,1.65,5.59,0s1.46-3.93,0-5.59h0Z"/>
    <path class="cls-3" d="M1003.79,821.5c-.13.56-.25,1.15-.45,1.69.17-.46-.08.17-.11.22-.13.25-.27.51-.39.77.03-.06-.71,1.62-.34.8-.12.26-.24.53-.37.79-.28.59-.57,1.19-.85,1.78-.98,2.01-2.14,3.92-3.46,5.73-.15.2-.29.4-.44.59.09-.13.57-.73.04-.06-.3.39-.6.77-.91,1.16-.62.76-1.27,1.5-1.93,2.22-1.38,1.48-2.86,2.87-4.41,4.16-.19.16-.38.31-.57.47-.11.09-.73.58-.25.21s-.15.11-.26.19c-.2.15-.4.29-.6.44-.85.61-1.72,1.2-2.6,1.76-1.67,1.05-3.41,2.01-5.19,2.87-.45.21-.9.42-1.35.63-.23.1-.45.2-.68.3.9-.4.28-.12.09-.04-.98.39-1.96.77-2.96,1.1-1.94.66-3.91,1.22-5.91,1.67-2.18.49-4.38.83-6.58,1.19-.6.1-1.21.19-1.82.28-.18.03-.83.09.04,0-.43.05-.87.1-1.3.16-.32.04-.6.08-.91.16-.23.06-2.28,1.04-2.11,1.13-.17-.09,1.62-.55.46-.35-.34.06-.69.2-1.02.3-2.95.83-2.64,4.72,0,5.68.23.08.45.16.68.24l.34.12c.48.19.46.15-.06-.11l-.4-.23c.36.39.79.66,1.28.83.34.14.64.25,1,.33,1.31.29,2.73.28,4.07.29,2.45,0,4.92-.3,7.32-.75,4.57-.86,8.93-2.34,13.17-4.25,8.23-3.7,15.76-9.57,20.98-16.97,1.49-2.11,2.82-4.36,3.92-6.7.71-1.53,1.41-3.13,1.77-4.78.15-.69.27-1.98.31-2.3.07-.46.29-1.9.39-2.67.24-1.91-1.66-3.58-3.37-3.81-1.84-.25-3.81.89-4.26,2.78h0Z"/>
    <path class="cls-3" d="M953.62,856.39c-.29,2.06-.61,4.13-.62,6.22,0,2.2.4,4.27,1.28,6.27.77,1.75,2.09,3.09,3.68,4.12s3.72,1.71,5.61,1.25c2.15-.52,2.6-3.73.63-4.79-.26-.14-.56-.22-.81-.36.56.32.16.06.02,0-.27-.13-.53-.28-.79-.43-.34-.19.02-.02.12.12-.07-.1-.21-.18-.3-.26-.23-.21-.42-.44-.63-.66-.27-.29.39.58.08.09-.07-.12-.15-.23-.22-.35-.16-.27-.31-.55-.45-.82s-.3-.56-.44-.84c-.06-.12-.11-.27-.18-.38.15.23.28.71.09.17-.23-.65-.36-1.31-.49-1.98s.03.5,0,.04c-.01-.17-.03-.35-.05-.52-.03-.39-.04-.79-.04-1.19,0-1.6.2-3.18.4-4.76.1-.79-.46-1.95-1.03-2.47s-1.23-.86-2.01-.96c-1.54-.21-3.6.78-3.84,2.51h0Z"/>
    <path class="cls-3" d="M1007.86,824.72c.59.19,1.18.4,1.75.63l-1.02-.43c.87.4,1.7.88,2.53,1.34s1.61.98,2.36,1.56l-.9-.7c.67.53,1.3,1.09,1.84,1.75l-.69-.9c.38.5.73,1,.98,1.58l-.43-1.03c.23.58.49,1.13.75,1.7l-.42-.99c.17.41.31.82.38,1.26l-.13-1c.06.51.14,1.01.23,1.52.22,1.17,1.35,2.14,2.44,2.44,1.23.34,2.5-.03,3.41-.9,1.72-1.65,2.24-4.54,1.5-6.76-.61-1.84-1.71-3.52-3.23-4.74-1.32-1.05-2.69-2.02-4.21-2.76s-3.24-1.29-4.9-1.7c-1.08-.27-2.28-.14-3.24.42-.87.51-1.71,1.51-1.93,2.51-.52,2.29.69,4.47,2.94,5.18h0Z"/>
    <path class="cls-3" d="M1014.79,827.61c.02.37.03.73.01,1.09,0,.19-.14,1.11-.02.37-.09.56-.22,1.12-.36,1.68-.34,1.34-.69,2.68-1.14,3.99-.12.35-.25.69-.38,1.04-.05.12-.34.82-.04.12-.21.51-.44,1.01-.65,1.52.04-.09-.52,1.25-.27.68s-.35.77-.31.68c-.12.27-.25.54-.38.81-.31.65-.64,1.3-.98,1.95-1.16,2.23-2.4,4.41-3.8,6.49-.71,1.06-.97,1.47-1.69,2.35-.86,1.05-1.81,2.02-2.74,3.01-1.67,1.78-3.43,3.46-5.29,5.04-1.73,1.46-3.36,2.7-5.53,4.16-1.03.69-2.14,1.3-3.26,1.85-.57.28-1.15.55-1.73.8.16-.07.47-.2-.26.11-.93.4-1.22.52-.85.36.2-.08.09-.04-.33.13-2.37.92-4.8,1.65-7.27,2.27-2.83.71-5.76,1.03-8.63,1.49-1.2.2-2.54.05-3.76-.02-1.54-.09-2.99-.64-4.54-.61-2.47.05-3.45,3.41-1.27,4.69,2.51,1.46,5.92,1.55,8.74,1.93,1.33.18,2.63.49,3.99.54,1.68.07,3.31-.1,4.97-.33,5.71-.8,11.01-2.77,16.03-5.59s9.39-6.09,13.34-10.16c1.85-1.9,3.44-4.01,5.16-6.03.96-1.13,1.88-2.31,2.78-3.49.49-.65.22-.3.11-.16.37-.49.76-.98,1.13-1.47.41-.54.81-1.09,1.21-1.65,2.02-2.83,3.8-5.73,5.06-8.98.67-1.71,1.09-3.43,1.33-5.26.12-.92.15-1.84.11-2.76-.01-.29-.04-.58-.06-.87-.05-.52-.12-1.04-.2-1.55.07.39.06.33,0-.19-.26-2.13-1.71-4.23-4.12-4.12-2.14.1-4.24,1.82-4.12,4.12h0Z"/>
    <path class="cls-3" d="M1017.76,834.04c1.23,1.1,2.4,2.26,3.52,3.48.56.6,1.1,1.22,1.63,1.86.26.32.52.64.78.96.57.69-.54-.71.16.2.47.61.94,1.22,1.32,1.9.1.18.19.36.28.54-.23-.56-.27-.62-.1-.18.11.38.24.75.34,1.14.08.35.25.8.23,1.16-.07-.54-.08-.59-.02-.14.02.2.05.41.06.61.07.81.08,1.62.18,2.43.18,1.36.86,2.73,2.34,3.07,1.29.29,2.98-.16,3.6-1.46.94-1.99,1.53-4.11,1.69-6.32.17-2.38-.7-4.72-1.94-6.71-2.07-3.31-4.73-6.37-7.55-9.06-1.74-1.67-4.81-1.86-6.52,0-1.62,1.76-1.91,4.8,0,6.52h0Z"/>
    <path class="cls-3" d="M962.01,874.53c.46,5.53,2.89,10.63,7.72,13.61,2.37,1.46,5.29,2.13,8.06,2.21s5.65-.45,7.86-2.05c1.04-.75,1.8-2.03,1.37-3.36-.38-1.18-1.54-2.29-2.87-2.18-.94.07-1.9.16-2.84.18-.54.01-1.08,0-1.61-.03-.11,0-.69,0-.74-.06.11.16.72.12,0-.02-.48-.09-.95-.21-1.42-.35-.23-.07-.46-.16-.7-.23-.91-.29.51.26.02.02-.92-.45-1.8-.95-2.64-1.53-.13-.09-.79-.56-.22-.15s-.12-.12-.19-.18c-.34-.3-.67-.62-1-.94s-.63-.66-.93-1.01c-.15-.17-.29-.36-.44-.52-.35-.38.52.74.08.11-.26-.38-.52-.76-.75-1.15-.14-.24-.27-.48-.39-.72-.06-.12-.36-.86-.14-.26s-.08-.23-.1-.29c-.08-.22-.14-.43-.2-.66-.13-.49-.22-.98-.3-1.47-.29-1.9-2.55-3.01-4.26-2.78s-3.53,1.88-3.37,3.81h0Z"/>
    <path class="cls-3" d="M1026.44,843.62c.07,1.97-.34,3.19-1.36,4.83-.25.41-.54.79-.82,1.18-.12.17-.24.34-.37.5.11-.14.36-.44-.14.17-.66.8-1.34,1.59-2.03,2.37-2.73,3.1-5.7,5.99-8.68,8.85s-6.06,5.42-9.14,8.07-5.99,4.97-9.58,7c-4.09,2.31-8.47,4.14-12.31,6.86-2.49,1.76-.96,5.36,2.04,4.84,4.39-.76,8.56-2.91,12.4-5.12s7.71-4.34,11.5-6.63,7.52-5.27,10.94-8.29,6.66-6.35,9.34-10.03c3-4.11,4.74-9.48,4.24-14.6-.16-1.62-1.28-3.02-3.02-3.02-1.59,0-3.08,1.38-3.02,3.02h0Z"/>
    <path class="cls-3" d="M1028.17,856.42c.66.16,1.3.36,1.93.62l-1.03-.43c1.13.48,2.16,1.11,3.13,1.86l-.88-.68c.74.59,1.4,1.25,1.98,2l-.68-.88c.68.92,1.26,1.88,1.72,2.93l-.42-.99c.79,1.93,1.24,3.94,1.93,5.9.43,1.23,1.55,2.31,2.95,2.25,1.31-.06,2.63-.9,2.95-2.25.94-4,.89-8.77-1.62-12.22-2.36-3.23-5.72-5.56-9.7-6.31-1.14-.21-2.25-.18-3.28.43-.88.52-1.72,1.53-1.96,2.54-.5,2.18.66,4.69,2.97,5.24h0Z"/>
    <path class="cls-3" d="M976.55,888.62c-.55,2.38-.59,4.74-.18,7.14s1.57,4.51,3.06,6.36c1.21,1.5,2.82,2.81,4.56,3.64,2.11,1.01,4.98,1.87,7.28,1.02,1.33-.49,2.29-1.43,2.49-2.89s-.5-2.6-1.66-3.46c-.7-.52-1.55-.84-2.32-1.25s-1.56-.96-2.29-1.5l.89.69c-.89-.69-1.7-1.47-2.4-2.35l.7.91c-.69-.89-1.28-1.82-1.73-2.85l.45,1.06c-.26-.63-.54-1.26-.81-1.89l.44,1.05c-.4-.98-.67-1.99-.82-3.04l.15,1.1c-.11-.9-.1-1.8.01-2.7s-.51-2.22-1.17-2.81-1.4-.97-2.28-1.09c-1.88-.25-3.91.91-4.37,2.85h0Z"/>
    <path class="cls-3" d="M1036.73,863.12c-.08,2.21-.78,3.68-1.5,5.68-.53,1.48-1.62,3.44-2.62,5.02-2.22,3.49-4.83,6.33-7.92,9.37-6.05,5.97-12.65,11.43-20.57,14.65-2.49,1.01-5.06,1.84-7.7,2.33-1.16.22-2.33.35-3.51.44-1.57.11-2.95.34-4.45.78-1.12.33-1.95,1.38-1.95,2.56,0,1.26.85,2.12,1.95,2.56,1.31.52,2.56.81,3.98.81s2.8-.16,4.18-.35c2.61-.35,5.2-.91,7.68-1.82,4.65-1.71,8.98-4.25,13.19-6.84s8.18-5.33,11.76-8.76,6.66-7,9.2-11.14c1.39-2.27,2.48-4.68,3.32-7.2s.99-5.5,1-8.12c.01-3.9-5.9-3.88-6.04,0h0Z"/>
    <path class="cls-7" d="M298.4,458.5c6.31,8.47,13.72,16.29,22.01,22.86s17.27,11.94,26.76,16.48c2.35,1.12,4.71,2.22,7.1,3.24,1.33.57,2.66,1.13,4.01,1.67,1.5.61,2.16.85,3.24,1.31,1.41.6,2.83,1.19,4.25,1.77.19.07.96.39.22.08.53.22,1.01.42,1.54.6.65.22,1.31.44,1.96.66,2.57.85,5.16,1.63,7.76,2.37,5.18,1.46,10.36,2.8,15.65,3.8s11.05,1.85,16.62,2.51c25.21,2.98,50.71,1.68,75.93-.47,27.33-2.33,54.6-5.77,82.04-6.57,11.67-.34,23.35-.17,34.99.83,2.7.23,5.4.5,8.09.82.64.08,1.28.15,1.92.23.24.03,2.24.3,1.07.13,1.41.19,2.81.39,4.22.61,5.35.82,10.67,1.83,15.94,3.05s10.43,2.62,15.54,4.26c2.6.83,5.18,1.72,7.74,2.68,1.25.46,2.49.94,3.72,1.44.59.23,1.17.47,1.76.71.23.1.47.19.7.29-1.04-.44.25.11.45.2,9.71,4.19,19.01,9.37,27.54,15.65.5.37,1,.74,1.5,1.12,0,0,.98.76.42.32s.41.32.41.33c1.08.85,2.15,1.72,3.2,2.61,2.01,1.7,3.97,3.47,5.86,5.3s3.75,3.75,5.53,5.72c.91,1.01,1.8,2.03,2.66,3.08.27.33.53.65.79.98.56.7.16.21.05.06.52.67,1.02,1.36,1.51,2.05,1.71,2.42,3.26,4.95,4.58,7.61.34.69.65,1.39.97,2.09s-.37-1.01.09.23c.12.32.25.64.37.97.52,1.41.96,2.85,1.3,4.31.15.66.29,1.32.4,1.98.04.25.15,1.16.04.16.05.4.09.8.12,1.2.12,1.47.12,2.95,0,4.41-.02.27-.05.54-.08.8.11-1.13-.04.2-.07.37-.12.67-.27,1.34-.45,2.01-.12.46-.27.91-.43,1.36-.03.09-.2.41-.2.53.29-.67.33-.78.13-.33-.08.17-.16.34-.25.51-.43.85-.95,1.64-1.48,2.43-.44.65.13-.21.21-.26-.19.1-.41.5-.55.66-.38.44-.77.86-1.18,1.26-.34.34-.7.66-1.06.98-.15.13-.3.25-.44.37-.78.67.87-.61.03-.02s-1.75,1.19-2.68,1.7c-.42.23-.85.44-1.28.64-.11.05-.95.48-.23.11s-.11.03-.24.08c-.97.36-1.96.65-2.96.87-.41.09-1.89.14-.39.11-.45.01-.9.1-1.35.12s-.89.03-1.34.01c-.27,0-.53-.02-.79-.04-.42-.03-1.09-.32.19.05-.83-.24-1.69-.33-2.52-.62-.48-.17-.75-.55.15.09-.12-.09-.32-.15-.47-.22-.46-.23-.91-.49-1.35-.78-1.05-.71.64.6-.31-.24-.34-.3-.66-.62-.96-.95-.16-.18-.34-.5-.54-.64.66.47.44.62.19.21-.35-.59-.7-1.17-1.02-1.77-.53-1,.3.94-.05-.13-.07-.21-.15-.42-.21-.64-.16-.54-.27-1.09-.39-1.63-.26-1.11.04,1.05-.01-.1-.01-.28-.04-.56-.05-.85-.02-.63-.01-1.25.03-1.87.02-.31-.07-1.34-.01-.13-.01-.27.1-.59.15-.85.11-.57.25-1.13.42-1.69s.38-1.1.57-1.65c.23-.68-.5,1,.01-.02.18-.37.36-.74.55-1.1.28-.52.58-1.02.9-1.51.16-.24.33-.48.5-.72.65-.97-.65.7.13-.16.87-.96,1.76-1.81,2.72-2.67.56-.51-.88.59.15-.11.32-.22.64-.45.97-.67.55-.36,1.1-.69,1.68-1.01s1.15-.61,1.75-.89c.24-.11.48-.22.72-.32-1.02.44.54-.19.72-.25,1.25-.45,2.52-.82,3.8-1.12.65-.15,1.3-.29,1.95-.41.26-.05.53-.1.79-.14.21-.03,1.91-.25.74-.12,2.76-.31,5.52-.44,8.29-.39s5.34.26,7.99.59c-1.22-.15.76.12,1,.16.62.1,1.24.21,1.85.32,1.35.25,2.7.54,4.04.87,2.55.62,5.07,1.37,7.55,2.23,1.18.41,2.36.85,3.52,1.3.58.23,1.16.46,1.75.7,1.18.47-.88-.39.29.12.35.15.69.3,1.04.45,4.95,2.2,9.7,4.82,14.29,7.71,2.3,1.45,4.56,2.98,6.78,4.56,1.12.8,2.23,1.61,3.32,2.44.21.16.42.32.63.48.06.05,1.09.84.38.29.63.49,1.25.98,1.87,1.47,8.75,6.98,16.84,14.8,24.62,22.83,3.75,3.87,7.58,7.69,11.18,11.7,1.33,1.48,3.85,1.35,5.21,0,1.47-1.47,1.33-3.72,0-5.21-3.88-4.31-7.6-8.76-11.57-13s-7.93-8.31-12.08-12.29-8.39-7.75-12.81-11.36c-.56-.46-1.12-.91-1.69-1.36-.26-.2-.51-.41-.77-.61l-.88-.68c.36.28.35.26-.05-.04-1.32-1.04-2.66-2.05-4.02-3.04-2.3-1.68-4.64-3.32-7.05-4.84-9.37-5.94-19.6-10.74-30.47-13.16-5.65-1.26-11.47-1.95-17.25-1.95s-12.2.72-17.81,2.95-11,5.96-14.25,11.41c-3.01,5.05-4.23,11.28-2.84,17.03,1.2,4.99,4.72,9.57,9.45,11.66,4.47,1.97,9.38,2.14,14.08.87s8.9-3.78,12.21-7.17c3.92-4.02,5.96-8.91,6.64-14.43,1.57-12.8-5.42-25.02-13.35-34.48-14.47-17.26-34.19-29.53-55.02-37.64-20.97-8.17-43.47-12.11-65.86-13.48-26.6-1.62-53.26.77-79.72,3.32-28.08,2.71-56.24,5.75-84.5,4.97-5.52-.15-11.03-.47-16.53-.97-2.64-.24-5.28-.53-7.91-.86-.38-.05-.75-.1-1.13-.14-.19-.02-1.46-.2-.27-.04-.63-.09-1.25-.17-1.88-.26-1.38-.2-2.75-.41-4.13-.64-5.37-.88-10.72-1.94-16.04-3.08s-10.7-2.84-16.03-4.31c-2.53-.7-5.03-1.46-7.49-2.38s-5.05-1.97-7.06-2.85c-4.86-2.12-9.59-4.56-14.17-7.24s-9.12-5.77-13.4-9.01c-.19-.15-.39-.3-.58-.44.52.39-.44-.34-.43-.33-.48-.38-.96-.76-1.43-1.14-1.29-1.05-1.82-1.45-3.13-2.55-2.07-1.73-4.04-3.56-5.93-5.47-3.53-3.56-7.08-7.67-9.83-11.37-1.11-1.49-2.97-2.24-4.7-1.23-1.46.86-2.35,3.2-1.23,4.7h0Z"/>
    <path class="cls-7" d="M909.04,907.82c-.79,4.56-1.93,9.06-3.41,13.44-.36,1.07-.73,2.13-1.14,3.18-.19.5-.39.99-.6,1.49-.43,1.06.18-.4-.1.23-.14.33-.28.65-.43.97-.46,1.03-.94,2.03-1.5,3.01-.26.46-.53.92-.8,1.38-.15.25-.3.51-.46.76-.09.15-.18.3-.28.45-.17.26-.11.21.18-.16,0-.01-.67.89-.85,1.21s-.34.63-.51.93c-.23.41-.47.83-.7,1.24-.62,1.08-1.27,2.14-1.93,3.2-1.23,1.96-2.55,3.87-3.89,5.76-.62.87-1.25,1.74-1.89,2.59-.02.02-.73.95-.29.38s-.28.35-.3.38c-.37.47-.74.93-1.12,1.39-1.5,1.84-3.07,3.63-4.7,5.36-3.18,3.38-6.58,6.54-10.18,9.46-.37.3-.74.6-1.11.89-.15.12-1.12.85-.19.15-.19.14-.38.29-.57.43-.95.72-1.91,1.41-2.88,2.09-1.9,1.33-3.84,2.59-5.82,3.78-3.91,2.36-7.98,4.43-12.17,6.23,1.14-.49-.57.23-.86.34-.55.22-1.1.43-1.66.64-1.11.42-2.22.82-3.35,1.19-2.13.71-4.3,1.35-6.48,1.91-2.3.59-4.62,1.08-6.96,1.48-.47.08-.94.16-1.41.23-.35.05-.71.1-1.06.16-.62.09-.1.21.17-.02-.27.23-1.46.18-1.79.21-.6.06-1.2.12-1.79.17-4.66.41-9.35.44-14.02.12-1.08-.07-2.15-.16-3.22-.27-.6-.06-1.19-.13-1.79-.2-.23-.03-.48-.05-.71-.09,1.25.23-.1-.02-.36-.05-2.31-.34-4.62-.76-6.9-1.27-4.57-1.01-9.07-2.35-13.46-3.99-1.01-.38-2.02-.77-3.02-1.18-.03-.01-1.13-.47-.44-.18s-.41-.18-.44-.19c-.55-.24-1.1-.48-1.65-.73-2.19-1-4.34-2.07-6.46-3.22-4.07-2.21-7.99-4.7-11.72-7.44-.44-.32-.87-.65-1.3-.97-.94-.71.52.42-.06-.04-.24-.19-.47-.37-.71-.56-.94-.75-1.87-1.51-2.78-2.29-1.73-1.48-3.42-3.02-5.04-4.62-1.71-1.68-3.36-3.42-4.94-5.22-.71-.81-1.41-1.63-2.09-2.47-.38-.46-.75-.93-1.13-1.4-.13-.17-.54-.7.07.09-.22-.29-.44-.57-.65-.86-2.81-3.74-5.33-7.7-7.53-11.83-.55-1.03-1.08-2.07-1.58-3.12-.27-.56-.52-1.12-.77-1.68-.54-1.21.18.53-.09-.23-.14-.39-.31-.77-.45-1.17-.46-1.24-.87-2.49-1.2-3.77-.16-.6-.3-1.2-.42-1.81-.07-.33-.12-.67-.19-1.01-.25-1.31.07.95-.05-.37-.11-1.19-.17-2.39-.1-3.59.02-.39.06-.78.1-1.17-.02.18-.18.95.01.08.15-.7.31-1.4.53-2.08.1-.31.21-.62.33-.92-.07.18-.4.79.02.03.29-.53.57-1.06.9-1.57.04-.06.33-.5.34-.49.05.03-.73.83-.08.13.37-.4.72-.79,1.11-1.16.14-.13.29-.25.43-.38.71-.66-.69.42-.15.11.37-.21.71-.49,1.08-.71.42-.25.85-.45,1.27-.68.71-.37-.22.13-.32.12.2.02.6-.23.82-.31.94-.32,1.89-.53,2.85-.72.56-.11.15.2-.35.04.11.03.46-.05.6-.06.6-.05,1.21-.08,1.81-.08.46,0,.92.01,1.37.04.2.01,1.2.25,1.38.13-.35.23-.99-.18-.17,0,.25.05.51.09.76.15.51.11,1.01.23,1.5.37s.99.3,1.48.47c.19.07.39.15.58.22.98.35-.7-.37-.11-.05.91.5,1.85.9,2.73,1.46.39.25.77.52,1.15.78.84.58-.54-.54-.09-.07.17.18.4.33.58.5.86.77,1.63,1.62,2.36,2.51.56.67.07.1-.03-.04.22.31.45.61.66.93.28.42.55.84.81,1.27.32.54.63,1.09.92,1.65.12.22.23.45.34.68.06.12.64,1.4.39.82-.29-.66.19.49.19.5.09.24.18.47.26.71.21.6.41,1.2.59,1.81.37,1.23.67,2.48.91,3.74.11.57.21,1.14.3,1.72.04.26.14,1.15.02.11.03.26.06.52.09.78.14,1.3.23,2.6.28,3.91.09,2.6,0,5.21-.21,7.81-.09,1.09-.21,2.17-.34,3.25,0,.06-.17,1.22-.06.44s-.06.38-.07.44c-.09.59-.18,1.17-.28,1.76-.77,4.55-1.91,9.03-3.37,13.41-.36,1.07-.73,2.12-1.12,3.17-.19.5-.38.99-.57,1.49-.11.27-.22.55-.33.82-.05.13-.5,1.23-.24.59.28-.69-.17.38-.18.42-.09.22-.19.43-.28.65-.24.54-.48,1.08-.73,1.62-.5,1.07-1.02,2.14-1.55,3.19-2.1,4.12-4.49,8.08-7.14,11.87-.61.87-1.24,1.74-1.88,2.59-.18.24-.36.47-.54.71-.44.59.69-.87-.03.04-.37.47-.74.93-1.11,1.39-1.5,1.84-3.06,3.63-4.68,5.37-3.12,3.34-6.46,6.47-10,9.35-.41.34-.83.67-1.25,1-.03.02-.95.74-.37.29s-.35.26-.38.28c-.95.71-1.9,1.41-2.87,2.09-1.89,1.32-3.83,2.58-5.81,3.77s-4,2.3-6.06,3.34c-.95.48-1.91.94-2.87,1.39-.54.25-1.07.49-1.62.73-.22.1-.43.19-.65.28-.98.43.71-.29-.2.08-4.29,1.73-8.66,3.19-13.15,4.27-2.31.55-4.65,1.01-7,1.37-.47.07-.94.15-1.41.2,1.31-.15-.57.06-.89.1-1.18.13-2.36.24-3.55.32-4.61.33-9.25.29-13.86-.08-1.06-.09-2.13-.19-3.19-.31-.29-.03-.59-.07-.88-.11-.95-.12-.05-.15,0,0-.04-.12-1.59-.23-1.76-.26-2.35-.37-4.68-.82-6.99-1.36-4.52-1.05-8.96-2.42-13.28-4.09-.44-.17-.89-.35-1.33-.52-.33-.13-.66-.27-.99-.4-.2-.08-.82-.35.12.05-1.09-.47-2.18-.95-3.26-1.46-2.1-.98-4.17-2.04-6.2-3.17-4.06-2.25-7.96-4.78-11.67-7.56-.24-.18-.47-.36-.71-.54.12.09.76.6.1.07-.47-.37-.93-.74-1.39-1.11-.92-.75-1.83-1.51-2.72-2.3-1.7-1.48-3.34-3.03-4.93-4.63-3.25-3.27-6.33-6.73-9.25-10.29-.19-.23-.37-.46-.56-.68-.13-.16-.65-.77-.12-.11-.3-.37-.58-.76-.86-1.13.5.65.01.01-.11-.15-.68-.9-1.34-1.83-1.99-2.75-1.29-1.82-2.65-3.72-3.67-5.7-.87-1.68-3.23-2.18-4.8-1.26-1.71,1-2.13,3.11-1.26,4.8-.37-.71.35.78.44.98.1.22.2.43.3.65.25.54.51,1.08.77,1.62.55,1.12,1.13,2.23,1.73,3.33,1.17,2.13,2.42,4.21,3.76,6.23.33.49.66.98.99,1.47.13.19.27.39.4.58.18.26,1.32,1.75.77,1.03l-.14-.17c.31.4.62.8.93,1.2.15.19.29.38.44.56.44.56.89,1.12,1.34,1.67,1.51,1.83,3.14,3.56,4.83,5.23,7.02,6.96,15.11,12.93,23.81,17.61,17.39,9.37,37.6,14.08,57.34,12.2s38.94-10.45,54.29-23.56,26.38-30.03,31.98-48.95c2.87-9.71,4.51-20.32,3.42-30.44-1.15-10.64-5.53-22.04-15.54-27.29-8.51-4.47-19.71-4.57-27.18,2.02-9.65,8.51-6.3,22.77-1.4,32.81,8.78,17.96,23.63,32.83,40.96,42.64,17.36,9.84,37.7,14.99,57.67,13.5,20.25-1.51,39.26-9.63,55.03-22.29,7.73-6.21,14.49-13.54,20.22-21.63,1.37-1.94,2.62-3.95,3.83-6,1.31-2.23,2.74-4.57,3.65-7,.41-1.09.83-2.18,1.24-3.28.08-.22.16-.44.24-.66.03-.08.41-1.18.11-.38.29-.76.63-1.5.93-2.25.94-2.3,1.8-4.64,2.58-6.99,1.46-4.4,2.57-8.9,3.33-13.47.32-1.94-.51-4.15-2.63-4.64-1.83-.42-4.28.56-4.64,2.63h0Z"/>
    <path class="cls-7" d="M477.56,174.45c-2-6.71-4.31-13.35-6.96-19.83-.38-.92-.76-1.83-1.14-2.74-.1-.24-.2-.48-.3-.72,0-.02-.25-.61-.1-.24.24.58-.42-.99-.35-.84-.1-.24-.22-.47-.32-.71-.72-1.6-1.43-3.21-2.19-4.8-1.5-3.18-3.15-6.27-4.88-9.32-7-12.35-15.37-23.94-24.82-34.53-4.67-5.23-9.39-10.45-14.6-15.16s-10.99-9.37-16.83-13.6c-12.27-8.88-25.65-16.08-39.67-21.79s-29.18-9.89-44.39-12.17-31.05-2.96-46.6-1.59-30.67,4.28-45.03,9.86-27.76,13.58-37.95,25.1-16.72,25.2-18.29,40.22c-1.44,13.8,2.25,29.77,13.14,39.16,5.35,4.61,12.1,7.4,19.24,7.14,6.59-.24,13.07-2.7,18.3-6.68,5.63-4.29,9.97-9.84,12.41-16.51s2.52-14.61.96-21.71c-3.12-14.18-12.68-26.46-24.76-34.24-11.07-7.13-24.49-10.6-37.61-10.36s-26.41,4.22-37.04,12.11c-12.4,9.2-21.19,22.14-28.11,35.77-6.66,13.11-11.81,27.01-15.21,41.31-3.41,14.35-5.15,29.19-5.34,43.93-.09,7.2.22,14.39.89,21.56.17,1.81.38,3.62.61,5.42.05.4.1.8.16,1.2.07.5.13,1,.2,1.49,0,.03.1.68.04.25-.1-.68.15,1.1.13.94.03.2.05.4.08.6.08.53.16,1.06.25,1.59.57,3.58,1.24,7.14,1.98,10.69,2.99,14.31,7.75,28.53,13.79,41.5,2.96,6.35,6.41,12.39,9.99,18.4,2,3.37,7.28.31,5.27-3.08-3.58-6.02-6.64-12.55-9.33-18.79s-5.01-12.72-7.01-19.19-3.72-13.48-5.05-20.33c-.33-1.72-.62-3.44-.93-5.16.04.22.09.78-.05-.27-.04-.31-.09-.62-.13-.93-.06-.4-.12-.8-.18-1.2s-.11-.8-.17-1.2c-.12-.83-.04-.31-.02-.13-.04-.27-.07-.53-.1-.8-.45-3.46-.83-6.93-1.13-10.41-1.18-13.94-.97-28,.8-41.88.04-.29.16-1.2.05-.42.05-.4.11-.8.17-1.2.13-.93.27-1.86.42-2.79.27-1.72.56-3.45.88-5.16.63-3.43,1.36-6.85,2.16-10.25,1.59-6.73,3.54-13.38,5.83-19.9,1.15-3.3,2.4-6.56,3.74-9.78.05-.12.38-.91.15-.37-.21.49.05-.13.08-.19.16-.37.32-.74.48-1.11.35-.8.7-1.6,1.06-2.4.72-1.59,1.46-3.18,2.23-4.75,3.13-6.42,6.6-12.7,10.64-18.6.51-.74,1.02-1.48,1.55-2.2.24-.34.49-.67.74-1,.12-.17.25-.33.37-.5.05-.06.56-.73.27-.36s.12-.15.15-.19c.17-.22.34-.43.51-.65.26-.32.52-.64.78-.96.57-.69,1.15-1.37,1.74-2.04,2.36-2.67,4.91-5.19,7.65-7.48.37-.31.74-.61,1.12-.91.65-.52-.28.2.39-.3.63-.47,1.26-.93,1.91-1.38,1.26-.86,2.56-1.67,3.89-2.42s2.68-1.45,4.06-2.09c.32-.15.64-.29.96-.43.14-.06.83-.36.27-.12-.53.23.02,0,.11-.04.71-.28,1.41-.56,2.13-.82,2.86-1.04,5.81-1.87,8.79-2.48.75-.15,1.5-.29,2.25-.42.35-.06.7-.11,1.04-.16.17-.03.35-.05.52-.08.66-.1-.82.09-.15.02,1.52-.16,3.04-.32,4.57-.4,3.06-.16,6.13-.1,9.18.17.75.07,1.55.09,2.28.25-.79-.17-.25-.04.2.03.41.06.81.12,1.22.19,1.51.25,3.01.56,4.49.92,2.97.72,5.88,1.65,8.72,2.78.16.07.33.13.49.2-.03-.01-.75-.32-.27-.12.38.16.75.33,1.13.5.69.31,1.38.64,2.06.98,1.36.68,2.7,1.41,4,2.2s2.58,1.62,3.82,2.51c.29.2.57.41.85.62.14.11.28.21.42.32-.03-.02-.63-.5-.23-.17.64.52,1.28,1.03,1.9,1.57,2.5,2.15,4.79,4.53,6.84,7.1.12.15.25.31.37.46-.04-.06-.42-.57-.12-.14.23.32.47.63.7.96.54.75,1.05,1.51,1.55,2.29.92,1.44,1.77,2.93,2.54,4.45.35.7.69,1.41,1.01,2.13.08.18.16.36.24.54-.36-.82-.08-.18-.01-.01.16.43.33.85.49,1.28.58,1.58,1.08,3.2,1.47,4.83.18.75.33,1.51.47,2.27.08.44.14.89.22,1.33-.15-.94,0,.12.04.49.16,1.65.23,3.32.18,4.98-.02.77-.07,1.53-.14,2.3-.03.27-.23,1.58-.04.48-.08.44-.14.89-.23,1.33-.29,1.55-.69,3.08-1.22,4.56-.11.32-.24.63-.36.95-.18.5.12-.32.14-.33-.06.02-.18.4-.21.46-.33.72-.69,1.43-1.08,2.12-.33.59-.69,1.18-1.06,1.75-.19.29-.38.57-.57.85-.13.19-.26.37-.4.55-.07.1-.55.69-.15.21s-.28.33-.39.46c-.22.26-.44.52-.67.77-.53.59-1.09,1.17-1.66,1.72-.49.47-1,.93-1.52,1.37-.26.22-.53.43-.79.65-.5.41.67-.48.13-.11-.19.13-.37.27-.55.4-1.19.85-2.45,1.61-3.75,2.28-.3.15-.6.3-.9.45-.15.07-1.11.52-.51.24s-.36.14-.53.2c-.41.16-.83.3-1.25.44-1.37.45-2.76.67-4.17.99-.54.12.45-.07.43-.06-.08.06-.39.04-.49.05-.33.03-.65.06-.98.08-.76.04-1.53.05-2.29.02-.33-.01-.65-.03-.98-.06-.19-.02-1.22-.18-.52-.04s-.34-.07-.52-.1c-.43-.08-.87-.18-1.29-.29-.65-.17-1.29-.36-1.92-.59-.16-.06-1.14-.44-.59-.22s-.02-.01-.11-.05c-.27-.13-.54-.26-.81-.39-.64-.32-1.27-.68-1.88-1.06-.3-.19-.6-.39-.9-.59-.15-.1-.29-.2-.44-.31-.11-.08-.9-.71-.39-.28.45.37-.37-.32-.5-.43-.27-.23-.54-.47-.8-.72-.61-.57-1.2-1.17-1.76-1.8-.24-.27-.48-.54-.71-.82-.11-.13-.77-.97-.43-.52s-.29-.41-.39-.55c-.28-.4-.55-.8-.82-1.21-.86-1.34-1.64-2.74-2.32-4.18-.16-.33-.3-.68-.46-1.01-.23-.48.09.22.11.26-.07-.17-.14-.34-.21-.52-.3-.75-.57-1.5-.82-2.27-.5-1.52-.92-3.08-1.25-4.65-.16-.78-.31-1.57-.43-2.36-.03-.19-.06-.39-.09-.59,0,.05.09.81.04.26-.05-.46-.1-.91-.15-1.37-.16-1.69-.23-3.39-.23-5.08s.09-3.38.26-5.06c.04-.45.1-.9.15-1.36.05-.55-.03.22-.04.27.03-.19.06-.39.08-.58.13-.84.27-1.67.43-2.5.65-3.34,1.59-6.62,2.78-9.8.16-.43.33-.86.5-1.29.07-.18.15-.37.22-.55.03-.07.28-.68.07-.17s.05-.1.08-.17c.08-.18.16-.36.24-.54.19-.42.38-.84.58-1.26.73-1.55,1.52-3.08,2.37-4.58s1.75-2.97,2.7-4.4c.48-.72.97-1.43,1.47-2.13.23-.32.47-.65.7-.96.17-.23.89-1.17.36-.48,2.12-2.71,4.42-5.28,6.9-7.68,1.26-1.22,2.57-2.4,3.92-3.53.69-.58,1.39-1.15,2.1-1.71.16-.13.33-.26.49-.39-.06.05-.54.41-.12.09.39-.29.78-.58,1.17-.87,2.91-2.13,5.95-4.08,9.08-5.86s6.39-3.39,9.7-4.84c.38-.17.77-.33,1.15-.5-.81.34.38-.16.63-.25.84-.34,1.69-.67,2.53-1,1.7-.65,3.41-1.26,5.14-1.83,6.91-2.3,14-4.03,21.16-5.33,1.82-.33,3.64-.63,5.47-.9.42-.06.85-.13,1.27-.19.21-.03.42-.06.63-.09.13-.02,1.02-.14.44-.06-.45.06.67-.08.86-.11.49-.06.99-.12,1.48-.18,3.68-.43,7.37-.75,11.06-.96,7.39-.42,14.81-.41,22.2.02,3.7.22,7.39.54,11.06.97.85.1,1.7.21,2.54.31.17.02.92.13.03,0,.21.03.42.06.63.09.49.07.99.14,1.48.21,1.83.27,3.66.57,5.48.89,7.29,1.29,14.51,3,21.61,5.11,3.55,1.06,7.07,2.22,10.55,3.47,1.74.63,3.47,1.28,5.19,1.96.79.31,1.59.63,2.38.96.4.16.79.33,1.18.49-.76-.31-.07-.03.07.03.26.11.52.22.78.34,6.8,2.93,13.42,6.26,19.83,9.98,5.95,3.45,11.71,7.25,17.25,11.33.63.46,1.25.93,1.87,1.4.31.23.62.47.93.71.06.04.57.44.15.11-.48-.37.36.28.45.36,1.33,1.04,2.65,2.1,3.95,3.18,2.61,2.15,5.1,4.43,7.64,6.66,5.03,4.41,9.85,9.09,14.27,14.11,2.23,2.54,4.4,5.13,6.5,7.78.28.36.56.71.84,1.07.48.61-.18-.23.3.38.51.67,1.02,1.34,1.53,2.02,1.01,1.35,2,2.72,2.98,4.1,7.78,11.01,14.46,22.88,20.02,35.16,1.42,3.14,2.28,5.18,3.54,8.43s2.25,6.24,3.24,9.4c.58,1.86,2.51,3.05,4.43,2.52s3.08-2.56,2.52-4.43h0Z"/>
    <circle class="cls-3" cx="338.64" cy="287.69" r="24"/>
    <circle class="cls-3" cx="416.44" cy="287.69" r="24"/>
    <circle class="cls-3" cx="494.25" cy="287.69" r="24"/>
    <g>
      <path class="cls-3" d="M657.1,644.89h-129.41c-33.26,0-60.87,24.11-66.35,55.8-8.47,8.75-25.27,22.27-42.36,14.03,15.53,28.31,38.51,41.19,54.48,37.47,12.27,16.63,31.99,27.42,54.23,27.42h129.41c37.2,0,67.36-30.16,67.36-67.36h0c0-37.2-30.16-67.36-67.36-67.36Z"/>
      <circle class="cls-5" cx="525.54" cy="713.56" r="20.59"/>
      <circle class="cls-5" cx="592.31" cy="713.56" r="20.59"/>
      <circle class="cls-5" cx="659.08" cy="713.56" r="20.59"/>
    </g>
    <path class="cls-3" d="M55.05,901.42c3.01-3.61,6.11-7.14,9.2-10.7s6.38-6.78,9.61-10.15,6.52-6.59,9.98-9.67c1.74-1.55,3.51-3.06,5.33-4.51.26-.21.52-.41.78-.62.14-.11.7-.53,0,0,.42-.32.84-.64,1.27-.96.95-.71,1.92-1.4,2.9-2.08,3.73-2.58,7.65-4.9,11.75-6.86,1.01-.49,2.03-.95,3.07-1.39-.88.38.43-.17.72-.29.62-.24,1.24-.48,1.86-.71,2.35-.86,4.74-1.59,7.16-2.21s5.09-1.18,7.66-1.6c.66-.11,1.33-.21,1.99-.31.3-.04.59-.09.89-.13-.2.03-.85.11.1,0,1.34-.16,2.68-.31,4.02-.44,5.25-.49,10.53-.68,15.8-.78,10.46-.19,20.94,0,31.37-.96,5.51-.5,10.9-1.45,16.32-2.52.57-.11,1.14-.22,1.72-.3-.95.13.7-.02.91-.03.26,0,1.84.12.87-.04.27.05.55.1.82.17s1.15.49.47.12c.49.27.98.55,1.42.89-.64-.49-.06-.03.04.07.25.25.52.48.78.72.9.87,1.78,1.76,2.68,2.63,14,13.49,30.77,24.57,48.95,31.55,8.87,3.41,18.19,6,27.56,7.54s19.35,2.79,27.72-1.61c1.9-1,3.73-2.49,5.28-3.96,1.02-.97.98-2.71,0-3.69-1.1-1.1-2.58-.87-3.69,0-3.06,2.4-7.64,3.34-11.05,3.6-2.17.17-4.37.14-6.54-.04-2.04-.17-3.77-.46-6.1-.92-9.32-1.87-18.56-4.55-27.34-8.2.75.31-.58-.25-.83-.36-.5-.22-1-.43-1.51-.65-1.13-.49-2.26-.99-3.37-1.51-2.18-1.01-4.37-2.01-6.52-3.08-4.24-2.11-8.39-4.42-12.41-6.92s-8.04-5.27-11.86-8.19c-.71-.54-.18-.14-.04-.03-.22-.17-.43-.34-.65-.51-.43-.34-.86-.68-1.29-1.03-.96-.77-1.92-1.56-2.86-2.36-1.89-1.6-3.73-3.24-5.53-4.94s-3.32-3.39-5.12-4.91c-2.53-2.13-5.28-3.4-8.61-3.64-2.85-.2-5.72.49-8.5,1.07-1.18.25-2.36.48-3.55.68-.59.1-1.19.2-1.78.29-.3.05-.6.09-.89.13-.05,0-1.5.2-.55.08-10.45,1.35-21.01,1.32-31.54,1.43-10.72.12-21.47.44-32.03,2.41-9.71,1.81-19.02,5.36-27.49,10.44-8.11,4.86-15.56,10.97-22.26,17.63-3.31,3.3-6.42,6.74-9.4,10.34-3.15,3.81-6.42,7.54-9.41,11.49-.16.21-.32.43-.48.64.11-.14.39-.49-.12.13-.34.42-.68.84-1.01,1.26-.76.94-1.51,1.88-2.27,2.82-1.3,1.62-1.7,4.05,0,5.61,1.47,1.35,4.19,1.7,5.61,0h0Z"/>
    <path class="cls-3" d="M332.52,875.67c7.8-4.03,14.9-9.84,19.69-17.23l-5.23,2.13c15.18,4.04,30.42,7.83,45.64,11.73,6.94,1.78,13.91,3.48,20.77,5.56,3.38,1.03,6.73,2.15,10.02,3.45.41.16.82.33,1.22.49,1.34.54-.82-.37.51.21.67.29,1.34.59,2.01.89,1.73.8,3.43,1.65,5.09,2.58,2.94,1.63,5.76,3.49,8.44,5.52-.75-.57.39.31.44.35.34.27.68.55,1.02.83.62.51,1.23,1.03,1.84,1.55,1.38,1.2,2.72,2.43,4.04,3.7,4.99,4.81,9.57,10.03,14.15,15.22,6.69,7.59,13.33,15.21,19.91,22.9,2.85,3.33,5.7,6.65,8.57,9.96,1.87,2.16,3.74,4.31,5.62,6.46,2.58,2.96,5.06,5.9,8.16,8.33,1.6,1.26,3.58,1.64,5.3.32,1.56-1.21,2.08-3.47,1.04-5.21-3.33-5.57-8.11-10.26-12.35-15.15-2.71-3.12-5.41-6.26-8.1-9.4-6.08-7.09-12.19-14.16-18.35-21.17-9.43-10.73-18.77-21.9-30.86-29.76s-26.22-11.53-39.99-15.06c-17.21-4.42-34.4-8.96-51.65-13.23-2.05-.51-4.12.35-5.23,2.13s-2.26,3.35-3.44,4.98c.77-1.07-1.1,1.38-.29.38-.49.6-.98,1.21-1.46,1.82.5-.64-.22.27-.33.4-.35.42-.72.81-1.1,1.19-1.34,1.33-2.7,2.62-4.17,3.8-.36.28-.42.33-.19.15-.22.16-.43.32-.65.48-.33.24-.67.46-1,.69-.9.6-1.82,1.16-2.76,1.7-1.71.98-2.31,3.31-1.31,5.01,1.04,1.78,3.25,2.23,5.01,1.31h0Z"/>
    <path class="cls-3" d="M326.66,621.98c3.3,1.33,6.8,2.07,10.35,2.29s7.53.14,9.96-2.65,2.41-6.52,1.05-9.63c-1.09-2.47-2.27-5-3.91-7.16-6.36-8.36-14.92-15.16-24.25-19.93-5.44-2.78-11.28-5-17.34-5.9-5.5-.82-11.1-1.23-16.65-1.43-9.67-.34-19.83.24-28.95,3.74-5.16,1.98-10.1,4.72-14.11,8.57-2.01,1.94-3.93,4.14-5.42,6.49-.36.56-.71,1.13-1.03,1.72-.17.3-.32.6-.46.91-.17.37-.83,1.9-.43.95-.69,1.61-1.29,3.25-1.88,4.89s.51,3.44,1.98,4.03c1.6.64,3.34.07,4.26-1.4.32-.51.66-1.02,1-1.52.66-.94-.24.29.17-.23.18-.22.36-.44.53-.67.28-.35.55-.73.84-1.07-.59.7.15-.14.23-.23.35-.43.69-.87,1.05-1.3,1.36-1.66,2.76-3.3,4.31-4.78.75-.72,1.53-1.39,2.32-2.06.33-.28.79-.83,1.18-.97-.07.02-.89.66-.22.18.25-.18.49-.36.74-.53,1.68-1.18,3.47-2.22,5.32-3.11.41-.2.82-.38,1.23-.57.97-.45-1,.39,0,0,.19-.07.37-.15.56-.22,1-.39,2-.74,3.02-1.06,1.99-.62,4.01-1.1,6.06-1.48.47-.09.94-.17,1.41-.25.34-.06,2.04-.43.68-.11,1.09-.25,2.3-.27,3.42-.37,2.24-.19,4.5-.28,6.75-.3,4.76-.05,9.52.22,14.26.64,1.17.1,2.34.22,3.51.34.63.07,1.26.13,1.88.2,1.28.14-.64-.12.14.02.46.08.92.15,1.38.23,2.62.49,5.2,1.21,7.71,2.11.57.2,1.13.42,1.69.64.31.12.62.25.93.38-.83-.34-.17-.07,0,0,1.33.61,2.66,1.22,3.96,1.9,2.31,1.21,4.56,2.55,6.73,3.99.95.63,1.88,1.28,2.8,1.95.5.36,1,.72,1.5,1.09.24.18.49.36.73.55.94.71-.35-.29.35.27,1.75,1.41,3.49,2.83,5.15,4.34,1.53,1.4,3.02,2.87,4.39,4.44.22.25.43.5.63.75-.45-.57.22.32.3.44.44.63.86,1.28,1.27,1.93s.79,1.25,1.19,1.88c.16.25.32.51.48.76.09.14.16.28.23.42-.16-.4-.17-.39-.03.02.04.22.11.42.14.64-.12-.86-.11.46.01-.32l-.07.31c-.13.4-.12.4.02.02l-.16.27c.25-.31.24-.31-.04-.01-.14-.1.24-.14.25-.14-.28.13-1.04.27-1.14.28-.47.06-1.51.07-2.2.06-3.42-.01-6.67-.73-9.88-1.99-1.76-.69-3.84.76-4.31,2.44-.55,2,.68,3.6,2.44,4.31h0Z"/>
    <path class="cls-3" d="M254.54,582.94c-4.9-1.01-9.95-1.46-14.95-1.2-4.7.24-9.43,1.45-13.81,3.13-8.98,3.43-16.89,8.87-23.94,15.35-6.45,5.93-11.99,12.78-16.86,20.05-3.53,5.28-6.87,10.7-9.75,16.37-4.23,8.35-7.16,17.71-8.68,26.94-1.83,11.12-1.91,22.41.22,33.49,3.3,17.17,12.08,34.56,26.76,44.68,5.62,3.87,12.51,6.55,19.42,6.24,7.27-.33,14.84-3.69,18.96-9.89.44-.66-.55.65-.03.02.15-.18.29-.36.44-.54.38-.48.76-.97,1.13-1.46.58-.78,1.12-1.58,1.64-2.4.88-1.4.43-3.36-.86-4.32-1.22-.91-3.34-1.06-4.39.26-.56.7-1.14,1.37-1.74,2.03-.29.31-.59.62-.9.93-.13.13-.29.26-.41.4-.41.48.67-.44-.13.13-1.27.9-2.53,1.84-3.86,2.64-.64.39-1.3.74-1.96,1.08-.3.15-.59.3-.89.44-.17.08-.38.14-.54.24,1.1-.72.6-.24.15-.07-1.31.5-2.67.89-4.04,1.14-.45.08-1.58.12.08.01-.37.02-.75.09-1.12.11-.69.05-1.38.07-2.08.06s-1.4-.07-2.09-.14c-1.13-.11,1.27.21,0,0-.42-.07-.83-.13-1.24-.21-1.43-.28-2.84-.68-4.21-1.18-.35-.13-.7-.27-1.05-.41-.54-.21,1.19.53.45.19-.19-.09-.38-.17-.57-.25-.74-.34-1.46-.7-2.17-1.09-1.45-.79-2.84-1.69-4.17-2.66-.18-.13-.36-.27-.55-.4-.36-.26-.13-.36.4.31-.26-.33-.75-.6-1.08-.87-.66-.55-1.31-1.12-1.95-1.71-1.38-1.28-2.68-2.63-3.91-4.04-.55-.64-1.09-1.29-1.62-1.95-.19-.24-.72-1.01.09.13-.15-.21-.31-.41-.47-.62-.31-.42-.62-.84-.92-1.27-2.38-3.37-4.44-6.97-6.17-10.71-.2-.44-.4-.87-.59-1.31-.11-.25-.2-.57-.35-.8.65,1.03.16.38.02.03-.41-1-.8-2.02-1.17-3.04-.79-2.19-1.48-4.42-2.08-6.68s-1.09-4.5-1.49-6.77c-.09-.53-.18-1.06-.27-1.59-.05-.32-.1-.64-.15-.96-.04-.26-.19-1.39-.01-.06l-.17-1.23c.08.64.1.78.06.42-.03-.27-.07-.54-.1-.82-.08-.66-.15-1.32-.21-1.98-.5-5.15-.54-10.35-.15-15.51.1-1.32.23-2.64.38-3.95.04-.36.09-.73.13-1.09-.02.16-.13.94-.01.09s.25-1.71.4-2.57c.46-2.76.99-5.51,1.64-8.23s1.52-5.63,2.46-8.38c.49-1.42,1-2.84,1.55-4.24.07-.18.14-.35.21-.53.39-.98-.41.92-.08.18,2.21-4.94,4.91-9.59,7.89-14.1,1.03-1.55,2.1-3.06,3.22-4.55.25-.34.51-.67.77-1.01.56-.73-.6.77-.03.04.13-.17.26-.34.4-.51.62-.79,1.25-1.57,1.88-2.34,2.62-3.18,5.35-6.29,8.24-9.22s6.16-6.02,9.54-8.69c-.02.02.46-.33.46-.36.02.18-.81.62,0,0,.38-.29.77-.58,1.16-.86.94-.68,1.89-1.34,2.85-1.98,1.77-1.17,3.59-2.25,5.45-3.27.93-.51,1.87-1,2.82-1.46.52-.25,1.04-.49,1.57-.73.18-.08.35-.15.53-.23.73-.33-.93.38.26-.11,1.96-.8,3.97-1.48,6.02-2.03,1.03-.28,2.06-.53,3.1-.75.47-.1.95-.19,1.43-.28.07-.01.84-.19.86-.15-.95.12-.75.09.58-.08.19-.05.38-.08.57-.11.19-.03.39-.06.58-.09,1.01-.17-.98.11.05-.01.49-.06.99-.11,1.48-.16,1.2-.11,2.4-.16,3.61-.17,1.13,0,2.24.03,3.36.14.25.03,1.82.22.85.09.63.09,1.26.19,1.88.3,1.93.34,4.15-.52,4.64-2.63.43-1.88-.57-4.21-2.63-4.64h0Z"/>
    <path class="cls-3" d="M873.09,180.36c1.05-.65,2.13-1.24,3.24-1.76.22-.1.45-.2.67-.3-.8.36-.05.02.16-.06.63-.24,1.26-.47,1.9-.67,1.05-.33,2.12-.61,3.19-.83.6-.12,1.2-.23,1.81-.33.85-.14.06,0-.1.01.43-.05.85-.09,1.28-.13,2.39-.2,4.81-.17,7.19.06.31.03.61.07.92.1.75.08-1.13-.2.06.01.55.1,1.1.18,1.64.29,1.28.26,2.54.58,3.78.96,1.07.33,2.11.71,3.15,1.12,1.12.44-.59-.29.09.04.28.13.57.25.84.39.56.26,1.11.54,1.66.84,1.09.58,2.15,1.22,3.18,1.92.46.31.91.65,1.36.97.61.43-.83-.7.08.07.29.24.58.48.87.72,1.86,1.6,3.49,3.39,5.06,5.27.48.58-.64-.88.07.1.15.2.3.4.44.61.36.51.71,1.02,1.05,1.55.68,1.05,1.31,2.13,1.9,3.23.29.55.58,1.11.84,1.68.11.23.21.45.32.68,0,.01.51,1.14.22.48s.19.47.2.49c.09.23.18.47.27.7.27.71.52,1.42.75,2.14.73,2.28,1.29,4.62,1.67,6.98.03.2.19,1.47.05.26.03.25.06.5.09.75.07.63.13,1.26.17,1.89.09,1.26.12,2.52.11,3.78s-.08,2.39-.18,3.58c-.05.56-.11,1.13-.18,1.69.12-.89-.02.08-.06.3-.07.44-.14.87-.23,1.31-2.12,11.47-7.74,21.86-11.68,32.74-6.61,18.29-7.36,40.21,3.4,57.11.56.88,1.15,1.74,1.74,2.59,1.08,1.55,1.53,2.11,2.58,3.4,1.44,1.76,3.03,3.41,4.72,4.93,4.37,3.92,9.46,6.87,14.58,9.69,9.55,5.26,19.45,10.85,27.78,17.52,8.34,6.67,15.4,14.26,20.18,23.74,4.37,8.67,6.57,18.99,4.47,28.71-.49,2.28-1.18,4.57-2.11,6.71-.56,1.3-.39,2.82.94,3.6,1.16.68,2.97.34,3.6-.94,4.82-9.83,5.05-21.22,2.29-31.68s-8.76-20.34-16.54-28.22-17.66-14.61-27.48-20.39c-9.44-5.55-19.83-9.92-26.75-18.6.4.5.02.03-.05-.06-.21-.28-.41-.56-.61-.84-.3-.42-.59-.85-.88-1.29-.67-1.01-1.26-2.07-1.81-3.15-.26-.52-.52-1.04-.76-1.56-.1-.21-.19-.42-.29-.63-.05-.12-.49-1.2-.13-.3-.43-1.07-.83-2.16-1.18-3.26-.72-2.22-1.34-4.5-1.82-6.78-.25-1.16-.46-2.33-.63-3.5-.04-.23-.08-.47-.1-.71.2,1.89-.24-1.83-.14-1.07-.03-.25-.2-.87.02.17-.07-.35-.09-.72-.13-1.07-.53-4.85-.51-9.76,0-14.62.06-.54.12-1.08.19-1.62.15-1.23-.16,1.02.03-.2.04-.24.07-.48.11-.72.2-1.25.42-2.5.68-3.74.5-2.4,1.13-4.78,1.87-7.13,3.56-11.23,9.41-21.64,12.22-33.13,2.62-10.75,2.17-22.16-2.11-32.43-4.18-10.03-11.49-18.84-21.5-23.45-9.72-4.47-21.13-5.52-31.24-1.63-2.53.98-4.97,2.13-7.24,3.63-1.84,1.22-2.8,3.79-1.52,5.78,1.22,1.89,3.77,2.76,5.78,1.52h0Z"/>
    <path class="cls-3" d="M872.48,172.71c-14.54-21.24-38.97-34.88-64.7-36.02s-50.77,10.6-66.65,30.13c-4.44,5.46-8.05,11.41-11.24,17.66s-6.28,13.1-9.83,19.43-7.44,12.31-10.89,18.62c-3.62,6.63-6.57,13.59-8.43,20.92-1.87,7.37-2.83,14.95-3.73,22.49s-1.83,15.72-2.54,23.59-1.22,15.84-1.34,23.79c-.12,7.47.09,14.95.2,22.42.1,7.29.12,14.6-.38,21.88-.13,1.84-.28,3.69-.48,5.52-.09.84-.2,1.68-.3,2.52s.17-1.1-.05.36c-.09.61-.18,1.22-.28,1.82-.58,3.64-1.35,7.26-2.36,10.81-1.96,6.93-4.98,13.49-7.17,20.34-1.08,3.36-2.05,6.77-2.65,10.25-.35,2.06-.51,3.13-.62,5.3-.09,1.81-.13,3.66,0,5.47.25,3.6,1.02,6.85,2.44,10.16.53,1.22,2.29,1.6,3.39,1.11,1.29-.57,1.85-1.84,1.57-3.2-.64-3.19-.77-6.52-.46-9.75.23-2.45,1.22-5.99,2.18-9,2.11-6.69,5.03-13.12,7.47-19.69s4.29-13.28,5.34-20.23c1.13-7.44,1.61-14.94,1.71-22.46.2-14.69-.65-29.36.14-44.04.42-7.77,1.12-15.52,1.95-23.26.41-3.79.84-7.57,1.28-11.35.2-1.72.4-3.43.62-5.15.12-.93.23-1.86.36-2.79-.13.95.08-.58.09-.62.08-.54.16-1.08.24-1.63,1.07-7.16,2.56-14.3,5.17-21.06.16-.42.33-.83.5-1.25.54-1.36-.37.8.23-.54.3-.68.61-1.36.92-2.04.76-1.62,1.57-3.22,2.41-4.8,1.69-3.17,3.51-6.26,5.36-9.35,3.56-5.94,7.08-11.87,10.17-18.07s6.11-12.85,9.74-18.98c1.62-2.73,3.37-5.38,5.3-7.9-.67.87.12-.14.22-.26.24-.3.48-.6.73-.89.49-.59.99-1.17,1.49-1.75,1.01-1.15,2.06-2.27,3.14-3.36,2.07-2.09,4.26-4.05,6.55-5.89.3-.24.6-.48.9-.71-.87.68.15-.11.28-.2.51-.38,1.03-.76,1.55-1.13,1.25-.89,2.53-1.74,3.83-2.56,2.6-1.63,5.3-3.11,8.07-4.43.58-.28,1.16-.54,1.74-.81.35-.16.7-.31,1.05-.46,1.18-.52-.9.35.3-.12,1.43-.56,2.86-1.12,4.31-1.62,2.78-.95,5.61-1.75,8.48-2.38,1.37-.3,2.75-.57,4.14-.79.38-.06.76-.12,1.14-.18.19-.03,1.47-.18.28-.04.89-.11,1.78-.21,2.67-.29,2.93-.26,5.87-.35,8.81-.26,1.41.04,2.81.13,4.21.25.76.07,1.53.15,2.29.24.02,0,1.27.17.52.06-.67-.09.77.12.9.14,5.93.93,11.76,2.56,17.32,4.82.15.06,1.34.57.3.12.23.1.47.2.7.31.7.31,1.4.63,2.09.96,1.39.66,2.75,1.36,4.1,2.09,2.64,1.44,5.19,3.03,7.65,4.76.58.4,1.15.82,1.71,1.24.31.23.61.46.92.69-.87-.67.14.12.26.22,1.2.96,2.37,1.95,3.51,2.97,2.18,1.96,4.26,4.05,6.2,6.26.93,1.05,1.82,2.14,2.7,3.24.8,1-.55-.76.21.27.23.31.46.61.68.92.45.62.89,1.25,1.33,1.88,1.38,2.01,4.16,3.11,6.39,1.67,2-1.29,3.15-4.23,1.67-6.39h0Z"/>
    <path class="cls-3" d="M820.26,202.84c.06,16.4,13.1,27.51,25.39,36.25,2.49,1.77,5.52-2.19,3.27-4.23-5.08-4.62-10.54-9.16-14.57-14.71-.98-1.35-1.91-2.75-2.74-4.2-.42-.73-.81-1.47-1.18-2.22-.18-.38-.36-.76-.53-1.14-.04-.08-.47-1.04-.3-.64-1.32-3.08-1.96-6.1-2.01-9.1-.03-1.98-1.66-3.66-3.66-3.66s-3.67,1.68-3.66,3.66h0Z"/>
    <path class="cls-3" d="M858.06,240.29c-.04-.39-.07-.78-.07-1.18,0-.26.11-1.16-.02-.45.07-.39.15-.77.26-1.15.06-.19.13-.37.19-.56.16-.55-.29.4.04-.07.21-.31.42-.68.6-1.01.23-.41-.02.01-.08.09.13-.15.26-.3.39-.44s.28-.28.42-.42c-.12.12-.68.41.05-.02.4-.24.8-.45,1.21-.65.18-.08.36-.18.54-.25-.1.04-.65.19-.18.11.38-.07.76-.23,1.14-.31.19-.04.39-.07.58-.11-.08.02-.78.03-.25.05.45.02.92-.01,1.38,0,.88.02-.64-.19.21.02.35.09.7.17,1.04.28.4.13.9.46.26.08.36.22.75.39,1.11.61.14.09.98.66.6.38s.41.36.54.48c.27.25.53.51.78.78.18.19.86,1.04.39.4.49.65.9,1.34,1.27,2.06.1.2.19.39.29.59-.04-.09-.18-.45,0,0s.36.96.51,1.44c.26.84.48,1.69.66,2.55.09.43.17.86.25,1.3.04.22.07.44.1.65.11.73-.06-.52.03.21.23,1.92.34,3.85.48,5.78.17,2.4.31,4.79.37,7.2s-.19,5.26.52,7.57c.42,1.39,1.7,2.41,3.17,2.41,1.57,0,2.61-1.06,3.17-2.41.51-1.24.54-2.77.66-4.1.12-1.24.19-2.48.23-3.72.08-2.48.11-4.97.02-7.44-.17-4.69-.48-9.69-2.22-14.1s-4.28-8.02-8.26-10.31c-4.27-2.46-9.95-2.77-14.15.05-4.98,3.34-7.24,8.84-6.4,14.7.29,2.03,2.74,3.22,4.55,2.97s3.81-2.02,3.6-4.08h0Z"/>
    <path class="cls-3" d="M821.98,198.88c-3.07-7.07-10.9-10.56-18.29-10.02-4.05.3-7.92,1.48-11.31,3.74-3.8,2.53-6.77,5.91-9.28,9.7-2.25,3.4-4.1,7.02-5.78,10.74-2.06,4.57-4.02,9.21-5.66,13.95s-2.51,9.29-3.86,13.93c-.64,2.2-1.14,3.49-2.26,5.45s-2.39,3.76-3.69,5.56c-2.81,3.87-5.83,7.7-7.74,12.12-2.18,5.04-2.59,10.37-.41,15.47.51,1.19,2.22,1.55,3.3,1.08,1.18-.52,1.89-1.82,1.53-3.11-1-3.51.07-7.07,1.56-10.18,1.77-3.68,4.13-6.32,6.74-9.42s5.33-6.47,7.06-10.27c1.91-4.2,2.8-8.64,4.07-13.05.63-2.18,1.35-4.33,2.14-6.46s1.54-3.95,2.32-5.74c1.61-3.66,3.3-7.3,5.27-10.78.93-1.65,1.93-3.28,3.06-4.81.07-.1.58-.75.24-.33-.31.39.1-.12.13-.16.29-.35.57-.69.87-1.03.63-.73,1.3-1.42,2-2.08.65-.62,1.34-1.19,2.03-1.76.06-.05.56-.45.13-.11-.47.36.18-.13.3-.21.42-.3.85-.58,1.29-.85.68-.42,1.39-.75,2.08-1.12.47-.25-.41.2-.4.16.03-.06.58-.22.59-.22.39-.14.79-.27,1.2-.39.28-.08,2.27-.74,2.47-.53.03.03-1,.09-.45.07.26,0,.53-.05.79-.07.42-.03.84-.04,1.26-.04s.84.02,1.26.04c.21.01.42.04.62.05.78.06-.31-.02-.31-.05,0-.06,2.18.48,2.4.55.39.12.76.26,1.14.4-.04-.02.57.18.56.2l-.54-.23,1.09.46c.79.31-.24-.13-.25-.12.05-.04.61.3.67.33.35.18.66.43,1,.61.43.23-.3-.23-.28-.22.19.05.42.36.56.48.29.27.53.57.8.86.31.33-.19-.23-.2-.25.12.21.28.42.41.63.24.39.45.8.65,1.21.92,1.95,3.88,2.61,5.64,1.48,2.06-1.33,2.4-3.52,1.48-5.64h0Z"/>
    <path class="cls-3" d="M764.06,260.39c.24,5.8.14,11.59.23,17.4s.59,11.26.96,16.86c.74,11.05,2.13,22.29,6.49,32.56,2.01,4.74,4.97,8.84,9.08,11.96,3.65,2.77,7.99,4.12,12.48,4.68,8.97,1.13,18.06-1.84,25.19-7.24,8.85-6.71,15.62-15.99,21-25.61.71-1.27.42-2.91-.76-3.79-1.07-.8-2.92-.92-3.85.23-5.72,7.08-10.64,14.52-17.74,20.45-.95.8-1.09.9-2.1,1.61-.94.66-1.9,1.29-2.89,1.88-.86.51-1.73.99-2.63,1.42-.43.21-.86.4-1.3.59.15-.06.72-.28,0,0-.28.1-.56.21-.83.31-1.85.68-3.74,1.23-5.68,1.6-.47.09-.94.16-1.41.23-.81.12-.1,0,.05,0-.24.02-.47.05-.71.08-1.06.1-2.12.15-3.18.14-.94,0-1.87-.07-2.8-.17-.08,0-.66-.09-.14-.01.56.08-.17-.03-.3-.06-.51-.09-1.02-.19-1.52-.31-.89-.21-1.77-.47-2.63-.78-.21-.08-.42-.16-.64-.24,1.08.41-.56-.23-.63-.26.77.33.2.09.05.01-.31-.15-.61-.29-.92-.45-.81-.42-1.57-.91-2.33-1.43-.12-.08-.59-.46-.02,0-.18-.14-.36-.29-.54-.44-.41-.35-.79-.72-1.16-1.11s-.76-.83-1.11-1.27c-.43-.54.25.35-.15-.21-.16-.23-.32-.46-.48-.69-.67-.99-1.26-2.03-1.8-3.1-1.97-3.89-3.37-8.87-4.3-13.58s-1.43-9.51-1.78-14.66c-.4-5.98-.45-11.97-.79-17.95-.36-6.22-1.15-12.41-1.49-18.64-.1-1.87-1.52-3.46-3.46-3.46-1.82,0-3.54,1.58-3.46,3.46h0Z"/>
    <path class="cls-3" d="M809.51,342.92c.47,5.45-.12,10-1.72,15.18-.79,2.55-1.54,4.46-2.65,6.74-.6,1.23-1.27,2.41-1.97,3.58s-1.56,2.26-2.11,3.46-.51,2.45.44,3.39c.84.84,2.36,1.12,3.39.44,2.51-1.66,4.43-4.52,6.02-7.03s2.91-5.37,3.86-8.24c1.84-5.59,2.4-11.68,1.75-17.53-.21-1.88-1.46-3.51-3.51-3.51-1.77,0-3.67,1.61-3.51,3.51h0Z"/>
    <path class="cls-3" d="M857.59,288.39c-1.5,11.78-1.8,23.6-.72,35.44s3.19,23.57,6.89,34.79c1.87,5.68,4.52,11.16,9.53,14.67,1.12.78,2.8.31,3.56-.71.85-1.13.73-2.58-.22-3.63-3.08-3.4-4.94-7.47-6.3-11.73-1.65-5.17-2.85-10.5-3.88-15.82-2.15-11.09-3.27-22.35-3.27-33.64,0-6.47.2-12.92.85-19.36.17-1.73-1.61-3.22-3.22-3.22-1.92,0-3,1.49-3.22,3.22h0Z"/>
    <path class="cls-7" d="M229.69,718.06c-.09,6.94-.7,13.85-.92,20.79-.18,5.68-.45,11.36-.86,17.04-.35,4.85-1.02,9.68-1.31,14.53-.12,2.03-.28,4.04-.48,6.06-.05.52-.1,1.04-.17,1.57-.03.26-.07.51-.1.77,0-.07.14-1.05.05-.34-.14.99-.28,1.99-.43,2.98-.99,6.39-2.33,12.79-4.35,18.94-.86,2.61-1.79,5.2-2.84,7.73-.1.25-.42.72-.41.99-.01-.47.3-.7.11-.25-.06.14-.12.27-.17.41-.28.65-.56,1.3-.85,1.95-.55,1.24-1.11,2.47-1.67,3.7-2.78,6.04-5.53,12.03-7.49,18.4-.87,2.83,3.29,4.55,4.75,2,5.72-9.93,10.66-20.37,14.65-31.11,5.28-14.19,8.52-29.19,9.75-44.27.51-6.2.83-12.42,1.05-18.64.13-3.67.34-7.38.15-11.04-.21-4.07-.35-8.12-.39-12.2-.02-2.1-1.83-4.11-4.02-4.02s-3.99,1.76-4.02,4.02h0Z"/>
    <path class="cls-7" d="M322.67,819.3c-1.44,7.85.53,15.44,3.69,22.62,1.25,2.84,3.08,5.62,5.24,7.84,1.14,1.17,2.42,2.22,3.79,3.12s3.39,2.02,5.09,1.9c2.34-.16,4.27-2.71,2.83-4.94-.41-.63-.8-1.06-1.42-1.51-.11-.08-.45-.35-.17-.11-.5-.44-1-.9-1.47-1.37-.44-.43-.85-.89-1.25-1.36-.2-.24-.51-.65-.16-.17-.22-.3-.43-.6-.64-.9-1.47-2.17-2.59-4.47-3.67-6.85-.13-.29-.26-.58-.39-.87.26.59.13.32-.04-.12-.27-.68-.53-1.37-.78-2.06-.55-1.54-1.02-3.11-1.42-4.7-.19-.75-.35-1.51-.49-2.28,0,.03-.18-1.22-.13-.77.06.5-.06-.67-.07-.77-.07-.84-.09-1.69-.07-2.54,0-.38.03-.77.06-1.15.01-.16.18-1.43.06-.64.36-2.3-.58-4.93-3.13-5.51-2.19-.5-5.05.66-5.51,3.13h0Z"/>
    <path class="cls-7" d="M231.8,672.96c-2.02-2.87-4.68-5.53-8.07-6.66s-7.05-.21-9.53,2.22c-2.16,2.12-3.34,5.16-3.96,8.06-.73,3.39-1.06,6.94-1.26,10.4-.44,7.42-.02,14.78,1.09,22.13,1.01,6.65,2.25,14.75,8.65,18.43,3.4,1.96,7.68,2.03,10.94-.27,2.94-2.08,5.06-5.39,6.05-8.83.38-1.33-.25-2.84-1.44-3.53-1.09-.64-2.95-.59-3.79.49-1.61,2.06-2.53,3.68-4.14,5.33-.07.07-.53.43-.07.09-.18.13-.37.26-.57.37.03-.02-.94.45-.47.26s-.57.15-.53.14c-.15.05-.64.04-.09.02-.25,0-.51.01-.76,0,.63.06-.15-.06-.31-.1-.18-.05-.37-.11-.54-.17.25.11.26.1.02-.01-.29-.15-.57-.31-.83-.5.14.1.4.39-.15-.13-.16-.15-1.02-1.06-.71-.67-.93-1.16-1.23-2.07-1.58-3.22-.81-2.65-1.2-5.46-1.57-8.2-.3-2.19-.6-5.55-.74-8.2-.16-3.03-.25-6.06-.19-9.1.06-2.87.24-5.74.49-8.61.07-.79.14-1.59.23-2.38.04-.35.25-1.84.09-.85.18-1.14.4-2.27.76-3.36.07-.22.16-.43.23-.64-.27.84.05-.09.14-.26.1-.19.21-.38.32-.57.2-.33.58-.71.12-.22.18-.19.37-.37.54-.56.11-.11.23-.21.35-.31-.35.26-.4.31-.16.16.13-.15.85-.41.08-.11.15-.06,1.19-.3.47-.2.24-.03.5-.02.74-.02.81,0-.29-.18.5.09s.56.12,1.29.55c.93.54,1.97,1.55,2.59,2.36,1.1,1.43,2.87,2.19,4.57,1.2,1.45-.85,2.24-3.09,1.2-4.57h0Z"/>
    <path class="cls-7" d="M355.99,701.82c.81,6.19.65,12.58.57,18.81s-.49,12.34-1.26,18.44c-.02.16-.04.32-.06.47-.07.53.06-.4-.02.12-.06.4-.12.8-.18,1.21-.1.66-.22,1.32-.34,1.98-.22,1.19-.39,2.39-.61,3.59-.24,1.27.24,2.55,1.5,3.06,1.1.44,2.68.13,3.24-1.06,2.32-4.97,3.15-10.78,3.71-16.2.68-6.67.98-13.46.5-20.15-.27-3.69-.84-7.38-1.47-11.02-.54-3.12-5.99-2.43-5.58.75h0Z"/>
    <path class="cls-7" d="M870.27,262.78c-2.44-1.56-5.41-1.3-7.91-.07s-4.04,3.59-4.91,6.14c-.76,2.23-1.03,4.86-.87,7.21.18,2.65.88,5.45,2.36,7.68,2.92,4.39,8.74,6.56,13.66,4.28s6.1-8.59,5.66-13.39c-.28-3.14-1.23-6.07-3.31-8.5-1.86-2.17-4.47-3.54-7.31-3.74-1.34-.1-2.54,1.12-2.69,2.38-.17,1.45.66,2.49,1.97,3.01-.4-.16.03.01.09.04.16.08.33.16.49.25.11.06,1,.65.52.3.29.22.57.46.84.72.13.13.26.26.39.4.09.09.55.78.19.21.4.64.79,1.26,1.12,1.94-.34-.71.13.44.19.64.14.48.21.98.34,1.46.15.54-.03-.51.02.05.02.22.04.44.06.67.03.45.03.89.02,1.34s-.04.9-.08,1.34c-.01.1-.1.8-.04.35s-.07.37-.09.47c-.15.77-.36,1.51-.62,2.25.28-.79-.14.18-.26.41-.35.68.08-.03.09-.05,0,.04-.57.63-.59.62-.04-.03.76-.46.13-.1-.05.03-.42.26-.43.25-.03-.04.92-.28.21-.09-.15.04-.32.08-.47.13-.54.18.15-.23.27-.01,0,0-.53.03-.49.03-.17,0-.33-.01-.5-.01-.7,0,.57.15.13.02-.28-.09-.58-.15-.86-.24-.64-.19.14.02.2.1-.07-.08-.35-.17-.46-.23-.14-.08-.85-.41-.87-.56,0,.03.61.54.2.12-.18-.18-.36-.36-.54-.55-.24-.26-.32-.12.1.13-.09-.06-.29-.43-.33-.49-.22-.33-.4-.68-.58-1.03-.15-.29-.36-.36.05.14-.09-.11-.17-.46-.2-.56-.14-.43-.26-.86-.35-1.3-.04-.2-.07-.4-.12-.59-.13-.57.08.75.01.17-.04-.4-.1-.81-.14-1.21-.08-.86-.1-1.72-.07-2.58,0-.2.02-.41.03-.61.01-.15.03-1.19,0-.21.02-.44.17-.93.29-1.35.05-.19.13-.38.18-.58.1-.4-.3.51.04-.08.1-.17.2-.35.3-.52.41-.74-.43.34.12-.15.05-.04.37-.37.38-.36.01.02-.65.42.02.02.12-.07.62-.26.16-.11-.5.17.21-.03.32-.07.65-.21-.1.08-.18,0,.31.32.86-.49.07-.08.05-.03.49.13.48.12l-.37-.17c.15.07.3.16.44.25,1.56.97,3.92.38,4.79-1.26.92-1.73.39-3.73-1.26-4.79h0Z"/>
    <path class="cls-7" d="M869.91,290.57c.13,1.11.17,2.22.04,3.33l.11-.8c-.05.4-.13.8-.24,1.19-.03.1-.07.21-.1.31-.08.26-.3.42.14-.31-.09.16-.17.33-.26.49-.27.48.53-.58.07-.09-.05.06-.11.11-.17.17-.31.32.58-.38.29-.22-.07.04-.14.08-.21.13-.44.29.29-.18.33-.12-.01-.01-.66.17-.73.18l.81-.11c-.27.03-.53.02-.8,0l.81.11c-.24-.04-.47-.11-.7-.17-.35-.1.66.34.2.08-.1-.05-.2-.1-.29-.16-.12-.07-.23-.16-.36-.23-.31-.19.48.42.22.17-.19-.18-.38-.34-.56-.53-.1-.1-.19-.21-.29-.32-.07-.08-.33-.41-.02-.02.33.42,0,0-.06-.1s-.13-.19-.19-.29c-.15-.24-.29-.49-.42-.75-.05-.1-.1-.21-.15-.31-.24-.48.2.54.07.18-.18-.49-.37-.97-.51-1.46-.07-.25-.13-.5-.19-.75-.02-.11-.04-.22-.06-.34-.13-.64.14,1.09-.02-.12-.03-.21-.06-.43-.09-.64-.06-.36.07.69.02.17-.02-.26-.04-.51-.05-.77-.02-.54.02-1.07.09-1.61.08-.57-.33-1.42-.74-1.79s-.89-.62-1.45-.7c-1.33-.18-2.32.62-2.78,1.81-1.6,4.12-.57,9.17,2.61,12.28,1.82,1.78,4.54,2.96,7.08,2.13,2.16-.71,3.62-2.42,4.26-4.57s.44-4.17.16-6.24c-.09-.66-.81-1.48-1.37-1.78-.6-.32-1.22-.45-1.9-.35-1.32.18-2.76,1.46-2.59,2.93h0Z"/>
    <path class="cls-7" d="M871.24,299.35c-.35,1.62-.21,3.18.14,4.78.25,1.15.62,2.29.78,3.46l-.11-.8c.06.5.08.99.02,1.48l.11-.8c-.05.32-.13.62-.25.92l.3-.72c-.12.27-.27.51-.45.75l.47-.61c-.13.16-.28.29-.43.42l.61-.47c-.22.17-.45.3-.71.41l.73-.31c-.26.1-.52.17-.79.21l.82-.11c-.44.06-.89.05-1.33,0l.82.11c-.42-.07-.82-.18-1.21-.33l.73.31c-.43-.18-.83-.41-1.21-.7l.62.48c-.39-.31-.72-.65-1.03-1.04l.47.61c-.37-.5-.67-1.03-.92-1.59l.29.7c-.65-1.55-.95-3.2-1.25-4.84-.22-1.24-1.64-1.97-2.78-1.81-1.25.17-2.18,1.22-2.2,2.49-.03,2,0,4.11.69,6.01.77,2.14,2.07,4.05,4.2,5.01s4.65,1.2,6.73-.08,3.13-3.52,3.02-5.85c-.09-2.05-.87-3.95-1.16-5.97l.11.8c-.07-.57-.1-1.15-.03-1.72l-.11.8c.02-.13.04-.26.07-.39.32-1.53-.45-3.31-2.09-3.68-1.51-.34-3.33.45-3.68,2.09h0Z"/>
  </g>
</svg>