<svg id="Group_156" data-name="Group 156" xmlns="http://www.w3.org/2000/svg" xmlns:xlink="http://www.w3.org/1999/xlink" width="593.852" height="586.964" viewBox="0 0 593.852 586.964">
  <defs>
    <clipPath id="clip-path">
      <rect id="Rectangle_59" data-name="Rectangle 59" width="593.852" height="586.964" fill="none"/>
    </clipPath>
    <clipPath id="clip-path-2">
      <rect id="Rectangle_56" data-name="Rectangle 56" width="593.854" height="586.964" fill="none"/>
    </clipPath>
    <clipPath id="clip-path-3">
      <rect id="Rectangle_54" data-name="Rectangle 54" width="305.719" height="273.781" fill="none"/>
    </clipPath>
    <clipPath id="clip-path-4">
      <rect id="Rectangle_55" data-name="Rectangle 55" width="265.493" height="265.491" fill="none"/>
    </clipPath>
    <clipPath id="clip-path-5">
      <path id="Path_304" data-name="Path 304" d="M552.965,154.885A132.809,132.809,0,1,0,685.774,22.076,132.809,132.809,0,0,0,552.965,154.885" transform="translate(-552.965 -22.076)" fill="none"/>
    </clipPath>
  </defs>
  <g id="Group_155" data-name="Group 155" clip-path="url(#clip-path)">
    <g id="Group_148" data-name="Group 148" transform="translate(0 -0.001)">
      <g id="Group_147" data-name="Group 147" clip-path="url(#clip-path-2)">
        <g id="Group_143" data-name="Group 143" transform="translate(0 313.184)" opacity="0.212">
          <g id="Group_142" data-name="Group 142">
            <g id="Group_141" data-name="Group 141" clip-path="url(#clip-path-3)">
              <path id="Path_299" data-name="Path 299" d="M179.552,589.057c-3.249-10.491-9.677-19.373-17.972-26.706-4.345-3.841,22.676,4.463,19.5-.614-19.777-31.641-45.072-15.451-50.98-17.682a135.9,135.9,0,0,0-22.93-6.4c-30.063-5.611-97.294-2.3-106.036,101.365-4.685,55.555,3.708,117.018,51.768,148.2,42.514,27.587,133.29,26.638,177.934,14.409,104.712-28.68,77.282-82.246,50.057-104.56-36.7-30.08-62,19.007-101.344-108.019" transform="translate(0 -536.019)" fill="#c1d72d"/>
            </g>
          </g>
        </g>
        <g id="Group_146" data-name="Group 146" transform="translate(322.201 13.013)" opacity="0.212">
          <g id="Group_145" data-name="Group 145">
            <g id="Group_144" data-name="Group 144" clip-path="url(#clip-path-4)">
              <path id="Path_300" data-name="Path 300" d="M551.453,155.017A132.746,132.746,0,1,1,684.2,287.762,132.746,132.746,0,0,1,551.453,155.017" transform="translate(-551.453 -22.271)" fill="#c1d72d"/>
            </g>
          </g>
        </g>
        <path id="Path_301" data-name="Path 301" d="M653.1,282.4c-4.7-4.162-5.011-11.564-3.712-17.708s4.235-11.8,6.228-17.76c8.29-24.781-.251-52.557,6.678-77.752,2.93-10.654,8.5-20.358,14.024-29.93,4.646-8.059,9.417-16.272,16.4-22.413,15.248-13.4,40.407-13.608,55.871-.456,3.687,3.136,7.063,7.028,11.724,8.33,4.04,1.129,8.338.092,12.53.241a22.763,22.763,0,0,1,20.915,17.99c3.1,16.512-12.73,31.839-10.774,48.524,1.132,9.656,8.094,17.642,15.768,23.609s16.387,10.625,23.4,17.358,12.286,16.4,10.4,25.94c-1.519,7.677-7.489,13.907-14.432,17.519s-14.816,4.968-22.58,5.958c-7.785.994-15.887,1.64-23.317-.887s-14.043-9.01-14.37-16.852c-.253-6.059,3.146-11.713,3.6-17.76.541-7.234-3.132-14.01-5.388-20.905-4.105-12.549-3.569-26.077-2.989-39.268.116-2.634.407-5.623,2.5-7.226s6.154.316,5.136,2.749c1.671-3.885,3.371-7.9,3.422-12.127s-1.96-8.776-5.854-10.425-9.337,1.046-9.342,5.275c-6.671-1.6-10.274-8.6-13.378-14.716s-7.776-12.835-14.635-12.929c-6.33-.087-11.143,5.642-14.027,11.278-7.642,14.935-8.67,32.408-7.377,49.135.562,7.267,1.727,14.962,6.481,20.486s14.263,7.5,19.258,2.195l-8.1,49.932c-.8,4.9-1.681,10.026-4.685,13.983-5.088,6.7-14.5,8.029-22.9,8.46-7.463.383-15.05.471-22.284-1.4-4.522-1.169-11.1-5.712-14.192-8.448" transform="translate(-269.691 -44.334)" fill="#fff"/>
        <path id="Path_302" data-name="Path 302" d="M168.059,713.929c6.177-3.1,9.313-10.033,11.541-16.577a155.817,155.817,0,0,0,8.223-54.412c-1.552,3.3-6.8,2.984-9.239.279s-2.846-6.624-3.131-10.258q-.38-4.83-.76-9.661c-.168-2.138-.323-4.373.509-6.351s2.982-3.58,5.057-3.036c1.9.5,3.187,2.571,5.143,2.71,1.8.128,3.295-1.524,3.807-3.257s.345-3.584.547-5.38c.568-5.028,4.058-9.352,8.275-12.149s9.136-4.3,13.977-5.774c7.874-2.391,15.895-4.8,24.123-4.749s16.847,2.962,21.886,9.468c5.977,7.715,5.7,18.405,5.154,28.149-.965,17.11-2.065,34.754-9.642,50.127-3.742,7.591-9.014,14.507-11.4,22.628s-.882,18.332,6.358,22.715c1.391.841,3.09,1.616,3.513,3.185a4.72,4.72,0,0,1-.778,3.4c-4.58,8.27-13.963,13.079-23.362,14.1s-18.853-1.271-27.783-4.37c-11.632-4.036-32.022-20.789-32.022-20.789" transform="translate(-69.866 -243.328)" fill="#fff"/>
      </g>
    </g>
    <g id="Group_150" data-name="Group 150" transform="translate(323.084 12.898)">
      <g id="Group_149" data-name="Group 149" clip-path="url(#clip-path-5)">
        <path id="Path_303" data-name="Path 303" d="M820.739,369.192s-25.449-26.074-37.218-29.365-28.511-5.464-28.511-5.464-18.611,12.415-27.089,11.167-14.159-8.027-17.232-10.189c-3.986,1.563-12.144,3.769-15.583,3.971s-13.7-1.94-22.595,2.321-29.623,29.974-38.48,41.274-2.591,11.032,7.19,18.725,57.243,24.19,86.853,24.19,110.575-43.057,92.666-56.631" transform="translate(-584.901 -151.902)" fill="#c1d72d"/>
      </g>
    </g>
    <g id="Group_152" data-name="Group 152" transform="translate(0 -0.001)">
      <g id="Group_151" data-name="Group 151" clip-path="url(#clip-path-2)">
        <path id="Path_305" data-name="Path 305" d="M412.063,208.973a45.869,45.869,0,0,0-45.2-38.091H255.855a45.866,45.866,0,0,0,0,91.731H366.867a45.8,45.8,0,0,0,36.794-18.48c12.2,1.87,29.214-6.949,40.813-25.7-13.053,5.582-25.879-3.5-32.411-9.461" transform="translate(-87.298 -71.039)" fill="#c1d72d"/>
        <path id="Path_306" data-name="Path 306" d="M249.335,598.1c-.606-5.2-5.695-9.145-10.918-9.508s-8.265,6.067-11.961,9.774c-3.382,3.392-5.266,6.233-9.968,8.113a.955.955,0,0,1-1.153-.678,20.358,20.358,0,0,1-.564-8.71.542.542,0,0,0-.944-.434,19.351,19.351,0,0,0-4.816,10.6.538.538,0,0,1-.888.341.538.538,0,0,0-.875.539,39.006,39.006,0,0,1-2.647,26.214.543.543,0,0,1-.96.036,2.554,2.554,0,0,0-2.2-1.24,3.114,3.114,0,0,0-2.185,1.1.539.539,0,0,1-.941-.3l-1.61-16.528c-.706-7.248-.837-18.99,10.934-28.676,8.67-7.135,15.215-11.911,32.234-12.912,12.784-.753,26.888,3.922,31.128,7.042,6.113,4.5,9.775,13.975,10.629,21.517.5,4.419.77,9.261-1.168,13.13a.541.541,0,0,1-1.018-.153,4.543,4.543,0,0,0-.983-2.2.548.548,0,0,0-.942.18q-2.245,7.022-3.858,14.225a.542.542,0,0,1-1,.15c-4.535-8.1-3-18.592-5.465-27.564a.541.541,0,0,0-1.062.185,26.446,26.446,0,0,1,.1,4.216.543.543,0,0,1-1.073.076,40.357,40.357,0,0,0-5.09-12.548.771.771,0,0,0-.21-.221c-3.247-2.238-4.879.285-6.335,2.217-1.024,1.36-2.759,2.7-4.275,1.92" transform="translate(-81.667 -239.354)" fill="#75a501"/>
        <path id="Path_307" data-name="Path 307" d="M198.7,671.374s-1.5,17.668-1.315,21.788.388,10.177,4.32,14.65,19.682,20.444,22.75,22.743,5.33,3.675,8.514,4.089,14.138.336,16.187.224,5.063.006,8.065-4.089,15.235-21.525,15.235-33.943-2.744-3.214-4.083.3-9.2,18.888-13.99,18.661-6.522-.651-10.71-.651-7.455-.1-9,.409-19.292-10.308-21.3-14.01-6.842-25.471-7.391-28.072-3.34-5.815-3.628-3.943-2.656-2.905-3.655,1.841" transform="translate(-82.049 -278.108)" fill="#75a501"/>
        <path id="Path_308" data-name="Path 308" d="M261.534,707.477a8.317,8.317,0,0,0-7.408-2.5c-2.729.619-5.138,2.187-7.75,3.19a9.53,9.53,0,0,1-6.881.343.274.274,0,0,0-.326.421,16.806,16.806,0,0,0,21.764,3.546,19.838,19.838,0,0,0,20.544-3.457.291.291,0,0,0-.269-.5,10.309,10.309,0,0,1-6.027-.83c-2.313-.941-4.506-2.258-6.96-2.713s-5.982.522-6.686,2.493" transform="translate(-99.401 -293.014)" fill="#75a501"/>
        <path id="Path_309" data-name="Path 309" d="M277.785,864.42c-33.456-37.371-36.837-39.072-65.887-47.489-6.653-1.928-13.944-3.1-20.409-.612-6.109,2.349-10.564,7.684-16.288,10.857-8.572,4.751-19.268,4.171-28.514.924s-17.42-8.892-25.685-14.159c-5.7-3.636-11.652-7.178-18.278-8.541-5.894-1.212-11.991-.629-17.98-.041-12.907,1.268-26.039,2.591-38,7.6S23.949,827.331,20.4,839.806c-3.721,13.091,9.85,73.578,113.395,81.4,28.475,2.15,188.78-6.747,143.988-56.782" transform="translate(-8.261 -334.528)" fill="#c1d72d"/>
      </g>
    </g>
    <g id="Group_154" data-name="Group 154" transform="translate(0 -0.001)">
      <g id="Group_153" data-name="Group 153" clip-path="url(#clip-path-2)">
        <path id="Path_310" data-name="Path 310" d="M692.381,286.961a138.008,138.008,0,0,1-123.61-76.627,3.506,3.506,0,0,1,6.279-3.12,130.894,130.894,0,0,0,99.095,71.46c71.447,10,137.712-39.983,147.716-111.43S781.878,29.533,710.431,19.529A130.054,130.054,0,0,0,591.125,66.1a3.506,3.506,0,0,1-5.416-4.453A137.017,137.017,0,0,1,711.4,12.585c75.275,10.54,127.941,80.356,117.4,155.632C819.169,237.037,759.984,286.96,692.381,286.961Z" transform="translate(-236.3 -4.665)" fill="#75a501"/>
        <path id="Path_311" data-name="Path 311" d="M118.365,333.826q-9.527,14.4-18.714,29.014Q90.5,377.4,81.7,392.166q-4.982,8.361-9.853,16.787a2.737,2.737,0,1,0,4.726,2.762q8.645-14.943,17.638-29.68,8.958-14.675,18.259-29.135,5.265-8.186,10.64-16.3a2.768,2.768,0,0,0-.986-3.759,2.811,2.811,0,0,0-3.76.986" transform="translate(-29.721 -138.222)" fill="#75a501"/>
        <path id="Path_312" data-name="Path 312" d="M77.989,416c2.623-2.262,5.329-4.42,7.957-6.676s5.194-4.561,7.785-6.847q7.775-6.857,15.54-13.725l30.837-27.28c2.694-2.383,5.355-4.814,8.152-7.078q.5-.406,1.009-.8c-.091.071-.37.28.058-.043q.308-.232.618-.463c.688-.508,1.389-1,2.1-1.471a39.713,39.713,0,0,1,4.45-2.539,2.724,2.724,0,0,0,.972-3.706,2.787,2.787,0,0,0-3.705-.972c-5.767,2.618-10.538,7.017-15.234,11.168L123,369.3q-15.587,13.781-31.165,27.571c-2.913,2.583-5.836,5.154-8.738,7.749s-5.665,5.327-8.546,7.941a2.45,2.45,0,0,0,0,3.441,2.494,2.494,0,0,0,3.441,0" transform="translate(-30.698 -143.04)" fill="#75a501"/>
        <path id="Path_313" data-name="Path 313" d="M157.622,336.6c2.847.254,4.72.5,7.4.935,2.558.417,5.1.911,7.637,1.455,5.122,1.1,10.2,2.395,15.275,3.69a2.737,2.737,0,1,0,1.455-5.278c-10.464-2.694-20.976-5.313-31.771-6.252a2.737,2.737,0,0,0-2.726,2.726,2.8,2.8,0,0,0,2.726,2.725" transform="translate(-64.393 -137.662)" fill="#75a501"/>
        <path id="Path_314" data-name="Path 314" d="M77.078,404.626c.767-2.534,1.625-5.039,2.383-7.576.771-2.58,1.45-5.188,2.139-7.79q2.051-7.741,3.876-15.539,3.645-15.522,6.481-31.22c1.093-6.042,2.223-12.112,2.976-18.207a2.73,2.73,0,0,0-5.353-.725c-.935,5.206-1.671,10.449-2.6,15.657q-1.4,7.884-3.006,15.73-3.182,15.554-7.157,30.927c-.74,2.883-1.52,5.755-2.282,8.633-.774,2.925-1.417,5.879-2.228,8.795a2.473,2.473,0,0,0,4.769,1.315" transform="translate(-30.027 -133.694)" fill="#75a501"/>
        <path id="Path_315" data-name="Path 315" d="M83.5,319.074c-8.5-.09-17-.121-25.505-.148a2.767,2.767,0,0,0-2.747,2.747q1.406,16.552,3.111,33.076c1.131,11.07,2.438,22.124,3.8,33.167.395,3.2.772,6.4,1.261,9.594.233,1.521.445,3.052.719,4.566.252,1.393.418,3.18.71,4.719a2.229,2.229,0,0,0,4.37-.591c-.179-2.742-.621-5.464-.8-8.206s-.54-5.477-.858-8.21c-.64-5.523-1.284-11.042-1.835-16.575-1.092-10.969-2.256-21.93-3.3-32.9q-.883-9.316-1.686-18.639L58,324.419c8.5.009,17,.014,25.505-.04a2.652,2.652,0,0,0,0-5.3" transform="translate(-22.966 -132.585)" fill="#75a501"/>
        <path id="Path_316" data-name="Path 316" d="M77.056,432Q88.4,426.682,99.9,421.683q2.873-1.25,5.755-2.479,1.309-.558,2.622-1.112c.859-.363-.468.2.393-.166l.787-.331,1.576-.66q5.715-2.387,11.463-4.7,6.542-2.626,13.124-5.147a2.874,2.874,0,0,0,2.018-2.65q.6-14.313,1.2-28.626a2.767,2.767,0,0,0-2.747-2.748,2.806,2.806,0,0,0-2.748,2.748q-.6,14.313-1.2,28.626l2.017-2.65q-23.732,9.1-46.931,19.521-6.494,2.918-12.941,5.94a2.76,2.76,0,0,0-.986,3.76,2.823,2.823,0,0,0,3.759.986" transform="translate(-30.318 -155.092)" fill="#75a501"/>
        <path id="Path_317" data-name="Path 317" d="M105.764,326.327q1.29,8.608,2.779,17.184.739,4.252,1.528,8.5c.532,2.864.968,5.787,1.671,8.614a2.758,2.758,0,0,0,3.359,1.907,2.815,2.815,0,0,0,1.908-3.359c-.421-2.839-1.087-5.659-1.612-8.481q-.8-4.314-1.554-8.637-1.49-8.575-2.779-17.184a2.756,2.756,0,0,0-3.38-1.919,2.832,2.832,0,0,0-1.919,3.38" transform="translate(-43.949 -134.214)" fill="#75a501"/>
        <path id="Path_318" data-name="Path 318" d="M108.569,325.36a1.326,1.326,0,0,0,0-2.65,1.326,1.326,0,0,0,0,2.65" transform="translate(-44.603 -134.158)" fill="#75a501"/>
        <path id="Path_319" data-name="Path 319" d="M108.134,324.3a3.7,3.7,0,0,0,.455-1.764,3.242,3.242,0,0,0-.185-1.107,5,5,0,0,0-.372-.834,6.167,6.167,0,0,0-.553-.719,3.785,3.785,0,0,0-.887-.706,3.658,3.658,0,0,0-1.1-.448,5.293,5.293,0,0,0-1.285-.144c-.106,0-.212.014-.318.027-.325.039-.653.078-.976.137-.1.018-.2.037-.292.061a2.793,2.793,0,0,0-1.765,1.349,1.984,1.984,0,0,0-.317.991,2.026,2.026,0,0,0,.048,1.063l.269.637a2.679,2.679,0,0,0,.956.956l.029.022.646.272a1,1,0,0,0,.4.063c.129.02.258.037.387.052a4.892,4.892,0,0,0,.779-.1l.122-.027c.145-.032.292-.058.441-.078l-.731.1a2.879,2.879,0,0,1,.73-.007l-.73-.1a1.9,1.9,0,0,1,.4.1l-.657-.277a1.5,1.5,0,0,1,.322.189l-.556-.429a1.592,1.592,0,0,1,.24.238l-.43-.556a1.407,1.407,0,0,1,.171.283l-.277-.657a1.193,1.193,0,0,1,.079.272l-.1-.73a1,1,0,0,1,0,.244l.1-.731a.962.962,0,0,1-.057.205l.277-.657-.015.034a2.038,2.038,0,0,0-.326,1.021,2.823,2.823,0,0,0,1.312,2.738l.657.277a2.767,2.767,0,0,0,1.461,0l.657-.277a2.762,2.762,0,0,0,.986-.986" transform="translate(-41.778 -132.438)" fill="#75a501"/>
        <path id="Path_320" data-name="Path 320" d="M901.166,751.832a162.727,162.727,0,0,0-13.784-21.564,220.984,220.984,0,0,0-16.575-19.928q-4.4-4.694-9.083-9.118a75.918,75.918,0,0,0-9.989-8.456c-3.653-2.413-8.8-4.563-13.148-2.807a7.9,7.9,0,0,0-4.827,5.143,7.32,7.32,0,0,0,2.141,6.967c3.128,3.139,8.048,3.678,12.142,2.446,4.063-1.223,7.688-3.814,11.051-6.328,6.386-4.775,12.474-10.886,14.322-18.923a12.672,12.672,0,0,0-.143-7.267,8.448,8.448,0,0,0-4.938-5.039c-4.373-1.639-8.734,2.039-9.463,6.279-.827,4.808,1.965,8.889,4.4,12.761q3.812,6.059,7.671,12.088,7.757,12.118,15.7,24.114,3.953,5.968,7.951,11.906c1.35,2,2.856,3.9,4.328,5.818q.33.429.662.857l.214.276c-.079-.1-.25-.328.1.13s.7.893,1.066,1.329c.325.39.5.587.905,1.077.324.39.656.774,1,1.143a18.064,18.064,0,0,0,4.787,3.508,1.944,1.944,0,0,0,2.605-.684,1.925,1.925,0,0,0-.683-2.605,14.074,14.074,0,0,1-3.874-3.549,33.673,33.673,0,0,1-2.8-4.222c-1.124-1.878-2.2-3.794-3.426-5.61s-2.45-3.643-3.67-5.468q-7.4-11.068-14.64-22.243t-14.318-22.452c-.493-.786-.983-1.574-1.426-2.389-.241-.444-.467-.894-.674-1.354.241.537-.078-.214-.1-.271-.084-.233-.162-.469-.231-.707s-.13-.477-.18-.719c-.019-.091-.1-.878-.054-.249-.029-.362-.02-.716-.026-1.078-.008-.648-.153.588,0-.045.046-.192.081-.383.134-.573a1.71,1.71,0,0,1,.185-.56q-.232.527-.043.116c.042-.088.087-.175.134-.26.077-.142.159-.281.247-.417l.108-.16q.263-.363-.078.1c0-.085.328-.352.39-.41l.138-.126q.342-.285-.116.088a1.989,1.989,0,0,1,.313-.2l.162-.087q.4-.192-.149.06a2.928,2.928,0,0,1,.536-.144q-.63.069-.165.032a3.882,3.882,0,0,1,.421.006l-.315-.047a2.986,2.986,0,0,1,.3.067,1.964,1.964,0,0,1,.495.158c-.607-.363-.01.034.092.1.137.083.582.508.128.072.154.148.306.3.46.446.342.329.049.036-.019-.058a6.067,6.067,0,0,1,.352.539c.071.124.138.249.2.378q-.2-.517-.017-.025c.071.245.153.484.211.734,0-.021.13.789.082.386s.02.423.019.4c.011.256.011.513,0,.769s-.033.514-.054.771c-.07.826.122-.516-.048.295-.1.485-.2.968-.329,1.447-.214.8-.49,1.57-.779,2.342-.261.7.244-.508-.07.167-.094.2-.184.406-.28.607q-.288.6-.611,1.187c-.412.75-.865,1.476-1.348,2.182-.233.339-.477.67-.72,1-.444.605.355-.424-.123.157-.192.233-.379.468-.574.7a39.286,39.286,0,0,1-3.662,3.758q-.941.85-1.925,1.652-.536.438-1.083.864c.081-.063.418-.318.006-.006q-.368.279-.738.554c-1.458,1.079-2.953,2.111-4.483,3.084-.8.508-1.611,1-2.45,1.433-.455.237-.916.465-1.388.665.531-.225-.251.088-.294.1q-.42.154-.847.283a13.568,13.568,0,0,1-1.366.338c-.164.031-.772.247-.126.03a2.708,2.708,0,0,1-.65.052,10.737,10.737,0,0,1-1.088,0,3.391,3.391,0,0,1-.65-.054c.729.189-.2-.052-.338-.084-.352-.081-.685-.2-1.03-.3-.663-.2.477.275-.13-.051-.187-.1-.377-.19-.561-.3s-.35-.238-.533-.343c.445.256.179.155.056.039-.156-.145-.316-.283-.464-.437q-.149-.154-.287-.318.266.363,0-.023c-.12-.21-.252-.409-.355-.629.232.5.047-.02-.011-.131-.162-.313-.039.5-.025-.067,0-.069,0-.137,0-.206q.031-.471-.038.119a1.644,1.644,0,0,1,.156-.592l-.123.275c.058-.125.12-.247.189-.366s.148-.233.222-.351c-.354.567.123-.114.255-.24.116-.11.641-.435.1-.1.179-.109.365-.215.541-.328.542-.348-.386.085.037-.026.2-.053.4-.131.6-.182.085-.021.879-.131.255-.071q.375-.036.751-.038c.254,0,.5.016.757.03.788.044-.5-.121.278.036a18.073,18.073,0,0,1,2.779.827c.445.167-.562-.279.147.068.223.109.451.212.673.324.519.262,1.027.546,1.524.847.786.477,1.544,1,2.282,1.547-.032-.024.621.478.323.244s.348.28.316.254q.688.555,1.357,1.132c1.474,1.267,2.907,2.585,4.329,3.91q4.29,4,8.356,8.224,4.152,4.317,8.059,8.861,1.912,2.223,3.762,4.5.884,1.088,1.755,2.186.475.6.945,1.2l.469.6c-.327-.421.177.23.194.252a228.414,228.414,0,0,1,13.389,19.549c1.023,1.666,2.079,3.311,3.111,4.972a2.546,2.546,0,1,0,4.4-2.57" transform="translate(-346.526 -277.104)" fill="#75a501"/>
        <path id="Path_321" data-name="Path 321" d="M899.316,719.506q-.563-.639-1.107-1.294c-.1-.125-.208-.25-.308-.377.157.2.486.519-.291-.394-.209-.247-.432-.481-.644-.726q-.556-.643-1.09-1.3-.305-.378-.608-.757c-.08-.1-.6-.774-.348-.437a50.247,50.247,0,0,1-4-6.075c-.589-1.059-1.135-2.144-1.644-3.244q-.178-.385-.35-.773c-.047-.106-.346-.8-.178-.4-.251-.6-.487-1.2-.714-1.8a47.2,47.2,0,0,1-2.2-7.372c-.547-2.8-.848-4.945-1.121-7.615-.28-2.745-.458-5.5-.625-8.254-.33-5.417-.588-10.842-1.352-16.221-1.289-9.076-4.315-18.353-10.822-25.064a36.622,36.622,0,0,0-13.307-8.3,52.765,52.765,0,0,0-14.3-3.407c-9.594-.882-19.734,1.146-27.658,6.806a71.031,71.031,0,0,0-11.726,10.886,47.169,47.169,0,0,0-8.637,13.5,40.246,40.246,0,0,0,.614,30.6c3.9,9.174,11,16.4,19.554,21.375,8.534,4.959,18.021,7.856,27.14,11.5q.423.169.844.341c.17.07.64.244.207.078.71.271,1.415.561,2.124.837.247.1.49.209.741.292.375.124-.336-.156.027,0,.105.046.209.094.313.142q.835.38,1.662.778c2.06.989,4.084,2.058,6.043,3.234q1.456.874,2.859,1.832.649.445,1.285.91.317.231.63.469c.05.037.419.324.2.149s.292.233.28.223a42.037,42.037,0,0,1,4.868,4.556c.695.765,1.374,1.545,2.009,2.361.278.358.106.144.047.066.09.119.182.237.272.356q.237.315.465.634c.325.455.668.915.946,1.4a2.141,2.141,0,0,0,3.7-2.161,39.43,39.43,0,0,0-3.835-5.788,36.211,36.211,0,0,0-4.657-4.606,61.182,61.182,0,0,0-11.43-7.428c-1.994-1.018-4.015-2.045-6.064-2.949-.628-.277-1.263-.54-1.9-.806l-.736-.306c-.14-.058-.28-.117-.421-.172s-.14-.057.008,0l-.209-.088c-1.181-.5-2.366-.984-3.564-1.44-2.257-.86-4.52-1.7-6.773-2.574q-1.662-.642-3.315-1.308c-.531-.214-1.058-.435-1.588-.653-.293-.12.05.022.091.039l-.45-.192q-.451-.193-.9-.388a68.529,68.529,0,0,1-12.516-6.89q-.344-.247-.684-.5c-.123-.092-.714-.546-.311-.231q-.717-.561-1.412-1.148-1.323-1.123-2.551-2.351-1.258-1.261-2.4-2.63-.267-.318-.526-.643c-.1-.127-.543-.7-.23-.287q-.537-.711-1.048-1.441a40.543,40.543,0,0,1-3.482-6.064q-.175-.377-.341-.757c-.032-.072-.227-.533-.1-.217.122.292-.029-.074-.044-.11-.234-.587-.462-1.177-.672-1.774q-.57-1.622-.993-3.291-.441-1.742-.713-3.52c-.025-.167-.05-.335-.073-.5.006.047.047.424.016.1-.028-.3-.068-.59-.1-.885q-.1-1.012-.142-2.029-.079-1.842.023-3.686.049-.889.14-1.774c.03-.3.065-.589.1-.884-.014.113-.078.519.005-.026.026-.167.051-.335.078-.5a36.382,36.382,0,0,1,1.937-7.222q.159-.415.328-.826c-.189.462.119-.265.177-.394q.392-.869.831-1.714c.583-1.123,1.226-2.215,1.917-3.275q.484-.741,1-1.464.257-.361.52-.718l.227-.3c-.011.015.431-.563.247-.327s.134-.169.176-.222l.237-.3q.279-.346.563-.688.649-.782,1.324-1.542c1.643-1.854,3.383-3.622,5.17-5.339.966-.928,1.952-1.838,2.971-2.708.476-.406.963-.8,1.448-1.19.242-.2.019-.016-.026.019q.212-.163.427-.322.43-.318.869-.625a33.288,33.288,0,0,1,3.068-1.9q.715-.391,1.448-.748.366-.178.736-.347l.318-.144c.063-.028.653-.28.312-.138-.3.124.061-.024.1-.04l.431-.172q.379-.147.76-.286.818-.3,1.65-.557,1.666-.519,3.375-.881.8-.17,1.6-.307.4-.068.807-.129l.347-.051c-.6.092-.044.007.083-.008q1.689-.2,3.391-.274a46.385,46.385,0,0,1,6.955.243c.275.03.549.063.823.1.117.014.537.083-.024,0,.117.018.234.034.352.051q.879.131,1.753.293c1.167.217,2.33.44,3.482.724,1.109.273,2.21.58,3.293.942q.838.28,1.665.588.36.134.719.274.239.094.477.19c.054.022.663.273.394.16-.246-.1.143.063.155.068l.47.207q.41.184.816.377.869.412,1.718.865a32.18,32.18,0,0,1,3.273,2.008c.209.147.416.3.623.449.426.31.158.115.067.045.135.1.268.211.4.319q.676.55,1.313,1.144a27.682,27.682,0,0,1,2.221,2.319q.252.294.494.594c.124.154.5.656.186.231.346.476.7.947,1.024,1.435.6.887,1.146,1.8,1.656,2.743s.983,1.916,1.414,2.9c.051.115.415.973.166.375q.13.311.255.624.334.837.635,1.687a54.283,54.283,0,0,1,1.78,6.334q.373,1.665.66,3.348.134.783.252,1.568.059.392.114.784c.015.112.031.224.046.335-.081-.588-.008-.046.008.077.331,2.619.559,5.253.739,7.886.38,5.557.659,11.116,1.414,16.639a60.015,60.015,0,0,0,3.779,14.794,55.624,55.624,0,0,0,7.271,12.741,34.863,34.863,0,0,0,5,5.325,2.326,2.326,0,0,0,3.29-3.289" transform="translate(-329.905 -260.031)" fill="#75a501"/>
        <path id="Path_322" data-name="Path 322" d="M950.349,784.647a5.939,5.939,0,0,1-.551,1.562c.013-.029-.422.955-.2.467-.07.154-.14.309-.214.462-.166.346-.331.693-.5,1.039a22.18,22.18,0,0,1-2.022,3.35c-.085.117-.172.231-.258.348.054-.075.339-.434.029-.04-.178.226-.353.453-.534.675q-.543.667-1.13,1.3a27.437,27.437,0,0,1-2.58,2.433q-.166.138-.333.272c-.068.054-.431.339-.147.119s-.082.06-.152.112c-.115.085-.231.171-.348.254q-.744.536-1.521,1.026a30.341,30.341,0,0,1-3.03,1.675q-.391.188-.787.366c-.133.059-.266.116-.4.175.533-.239.172-.072.055-.025-.573.228-1.148.447-1.732.646a33.544,33.544,0,0,1-3.454.977c-1.272.285-2.559.482-3.843.7-.353.059-.708.112-1.062.165-.109.016-.491.054.028,0-.254.028-.508.061-.761.1a3.933,3.933,0,0,0-.531.095c-.134.037-1.352.6-1.239.665-.087-.053.948-.336.282-.2-.2.04-.4.124-.595.183a1.735,1.735,0,0,0,0,3.315l.4.15.2.072q.42.168-.042-.061l-.24-.132a1.759,1.759,0,0,0,.757.486,3.209,3.209,0,0,0,.584.195,11.381,11.381,0,0,0,2.384.169,23.087,23.087,0,0,0,4.284-.438,34.146,34.146,0,0,0,7.7-2.483,30.23,30.23,0,0,0,12.264-9.924,25.8,25.8,0,0,0,2.287-3.917,13.53,13.53,0,0,0,1.035-2.8c.088-.4.158-1.169.183-1.345.037-.257.171-1.117.227-1.563a2.29,2.29,0,0,0-4.492-.608" transform="translate(-383.132 -325.507)" fill="#75a501"/>
        <path id="Path_323" data-name="Path 323" d="M920.39,819.657a26.094,26.094,0,0,0-.373,3.634,8.9,8.9,0,0,0,.748,3.674,5.6,5.6,0,0,0,2.164,2.4,4.376,4.376,0,0,0,3.276.726,1.544,1.544,0,0,0,.365-2.792c-.152-.082-.323-.129-.474-.211.332.182.089.036.009,0-.159-.077-.307-.166-.46-.252-.2-.112.013-.013.072.069a1.23,1.23,0,0,0-.177-.152c-.133-.122-.247-.257-.369-.389-.157-.171.225.342.049.053-.042-.068-.087-.134-.128-.2-.094-.157-.178-.32-.258-.485s-.168-.33-.251-.5c-.036-.072-.064-.155-.106-.223.084.135.166.423.053.1a8.261,8.261,0,0,1-.286-1.16c-.078-.4.019.3,0,.029-.006-.1-.02-.2-.027-.306-.016-.231-.024-.462-.025-.692a22.266,22.266,0,0,1,.223-2.781,2.028,2.028,0,0,0-.6-1.45,2.108,2.108,0,0,0-1.177-.564,2.022,2.022,0,0,0-2.25,1.469" transform="translate(-382.473 -340.133)" fill="#75a501"/>
        <path id="Path_324" data-name="Path 324" d="M973.619,785.626q.521.163,1.026.369l-.6-.253c.506.231.993.513,1.478.786a11.545,11.545,0,0,1,1.379.91l-.531-.41a6.676,6.676,0,0,1,1.074,1.025l-.407-.527a4.4,4.4,0,0,1,.576.92l-.255-.6c.136.337.287.665.438.995l-.246-.583a3.121,3.121,0,0,1,.221.736l-.079-.588a5.824,5.824,0,0,0,.154.888,2.06,2.06,0,0,0,1.429,1.428,2.129,2.129,0,0,0,1.989-.526,3.118,3.118,0,0,0,.963-1.732,4.2,4.2,0,0,0-.067-2.222,5.947,5.947,0,0,0-1.894-2.778,13.294,13.294,0,0,0-2.464-1.616,14.765,14.765,0,0,0-2.865-1,2.592,2.592,0,0,0-1.909.25,2.479,2.479,0,0,0,.592,4.529" transform="translate(-404.008 -324.584)" fill="#75a501"/>
        <path id="Path_325" data-name="Path 325" d="M958.266,790.213a6.128,6.128,0,0,1,.008.638c-.006.112-.086.652-.014.209-.054.33-.129.655-.21.979-.2.784-.4,1.564-.666,2.328-.071.2-.149.4-.223.605-.027.076-.2.485-.021.065-.126.3-.258.592-.381.89.02-.049-.3.732-.159.4s-.2.444-.179.394c-.072.158-.147.314-.221.471-.183.383-.374.762-.57,1.139a39.844,39.844,0,0,1-2.217,3.8,14.278,14.278,0,0,1-.983,1.367c-.5.614-1.057,1.178-1.6,1.756a37.385,37.385,0,0,1-3.088,2.944,33.988,33.988,0,0,1-3.226,2.425,16.961,16.961,0,0,1-1.9,1.083c-.332.165-.671.321-1.012.469.094-.04.281-.119-.148.061q-.826.352-.5.21.175-.075-.189.075a35.757,35.757,0,0,1-4.249,1.327c-1.648.414-3.362.612-5.037.891a10.073,10.073,0,0,1-2.2-.011c-.9-.054-1.746-.374-2.653-.356a1.477,1.477,0,0,0-.74,2.731c1.464.855,3.458.906,5.1,1.131.778.106,1.538.3,2.331.335a15.589,15.589,0,0,0,2.908-.193A26.619,26.619,0,0,0,945.6,815.1a33.807,33.807,0,0,0,7.8-5.939c1.08-1.112,2.01-2.345,3.012-3.525.564-.664,1.1-1.351,1.629-2.043.289-.379.127-.171.064-.088.22-.289.444-.574.663-.864q.36-.477.708-.964a24.052,24.052,0,0,0,2.959-5.251,13.224,13.224,0,0,0,.779-3.073,8.833,8.833,0,0,0,.062-1.615c-.008-.169-.022-.338-.037-.507q-.048-.457-.117-.912.059.35,0-.107a2.491,2.491,0,0,0-2.428-2.427,2.46,2.46,0,0,0-2.427,2.427" transform="translate(-384.622 -327.5)" fill="#75a501"/>
        <path id="Path_326" data-name="Path 326" d="M984.23,795.109q1.075.968,2.058,2.03.491.53.953,1.084c.154.184.3.373.456.559.334.408-.32-.424.088.115a9.934,9.934,0,0,1,.773,1.107c.059.1.113.21.164.318q-.206-.5-.061-.111c.066.224.142.441.2.668a2.483,2.483,0,0,1,.137.677q-.093-.7.046.341-.059-.461-.014-.069c.035.474.057.95.12,1.421a1.933,1.933,0,0,0,1.365,1.793,1.883,1.883,0,0,0,2.1-.855,10.3,10.3,0,0,0,1-3.691,6.648,6.648,0,0,0-1.138-3.928,28.079,28.079,0,0,0-4.413-5.3,2.714,2.714,0,0,0-3.838,3.838" transform="translate(-408.844 -328.625)" fill="#75a501"/>
        <path id="Path_327" data-name="Path 327" d="M929.016,837.248a10,10,0,0,0,4.519,7.97,9.626,9.626,0,0,0,4.717,1.292,7.53,7.53,0,0,0,4.593-1.216,1.793,1.793,0,0,0,.8-1.96,1.759,1.759,0,0,0-1.674-1.274c-.55.043-1.108.093-1.661.092-.313,0-.629,0-.941-.022a2.327,2.327,0,0,1-.429-.038c.022.058.471.078,0-.012a8.126,8.126,0,0,1-.829-.205c-.137-.042-.271-.092-.408-.136-.531-.168.3.155.018.016a12.279,12.279,0,0,1-1.542-.894c-.075-.051-.466-.331-.128-.086s-.068-.07-.11-.107c-.2-.177-.393-.363-.583-.549s-.37-.384-.543-.587c-.086-.1-.167-.208-.257-.3-.207-.225.31.44.051.067-.153-.22-.3-.441-.438-.673-.081-.138-.156-.278-.229-.421-.037-.073-.212-.5-.081-.15.137.367-.048-.132-.06-.164-.044-.127-.082-.254-.116-.384a8.141,8.141,0,0,1-.174-.861,2.29,2.29,0,0,0-4.492.608" transform="translate(-386.212 -347.123)" fill="#75a501"/>
        <path id="Path_328" data-name="Path 328" d="M974.5,806.695a4.322,4.322,0,0,1-.81,2.813c-.15.236-.314.462-.479.688-.071.1-.142.2-.215.293.063-.082.217-.261-.08.1-.387.466-.784.928-1.185,1.382-1.6,1.81-3.329,3.5-5.069,5.169-1.715,1.647-3.54,3.167-5.341,4.718a33.851,33.851,0,0,1-5.586,4.105,79.95,79.95,0,0,0-7.188,4.009,1.553,1.553,0,0,0,1.19,2.823,22.752,22.752,0,0,0,7.246-2.989c2.238-1.288,4.515-2.523,6.727-3.856a44.438,44.438,0,0,0,6.395-4.847,37.281,37.281,0,0,0,5.462-5.866,12.769,12.769,0,0,0,2.462-8.539,1.813,1.813,0,0,0-1.764-1.764,1.782,1.782,0,0,0-1.764,1.764" transform="translate(-394.032 -334.629)" fill="#75a501"/>
        <path id="Path_329" data-name="Path 329" d="M993.911,817.291a7.813,7.813,0,0,1,1.129.361l-.605-.255a8.353,8.353,0,0,1,1.829,1.086l-.52-.4a6.921,6.921,0,0,1,1.157,1.17l-.4-.518a8.5,8.5,0,0,1,1,1.713l-.247-.585c.461,1.127.745,2.3,1.148,3.441a1.787,1.787,0,0,0,3.445,0c.557-2.35.55-5.123-.931-7.152a9.126,9.126,0,0,0-5.677-3.693,2.7,2.7,0,0,0-1.932.252,2.507,2.507,0,0,0,.6,4.581" transform="translate(-412.437 -337.729)" fill="#75a501"/>
        <path id="Path_330" data-name="Path 330" d="M943.375,851.732a10.57,10.57,0,0,0-.108,4.183,8.129,8.129,0,0,0,1.832,3.775c1.625,1.983,4.862,3.659,7.378,2.459a2.041,2.041,0,0,0,.41-3.186,7.781,7.781,0,0,0-1.7-1.038,10.455,10.455,0,0,1-1.391-.907l.522.4a8.453,8.453,0,0,1-1.4-1.372l.413.535a8.028,8.028,0,0,1-1.011-1.665l.264.626c-.155-.37-.315-.738-.473-1.106l.261.619a7.5,7.5,0,0,1-.482-1.773q.043.324.087.649a6.481,6.481,0,0,1,.005-1.578,2.316,2.316,0,0,0-.687-1.657,2.4,2.4,0,0,0-1.345-.644,2.33,2.33,0,0,0-2.571,1.678" transform="translate(-392.073 -353.379)" fill="#75a501"/>
        <path id="Path_331" data-name="Path 331" d="M982.9,826.238a6.732,6.732,0,0,1-.19,1.535c-.156.577-.461,1.166-.687,1.783a17.328,17.328,0,0,1-1.544,2.924,30.887,30.887,0,0,1-4.626,5.473c-3.533,3.485-7.375,6.69-12,8.573a23.5,23.5,0,0,1-4.5,1.363,17.713,17.713,0,0,1-2.053.255,11.705,11.705,0,0,0-2.6.46,1.585,1.585,0,0,0-1.138,1.495,1.624,1.624,0,0,0,1.138,1.5,6.037,6.037,0,0,0,2.327.476,18.4,18.4,0,0,0,2.443-.2,21.211,21.211,0,0,0,4.488-1.061,44.083,44.083,0,0,0,7.7-3.994c1.183-.723,2.354-1.4,3.467-2.234a36.607,36.607,0,0,0,3.418-2.871,32.411,32.411,0,0,0,5.379-6.51,19.251,19.251,0,0,0,1.929-4.216,16.232,16.232,0,0,0,.577-4.742c.006-2.277-3.444-2.264-3.528,0" transform="translate(-396.417 -342.779)" fill="#75a501"/>
        <path id="Path_332" data-name="Path 332" d="M265.239,420.685a71.457,71.457,0,0,0,12.849,13.366,82.391,82.391,0,0,0,15.639,9.631c1.371.657,2.751,1.295,4.151,1.893q1.167.5,2.344.978c.886.358,1.26.495,1.888.763.826.352,1.655.7,2.488,1.034.111.045.566.229.122.046.314.129.592.249.906.355.383.128.765.258,1.149.384q2.252.741,4.536,1.386c3.025.855,6.051,1.638,9.142,2.219,3.219.6,6.462,1.082,9.715,1.467,14.73,1.741,29.625.98,44.363-.275,15.969-1.36,31.9-3.372,47.932-3.838a178.62,178.62,0,0,1,20.442.486q2.367.2,4.727.48.562.067,1.123.137c.144.018,1.319.173.618.078q1.233.168,2.464.357,4.685.721,9.312,1.78,4.59,1.058,9.081,2.487,2.28.73,4.525,1.565,1.091.407,2.173.84.514.2,1.026.417l.408.17c-.621-.259.136.059.259.113a81.712,81.712,0,0,1,16.089,9.145q.442.324.876.655c.007,0,.575.444.243.185s.234.185.241.19q.947.747,1.867,1.524,1.763,1.491,3.426,3.1t3.232,3.344c.531.588,1.05,1.186,1.552,1.8.155.19.309.383.463.574.331.413.092.117.025.029q.452.59.882,1.2a33.448,33.448,0,0,1,2.676,4.445c.2.4.382.81.566,1.218.195.429-.22-.6.05.129.071.189.146.375.216.564a21.607,21.607,0,0,1,.758,2.517q.134.576.234,1.159c.025.15.09.682.02.085.027.234.052.467.072.7a15.971,15.971,0,0,1,0,2.579c-.014.157-.032.313-.047.47.065-.67-.022.109-.04.21-.071.393-.157.785-.261,1.171-.073.268-.155.533-.25.795a1.582,1.582,0,0,0-.119.311q.257-.6.078-.2c-.047.1-.1.2-.145.3a13.352,13.352,0,0,1-.866,1.422c-.255.38.081-.125.127-.154a2.168,2.168,0,0,0-.32.388q-.33.382-.69.736c-.2.2-.408.388-.621.571-.085.073-.174.143-.259.217-.456.395.516-.361.021-.015a16.1,16.1,0,0,1-1.567.992q-.369.2-.75.375c-.065.03-.562.28-.132.063s-.061.018-.136.046a12.326,12.326,0,0,1-1.732.507c-.242.052-1.115.088-.223.064-.262.007-.527.056-.791.07s-.522.016-.782.008q-.233-.007-.465-.025c-.245-.02-.646-.187.118.027-.487-.137-.987-.193-1.471-.364-.279-.1-.448-.324.1.053a2.313,2.313,0,0,0-.273-.129,7.083,7.083,0,0,1-.785-.458c-.616-.414.377.354-.177-.137a7.219,7.219,0,0,1-.563-.557,2.98,2.98,0,0,0-.314-.372c.4.306.252.357.112.125-.207-.344-.407-.682-.6-1.036-.312-.587.177.558-.025-.072-.04-.124-.085-.247-.124-.373-.1-.315-.155-.634-.229-.954-.151-.653.025.618-.008-.052-.008-.165-.025-.329-.031-.494a9.913,9.913,0,0,1,.019-1.095c.015-.2-.054-.772-.008-.07a2.127,2.127,0,0,1,.086-.5q.1-.5.243-.987c.1-.328.22-.644.331-.966.137-.4-.3.591,0-.005.109-.214.209-.432.323-.643.161-.3.337-.6.525-.882.094-.143.194-.281.289-.423.382-.569-.385.416.073-.092a21.351,21.351,0,0,1,1.592-1.561c.33-.3-.519.351.081-.061.189-.13.374-.264.566-.39q.478-.313.979-.59t1.021-.517c.139-.064.278-.127.419-.188-.608.262.306-.106.415-.145a20.7,20.7,0,0,1,2.223-.657q.568-.135,1.142-.242c.153-.029.307-.055.46-.081.123-.021,1.123-.148.429-.071a37.063,37.063,0,0,1,4.844-.226,32.919,32.919,0,0,1,4.668.345c-.723-.119.436.069.581.092q.543.088,1.084.188,1.186.222,2.359.507,2.235.543,4.409,1.3,1.036.36,2.058.758c.342.133.681.272,1.021.408.688.276-.519-.229.162.068.2.088.4.176.608.266a65.917,65.917,0,0,1,8.348,4.506q2.019,1.273,3.96,2.666.979.7,1.94,1.426l.366.278c.039.029.641.494.216.164q.548.426,1.09.859a153.575,153.575,0,0,1,14.383,13.339c2.189,2.259,4.429,4.495,6.533,6.833a2.169,2.169,0,0,0,3.066-3.067c-2.268-2.52-4.44-5.118-6.758-7.6-2.291-2.452-4.634-4.857-7.054-7.182s-4.9-4.527-7.485-6.637q-.49-.4-.986-.8c-.151-.119-.3-.238-.452-.356l-.518-.4q.326.247-.025-.023c-.771-.609-1.559-1.2-2.352-1.781-1.343-.984-2.712-1.937-4.117-2.83a56.522,56.522,0,0,0-17.81-7.693,46.412,46.412,0,0,0-10.085-1.138,28.32,28.32,0,0,0-10.412,1.725,16.505,16.505,0,0,0-8.339,6.676,13.55,13.55,0,0,0-1.663,9.965,10.115,10.115,0,0,0,5.532,6.823,12.3,12.3,0,0,0,8.242.508,15.95,15.95,0,0,0,7.142-4.192,14.162,14.162,0,0,0,3.887-8.446c.918-7.487-3.169-14.631-7.805-20.162-8.457-10.089-19.983-17.259-32.153-22-12.252-4.772-25.4-7.079-38.487-7.877-15.539-.947-31.121.45-46.58,1.942-16.407,1.581-32.86,3.356-49.368,2.9q-4.836-.132-9.657-.567-2.314-.213-4.621-.5l-.66-.084c-.113-.015-.858-.118-.154-.02-.366-.051-.732-.1-1.1-.155q-1.209-.175-2.413-.373c-3.136-.514-6.262-1.135-9.369-1.8-3.168-.676-6.251-1.657-9.369-2.516-1.48-.408-2.937-.85-4.374-1.389-1.5-.564-2.955-1.152-4.121-1.66a79.069,79.069,0,0,1-8.28-4.229,80.04,80.04,0,0,1-7.828-5.265c-.379-.286-.845-.65-1.423-1.118-.76-.616-1.063-.84-1.838-1.482-1.214-1.007-2.363-2.072-3.473-3.192a64.917,64.917,0,0,1-5.745-6.641,2.068,2.068,0,0,0-2.745-.719,2.021,2.021,0,0,0-.719,2.744" transform="translate(-110.144 -173.636)" fill="#c1d72d"/>
        <path id="Path_333" data-name="Path 333" d="M740.427,868.725a52.789,52.789,0,0,1-1.991,7.856c-.21.623-.429,1.243-.665,1.857-.112.291-.231.579-.349.868-.254.617.106-.241-.054.127-.082.191-.165.38-.249.57a18.847,18.847,0,0,1-.876,1.758q-.232.4-.471.8-.132.223-.267.443c-.054.089-.108.177-.163.265q-.153.232.108-.1c0-.01-.393.524-.5.709s-.2.365-.3.546q-.2.363-.411.722c-.365.63-.744,1.25-1.129,1.867-.716,1.148-1.491,2.259-2.272,3.363q-.54.765-1.1,1.513c-.011.015-.426.56-.166.221s-.16.2-.172.218q-.322.409-.651.812-1.318,1.612-2.747,3.131a60.061,60.061,0,0,1-5.949,5.526q-.323.262-.651.52c-.092.072-.655.5-.1.083l-.332.252q-.831.627-1.683,1.224-1.662,1.164-3.4,2.211a47.231,47.231,0,0,1-7.114,3.643c.685-.267-.325.13-.495.2q-.481.193-.967.376-.971.366-1.955.7-1.871.627-3.784,1.114-2.017.513-4.07.864-.411.07-.823.133l-.622.092c-.445.065.1.013.1-.014a12.7,12.7,0,0,1-2.1.226,53.161,53.161,0,0,1-8.189.071q-.943-.065-1.884-.161-.522-.053-1.043-.117c-.136-.017-.282-.027-.417-.053.739.141-.047-.008-.206-.031q-2.027-.3-4.03-.74a58.749,58.749,0,0,1-7.865-2.329q-.889-.331-1.766-.692c-.021-.008-.66-.277-.256-.1s-.233-.1-.254-.11q-.483-.21-.962-.43-1.918-.875-3.772-1.882a59.934,59.934,0,0,1-6.847-4.345c-.255-.187-.507-.377-.759-.567-.55-.413.311.248-.029-.02-.138-.109-.276-.216-.414-.325q-.824-.654-1.625-1.338-1.519-1.3-2.947-2.7-1.5-1.471-2.888-3.052-.623-.711-1.222-1.442c-.222-.271-.439-.546-.658-.819-.079-.1-.317-.411.042.058q-.191-.25-.381-.5a52.76,52.76,0,0,1-4.4-6.912c-.32-.6-.629-1.209-.921-1.824-.155-.325-.3-.653-.449-.982-.314-.708.11.316-.051-.127-.084-.228-.179-.453-.264-.681a23.047,23.047,0,0,1-.7-2.2c-.092-.35-.175-.7-.247-1.057-.04-.2-.073-.392-.11-.588-.144-.768.041.562-.031-.211a14,14,0,0,1-.058-2.095q.019-.344.06-.686c-.013.106-.1.561.005.051a11.918,11.918,0,0,1,.312-1.215c.06-.182.124-.362.2-.539-.043.107-.235.469.007.022.169-.311.331-.622.527-.918.024-.036.2-.289.2-.288.047.041-.43.487-.053.079.213-.231.419-.463.651-.676.083-.077.171-.147.254-.224.418-.387-.411.248-.091.065.217-.124.416-.288.632-.417.243-.145.494-.266.744-.4.412-.214-.133.075-.19.073a1.819,1.819,0,0,0,.478-.179,12.613,12.613,0,0,1,1.667-.422c.311-.062.134.114-.211.023a1.675,1.675,0,0,0,.349-.037q.528-.047,1.059-.048.4,0,.8.025a2.869,2.869,0,0,0,.8.075c-.32.134-.529-.092-.105,0,.147.03.3.054.443.085q.443.093.879.216t.864.275c.114.041.226.086.34.127.573.2-.414-.221-.07-.032.53.29,1.079.526,1.593.852.228.144.447.3.669.456.49.341-.321-.321-.06-.043.1.106.231.194.341.291a13.64,13.64,0,0,1,1.38,1.465c.326.391.038.051-.02-.029.13.18.261.358.385.542q.248.365.476.744.285.473.537.963c.067.131.133.263.2.4.033.068.373.821.225.478-.169-.391.109.28.112.289q.08.207.154.417c.126.349.24.7.346,1.059.214.718.39,1.448.532,2.184q.1.5.174,1c.024.156.081.677.012.06.017.151.036.3.053.453.082.758.134,1.52.161,2.283a38.5,38.5,0,0,1-.123,4.564q-.08.951-.2,1.9c0,.036-.1.714-.032.254s-.033.218-.039.253q-.076.514-.164,1.026a52.547,52.547,0,0,1-1.967,7.833q-.311.933-.657,1.855-.163.437-.334.871c-.064.161-.127.321-.192.481-.03.074-.294.72-.139.343.168-.41-.1.22-.106.244l-.166.38q-.21.474-.428.944-.437.94-.909,1.865a57.986,57.986,0,0,1-4.175,6.934q-.537.766-1.1,1.515c-.1.138-.21.276-.314.415-.257.344.406-.512-.016.021-.216.272-.43.544-.648.813q-1.31,1.616-2.732,3.137a59.237,59.237,0,0,1-5.843,5.464q-.363.3-.73.586c-.017.013-.557.432-.214.169s-.2.151-.218.164q-.829.626-1.679,1.222-1.657,1.16-3.393,2.2t-3.539,1.952q-.832.42-1.679.812-.471.217-.944.426l-.38.165c-.576.252.425-.17-.109.046a54.778,54.778,0,0,1-7.686,2.495q-2.026.486-4.088.8c-.275.042-.549.088-.825.12.776-.089-.323.035-.512.057q-1.034.115-2.072.189a53.3,53.3,0,0,1-8.1-.046q-.932-.076-1.861-.183-.259-.03-.516-.062c-.318-.04-.4-.223.006,0a3.71,3.71,0,0,0-1.029-.152q-2.055-.323-4.084-.8a58.6,58.6,0,0,1-7.762-2.389q-.389-.15-.776-.3c-.194-.078-.386-.158-.58-.237-.14-.057-.471-.127.077.034a14.2,14.2,0,0,1-1.9-.851q-1.843-.862-3.623-1.85a58.936,58.936,0,0,1-6.818-4.418l-.415-.314c.07.053.45.354.06.046-.273-.215-.545-.431-.815-.649q-.807-.656-1.592-1.341-1.487-1.3-2.881-2.7c-1.9-1.909-3.7-3.932-5.406-6.01q-.164-.2-.326-.4c-.079-.1-.384-.451-.068-.062-.175-.216-.339-.444-.508-.665.3.389.013.013-.061-.084-.4-.528-.783-1.066-1.166-1.606a28.6,28.6,0,0,1-2.147-3.332,2.068,2.068,0,0,0-3.571,2.086c-.218-.424.2.451.257.575s.116.254.175.381q.22.474.451.944.482.983,1.008,1.944,1.023,1.865,2.2,3.641.286.431.578.857c.078.113.156.227.235.339.11.154.774,1.033.453.6l-.082-.1.544.7q.127.165.256.329.386.491.784.973a41.353,41.353,0,0,0,2.82,3.053,60.7,60.7,0,0,0,13.914,10.293,59.542,59.542,0,0,0,33.515,7.131A57.355,57.355,0,0,0,638.9,928.131,60.678,60.678,0,0,0,657.6,899.519a46.264,46.264,0,0,0,2-17.79c-.672-6.225-3.237-12.888-9.088-15.961-4.982-2.616-11.532-2.672-15.9,1.183-5.648,4.98-3.691,13.323-.821,19.2A58.966,58.966,0,0,0,657.72,911.07a60.1,60.1,0,0,0,33.708,7.893,58.456,58.456,0,0,0,32.166-13.031,62.425,62.425,0,0,0,11.815-12.641c.8-1.132,1.534-2.308,2.235-3.5a27.669,27.669,0,0,0,2.137-4.093c.24-.637.487-1.276.725-1.915.052-.14.366-1.032.2-.605.168-.444.367-.876.546-1.316.546-1.343,1.048-2.709,1.5-4.085a52.731,52.731,0,0,0,1.947-7.867,2.274,2.274,0,0,0-1.55-2.73,2.247,2.247,0,0,0-2.73,1.55" transform="translate(-228.567 -359.149)" fill="#c1d72d"/>
        <path id="Path_334" data-name="Path 334" d="M283.112,81.084c-1.17-3.919-2.518-7.8-4.067-11.586-.22-.537-.445-1.072-.671-1.606-.06-.14-.119-.28-.178-.42l-.058-.139c.144.347-.244-.581-.206-.494-.061-.139-.127-.276-.189-.415-.419-.938-.838-1.874-1.277-2.8-.876-1.855-1.842-3.663-2.853-5.448A116.846,116.846,0,0,0,259.107,38a114.931,114.931,0,0,0-8.529-8.857,117.239,117.239,0,0,0-9.837-7.947A110.716,110.716,0,0,0,217.556,8.458a113.3,113.3,0,0,0-25.934-7.113A115.255,115.255,0,0,0,164.39.416,95.846,95.846,0,0,0,138.074,6.18c-8.312,3.232-16.228,7.938-22.183,14.673A42.379,42.379,0,0,0,105.2,44.369c-.841,8.07,1.318,17.4,7.686,22.893a16.384,16.384,0,0,0,11.255,4.176,19.023,19.023,0,0,0,10.7-3.908,21.346,21.346,0,0,0,7.262-9.659,22.944,22.944,0,0,0,.562-12.693c-1.826-8.291-7.411-15.471-14.477-20.02A39.652,39.652,0,0,0,106.207,19.1a37.59,37.59,0,0,0-21.652,7.076c-7.249,5.378-12.385,12.941-16.433,20.909a109.242,109.242,0,0,0-8.888,24.142A117.774,117.774,0,0,0,56.112,96.9a119.508,119.508,0,0,0,.521,12.6c.1,1.057.222,2.112.355,3.165q.045.351.091.7c.039.292.077.585.117.877,0,.018.059.4.022.145-.059-.4.089.646.076.553.016.117.032.233.05.35.046.31.1.62.145.93q.5,3.136,1.157,6.246a111.881,111.881,0,0,0,8.074,24.243c1.734,3.708,3.751,7.235,5.84,10.751,1.17,1.969,4.25.18,3.075-1.8a95.422,95.422,0,0,1-5.447-10.98A115.328,115.328,0,0,1,66.1,133.474a113.435,113.435,0,0,1-2.95-11.881c-.194-1-.364-2.01-.544-3.016.023.129.057.465-.027-.157-.025-.182-.051-.363-.078-.545-.034-.234-.07-.467-.1-.7s-.067-.467-.1-.7c-.068-.485-.025-.174-.011-.07q-.031-.233-.061-.466c-.261-2.023-.486-4.051-.658-6.085a116.2,116.2,0,0,1,.466-24.468c.022-.174.093-.7.03-.241q.047-.35.1-.7.117-.816.244-1.63.237-1.511.514-3.015.555-3.009,1.263-5.987a115.9,115.9,0,0,1,3.4-11.628Q68.6,59.3,69.774,56.468c.03-.073.222-.532.089-.216-.123.292.029-.07.046-.107q.138-.325.279-.649.3-.7.62-1.4.63-1.4,1.3-2.773a85.268,85.268,0,0,1,6.217-10.866q.444-.649.906-1.287.213-.294.429-.585l.219-.29c.029-.039.33-.432.155-.206s.067-.085.085-.108l.3-.378c.151-.188.3-.376.457-.561q.5-.6,1.018-1.191a41.291,41.291,0,0,1,4.469-4.368c.216-.18.435-.356.653-.533a1.519,1.519,0,0,1,.224-.175c.368-.275.739-.546,1.118-.805q1.105-.755,2.272-1.414t2.374-1.219q.279-.13.561-.254c.081-.036.487-.213.153-.07-.313.135.008,0,.061-.024.413-.166.826-.328,1.244-.481a35.945,35.945,0,0,1,5.137-1.448q.656-.133,1.315-.243.3-.05.611-.1l.306-.044c.387-.057-.484.056-.094.014.889-.093,1.776-.187,2.67-.234a38.27,38.27,0,0,1,5.361.1,10.812,10.812,0,0,1,1.334.144c-.46-.1-.155-.022.112.018q.357.053.713.113,1.321.222,2.626.536a36.884,36.884,0,0,1,5.093,1.627c.1.039.19.079.286.116-.019-.008-.443-.192-.164-.07.219.1.439.191.657.29q.608.275,1.2.574,1.193.6,2.338,1.284t2.23,1.465q.251.18.5.364c.082.061.164.124.246.185-.017-.012-.372-.294-.136-.105.375.3.748.6,1.112.916a30.886,30.886,0,0,1,4,4.15c.072.09.144.181.214.272-.025-.032-.248-.337-.072-.088.133.188.275.371.408.559q.469.656.9,1.338a29.733,29.733,0,0,1,1.481,2.6q.309.615.59,1.245l.138.315c-.214-.49-.049-.115-.01-.013.1.248.195.5.287.746a25.087,25.087,0,0,1,.859,2.824q.157.66.275,1.327c.047.259.084.519.127.779-.091-.556,0,.061.025.278a22.421,22.421,0,0,1,.1,2.911q-.02.673-.085,1.343c-.015.16-.137.93-.024.276-.045.259-.082.52-.131.779a17.442,17.442,0,0,1-.715,2.666c-.067.186-.142.37-.211.556-.108.29.074-.191.085-.2-.044.026-.1.223-.122.271q-.29.632-.631,1.237-.293.521-.62,1.02-.164.25-.336.494c-.077.109-.154.217-.233.324-.043.058-.326.4-.088.119s-.161.19-.224.265q-.193.229-.393.451-.466.52-.971,1-.431.415-.889.8c-.153.129-.308.252-.462.378-.3.242.4-.283.082-.066-.109.075-.213.157-.321.233a18.236,18.236,0,0,1-2.19,1.333q-.262.135-.528.261c-.091.043-.653.3-.3.141s-.209.081-.3.117q-.363.138-.733.258c-.8.261-1.614.394-2.434.581-.32.072.269-.046.254-.033a.924.924,0,0,1-.285.03c-.19.016-.381.034-.572.045q-.667.039-1.337.012c-.191-.008-.382-.02-.573-.036-.111-.009-.714-.107-.3-.026l-.3-.059q-.38-.072-.755-.168-.569-.145-1.122-.342c-.093-.033-.669-.258-.345-.125s-.008-.005-.061-.03c-.16-.075-.318-.15-.476-.229q-.563-.284-1.1-.618c-.178-.11-.352-.225-.526-.343-.085-.059-.171-.119-.257-.179-.065-.047-.526-.415-.223-.163.266.222-.213-.185-.288-.249q-.238-.205-.467-.42-.538-.5-1.029-1.051c-.141-.157-.279-.317-.414-.479-.064-.077-.45-.571-.248-.3s-.171-.24-.228-.321q-.246-.348-.478-.707a21.525,21.525,0,0,1-1.354-2.445c-.093-.2-.178-.394-.269-.591-.133-.283.055.133.064.157-.04-.1-.082-.2-.122-.3q-.259-.656-.481-1.325a25.062,25.062,0,0,1-.729-2.715q-.144-.686-.249-1.379c-.018-.114-.033-.228-.051-.342,0,.03.056.481.023.158-.026-.266-.061-.532-.086-.8-.093-.986-.137-1.978-.134-2.969s.055-1.976.15-2.959c.026-.265.061-.528.087-.793.032-.323-.02.134-.025.164.016-.113.032-.226.049-.339q.11-.734.252-1.462a36.168,36.168,0,0,1,1.623-5.728q.141-.378.29-.752l.129-.321c.016-.041.165-.4.039-.1s.025-.056.043-.1c.047-.106.093-.212.14-.317q.165-.37.337-.736.642-1.362,1.382-2.674t1.579-2.573q.418-.629.858-1.244.2-.283.411-.564c.1-.138.522-.684.2-.278a43.822,43.822,0,0,1,4.029-4.484q1.108-1.071,2.289-2.062.606-.51,1.227-1c.1-.075.191-.151.287-.225-.036.028-.324.242-.073.058.229-.167.453-.341.682-.508a54.448,54.448,0,0,1,5.306-3.422,61.9,61.9,0,0,1,5.665-2.83q.336-.147.673-.291c-.479.2.215-.086.361-.146q.737-.3,1.48-.583,1.49-.567,3-1.069A89.762,89.762,0,0,1,155.357,7.11q1.594-.287,3.2-.528c.247-.037.494-.073.741-.109l.371-.052c.078-.011.6-.08.254-.035-.318.041.093-.012.13-.016l.372-.047q.433-.054.867-.105,3.222-.377,6.462-.562a111.924,111.924,0,0,1,12.969.013q3.238.191,6.463.567c.5.058.991.12,1.486.183.1.013.54.074.013,0l.37.051q.433.06.865.124,1.6.238,3.2.521A113.726,113.726,0,0,1,205.743,10.1q3.11.926,6.163,2.03,1.525.552,3.034,1.148.7.275,1.388.559c.231.095.461.191.692.286-.452-.186-.05-.022.034.015l.459.2A109.384,109.384,0,0,1,229.1,20.17a110.49,110.49,0,0,1,10.077,6.619q.55.4,1.095.817l.543.413c.034.026.335.258.085.065-.287-.221.21.164.264.206q1.166.912,2.307,1.856c1.524,1.259,2.978,2.59,4.463,3.892a91.153,91.153,0,0,1,8.336,8.245q1.956,2.223,3.795,4.547c.165.208.328.417.493.627.282.36-.109-.145.169.218q.451.588.894,1.181.886,1.187,1.741,2.4a124.475,124.475,0,0,1,11.7,20.545c.833,1.843,1.325,3.015,2.067,4.923.7,1.8,1.313,3.646,1.892,5.494a2.124,2.124,0,1,0,4.1-1.129" transform="translate(-23.323 0.001)" fill="#c1d72d"/>
        <path id="Path_335" data-name="Path 335" d="M281.681,242.047A14.023,14.023,0,1,1,295.7,256.069a14.022,14.022,0,0,1-14.023-14.023" transform="translate(-117.102 -94.794)" fill="#75a501"/>
        <path id="Path_336" data-name="Path 336" d="M359.489,242.047a14.023,14.023,0,1,1,14.023,14.023,14.022,14.022,0,0,1-14.023-14.023" transform="translate(-149.448 -94.794)" fill="#75a501"/>
        <path id="Path_337" data-name="Path 337" d="M437.3,242.047a14.023,14.023,0,1,1,14.023,14.023A14.023,14.023,0,0,1,437.3,242.047" transform="translate(-181.794 -94.794)" fill="#75a501"/>
        <path id="Path_338" data-name="Path 338" d="M525.146,609.217H449.533a39.36,39.36,0,0,0-38.769,32.6c-4.948,5.115-14.763,13.015-24.751,8.2,9.075,16.539,22.5,24.069,31.833,21.893a39.3,39.3,0,0,0,31.688,16.019h75.612a39.358,39.358,0,0,0,0-78.717" transform="translate(-160.475 -253.266)" fill="#75a501"/>
        <path id="Path_339" data-name="Path 339" d="M471.99,669.334a12.033,12.033,0,1,1,12.033,12.033,12.033,12.033,0,0,1-12.033-12.033" transform="translate(-196.218 -273.255)" fill="#eaf4b5"/>
        <path id="Path_340" data-name="Path 340" d="M538.758,669.334a12.033,12.033,0,1,1,12.033,12.033,12.033,12.033,0,0,1-12.033-12.033" transform="translate(-223.975 -273.255)" fill="#eaf4b5"/>
        <path id="Path_341" data-name="Path 341" d="M605.526,669.334a12.033,12.033,0,1,1,12.033,12.033,12.033,12.033,0,0,1-12.033-12.033" transform="translate(-251.732 -273.255)" fill="#eaf4b5"/>
        <path id="Path_342" data-name="Path 342" d="M19.3,838.091c1.761-2.11,3.573-4.174,5.375-6.249s3.726-3.963,5.615-5.93c1.874-1.95,3.811-3.848,5.828-5.65q1.521-1.359,3.115-2.635c.151-.121.3-.24.455-.36.083-.065.413-.314,0,0,.246-.186.492-.374.74-.558q.835-.622,1.691-1.213a50.749,50.749,0,0,1,6.862-4.009q.887-.426,1.791-.813c-.521.224.24-.095.418-.165q.542-.215,1.089-.415c1.372-.5,2.77-.93,4.185-1.294,1.478-.38,2.973-.688,4.478-.937q.581-.1,1.163-.181l.518-.074c-.116.016-.5.063.051,0,.781-.1,1.563-.183,2.346-.256,3.069-.287,6.152-.4,9.234-.458,6.11-.114,12.236,0,18.329-.56a93.682,93.682,0,0,0,9.542-1.471c.334-.065.668-.131,1.006-.175-.566.075.4-.012.526-.016.154,0,1.077.075.5-.021.161.027.321.06.479.1s.672.289.27.071a6.248,6.248,0,0,1,.832.519c-.382-.293-.044-.023.02.04.147.146.306.279.455.422.528.505,1.039,1.028,1.566,1.535a86.253,86.253,0,0,0,28.611,18.438,82.263,82.263,0,0,0,16.106,4.4c5.225.854,11.308,1.615,16.2-.962a14.433,14.433,0,0,0,3.081-2.317,1.543,1.543,0,0,0,0-2.152,1.56,1.56,0,0,0-2.152,0,12.472,12.472,0,0,1-6.458,2.1,23.823,23.823,0,0,1-3.82-.039,30.388,30.388,0,0,1-3.561-.541,85.6,85.6,0,0,1-15.974-4.79c.449.186-.332-.143-.479-.206l-.88-.381q-.991-.43-1.972-.884c-1.274-.59-2.55-1.173-3.808-1.8q-3.719-1.848-7.252-4.041-3.579-2.223-6.931-4.782c-.417-.318-.1-.08-.018-.013l-.379-.3q-.379-.3-.753-.6-.844-.678-1.67-1.379-1.653-1.4-3.233-2.884c-1-.943-1.939-1.978-2.993-2.866a8.531,8.531,0,0,0-5.044-2.134,18.154,18.154,0,0,0-4.97.629q-1.034.217-2.074.4-.521.09-1.042.171-.261.041-.522.079c-.034.005-.882.12-.318.047a156.945,156.945,0,0,1-18.425.837,108.128,108.128,0,0,0-18.72,1.411,48.6,48.6,0,0,0-16.068,6.105A68.937,68.937,0,0,0,29.244,819.2c-1.936,1.927-3.75,3.937-5.489,6.042-1.843,2.23-3.755,4.41-5.5,6.719-.094.124-.186.251-.282.374.064-.082.233-.292-.065.075q-.3.366-.592.733-.663.823-1.325,1.648a2.4,2.4,0,0,0,0,3.306,2.365,2.365,0,0,0,3.306,0" transform="translate(-6.372 -332.242)" fill="#75a501"/>
        <path id="Path_343" data-name="Path 343" d="M297.279,829.953a30.029,30.029,0,0,0,11.513-10.075l-3.079,1.253c8.868,2.358,17.777,4.574,26.665,6.855,4.055,1.041,8.128,2.033,12.135,3.249,1.975.6,3.933,1.257,5.853,2.014.24.094.477.192.716.287.785.313-.482-.217.292.121.392.172.784.344,1.172.523q1.514.7,2.976,1.505a41.043,41.043,0,0,1,4.93,3.226c-.446-.339.22.175.251.2q.3.239.6.483.542.446,1.073.907,1.209,1.05,2.359,2.162c2.917,2.809,5.59,5.857,8.266,8.894q5.861,6.65,11.632,13.378,2.5,2.916,5,5.822,1.638,1.89,3.285,3.774a36.082,36.082,0,0,0,4.769,4.868,2.424,2.424,0,0,0,3.121.186,2.376,2.376,0,0,0,.612-3.066c-1.943-3.256-4.737-6-7.217-8.856q-2.377-2.736-4.732-5.49-5.327-6.217-10.724-12.372c-5.51-6.269-10.972-12.8-18.034-17.394-7.043-4.585-15.321-6.739-23.37-8.8-10.058-2.58-20.1-5.237-30.18-7.729a2.8,2.8,0,0,0-3.079,1.253c-.624,1-1.319,1.954-2.009,2.912.46-.639-.651.817-.166.219-.287.355-.572.708-.854,1.067.3-.382-.125.155-.188.23-.2.244-.418.471-.643.695a30.682,30.682,0,0,1-2.439,2.221q-.316.25-.105.082-.189.143-.382.283c-.192.138-.389.27-.586.4-.526.349-1.065.677-1.611.991a2.158,2.158,0,1,0,2.178,3.726" transform="translate(-122.241 -339.143)" fill="#75a501"/>
        <path id="Path_344" data-name="Path 344" d="M254.945,567.819A19.28,19.28,0,0,0,261,569.155c2,.121,4.409.079,5.829-1.551a5.349,5.349,0,0,0,.614-5.648,20.416,20.416,0,0,0-2.283-4.186,41.673,41.673,0,0,0-14.177-11.651,33.348,33.348,0,0,0-10.138-3.451,86.882,86.882,0,0,0-9.735-.834c-5.653-.2-11.588.141-16.919,2.185a24.33,24.33,0,0,0-8.252,5.015,20.935,20.935,0,0,0-3.169,3.8c-.208.33-.412.663-.6,1-.1.175-.185.353-.269.535-.1.218-.489,1.118-.248.556-.4.94-.754,1.9-1.083,2.867a1.984,1.984,0,0,0,1.155,2.353,2.016,2.016,0,0,0,2.49-.816q.294-.445.6-.878c.391-.549-.144.176.1-.129.1-.131.209-.259.313-.389.167-.208.323-.427.494-.63-.349.414.086-.075.133-.133.206-.251.406-.508.611-.76a31.25,31.25,0,0,1,2.518-2.794c.436-.418.894-.812,1.357-1.2.17-.143.488-.525.691-.564-.029.006-.533.394-.13.106.144-.1.286-.209.431-.311a22.009,22.009,0,0,1,3.107-1.819c.238-.115.48-.221.72-.332.569-.263-.588.229,0,0,.11-.043.219-.088.329-.131q.872-.341,1.767-.618a31.016,31.016,0,0,1,3.541-.868q.413-.076.827-.143c.212-.034,1.184-.269.389-.066a12.626,12.626,0,0,1,2-.214c1.311-.11,2.626-.164,3.942-.177,2.781-.027,5.561.129,8.329.375q1.025.091,2.048.2.55.057,1.1.118c.746.082-.381-.073.076.01.267.049.536.086.8.136a28.816,28.816,0,0,1,4.5,1.233q.5.178.986.373.272.108.542.22c-.493-.2-.107-.045-.009,0,.779.355,1.552.715,2.311,1.111a43.317,43.317,0,0,1,3.933,2.333c.553.368,1.1.751,1.635,1.139.293.21.585.42.875.634.143.105.284.212.425.319.555.421-.213-.178.2.157,1.021.826,2.04,1.651,3.008,2.537a32.76,32.76,0,0,1,2.563,2.594q.188.217.367.441c-.265-.335.123.178.174.252.258.369.5.747.741,1.129s.463.733.7,1.1c.094.147.186.3.28.444a2.375,2.375,0,0,1,.136.248q-.145-.356-.019.006c.021.126.064.243.081.372-.07-.512-.065.264.009-.2l-.042.18q-.115.348.014,0l-.091.157q.228-.273-.022-.01c-.065-.07.138-.081.155-.089a3.883,3.883,0,0,1-.664.164c-.267.035-.883.039-1.284.037a15.722,15.722,0,0,1-5.768-1.161,2.077,2.077,0,0,0-2.536,1.44,2.113,2.113,0,0,0,1.44,2.536" transform="translate(-83.346 -225.233)" fill="#75a501"/>
        <path id="Path_345" data-name="Path 345" d="M184.426,546.707a34.733,34.733,0,0,0-8.74-.7,26.8,26.8,0,0,0-8.073,1.827,44.106,44.106,0,0,0-14,8.974,64.308,64.308,0,0,0-9.851,11.719,92.846,92.846,0,0,0-5.694,9.563,57.02,57.02,0,0,0-4.947,35.324c1.929,10.037,7.063,20.2,15.645,26.115a19.01,19.01,0,0,0,11.354,3.648c4.245-.192,8.7-2.154,11.094-5.788.256-.387-.32.386-.019.015.086-.106.171-.211.255-.318.223-.283.443-.568.657-.858.336-.456.65-.928.949-1.41a1.957,1.957,0,0,0-3.07-2.369c-.329.4-.669.8-1.027,1.177q-.258.274-.528.538c-.079.078-.17.151-.243.234-.244.281.4-.263-.074.072-.741.524-1.478,1.072-2.256,1.543-.373.226-.758.429-1.146.629-.173.088-.346.176-.522.259a2.832,2.832,0,0,0-.316.143c.66-.422.349-.143.091-.044a13.191,13.191,0,0,1-2.363.665c-.265.049-.926.068.054.006-.219.014-.438.05-.657.067q-.606.046-1.214.033c-.41-.008-.816-.041-1.223-.079-.666-.062.753.123,0,0-.242-.04-.486-.076-.727-.124a16.111,16.111,0,0,1-2.46-.69c-.206-.075-.407-.159-.612-.237-.319-.122.7.312.267.113-.11-.051-.222-.1-.332-.149q-.646-.3-1.268-.639A22.616,22.616,0,0,1,151,634.407c-.107-.078-.212-.159-.319-.237-.2-.143-.124-.242.238.186a4.983,4.983,0,0,0-.63-.507q-.582-.483-1.136-1a30.591,30.591,0,0,1-2.283-2.363q-.486-.559-.947-1.139c-.114-.144-.422-.595.058.08-.088-.123-.183-.241-.274-.362q-.274-.368-.539-.743a39.91,39.91,0,0,1-3.608-6.26q-.177-.381-.346-.767a4.351,4.351,0,0,0-.2-.466c.377.639.092.217.013.024q-.359-.879-.682-1.773-.692-1.922-1.215-3.9-.518-1.959-.872-3.957-.082-.464-.155-.928c-.033-.206-.206-1.434-.093-.59q-.049-.363-.1-.726.075.567.034.251c-.018-.159-.041-.318-.06-.477q-.069-.577-.126-1.155a52.925,52.925,0,0,1-.091-9.063q.087-1.158.223-2.311c.025-.212.053-.424.079-.636-.012.092-.079.556-.007.056s.148-1,.232-1.5c.271-1.611.578-3.218.958-4.807.4-1.654.886-3.289,1.436-4.9.285-.832.584-1.659.906-2.477.04-.1.082-.2.123-.307.227-.573-.242.544-.047.11a57.98,57.98,0,0,1,4.609-8.24c.6-.907,1.23-1.788,1.883-2.656.148-.2.3-.393.448-.59.327-.429-.355.452-.021.027l.231-.3q.543-.69,1.1-1.367c1.533-1.859,3.124-3.674,4.817-5.389a61.475,61.475,0,0,1,5.575-5.08,1.508,1.508,0,0,0,.266-.209l-.274.212.269-.206q.337-.255.678-.5.82-.6,1.666-1.159c1.034-.684,2.1-1.312,3.186-1.911q.812-.447,1.646-.851.455-.22.915-.427l.308-.136c.428-.193-.553.223.144-.06a30.31,30.31,0,0,1,3.515-1.187c.6-.162,1.2-.312,1.811-.441.278-.058.556-.113.834-.163.035-.006.5-.1.5-.086q-.84.106.338-.049c.11-.027.222-.048.334-.064s.226-.034.338-.053c.593-.1-.58.064.025-.005.289-.033.577-.067.866-.093.7-.064,1.4-.1,2.106-.1a18.72,18.72,0,0,1,1.966.081c.15.015,1.067.131.492.05q.552.078,1.1.176a2.22,2.22,0,1,0,1.18-4.28" transform="translate(-54.955 -226.969)" fill="#75a501"/>
        <path id="Path_346" data-name="Path 346" d="M837.481,139.148a18.8,18.8,0,0,1,1.895-1.031c.13-.061.261-.118.392-.178-.474.216-.036.016.088-.033q.548-.214,1.111-.39.92-.288,1.866-.484c.351-.073.7-.133,1.058-.19.5-.08.03,0-.061.008.249-.027.5-.055.747-.076a23.654,23.654,0,0,1,4.2.034c.18.018.359.041.539.059.442.045-.666-.117.029.007.32.057.642.108.961.172a22.432,22.432,0,0,1,2.209.562c.623.193,1.235.416,1.843.653.656.257-.352-.171.045.02.163.078.33.148.493.226q.491.232.969.488a21.144,21.144,0,0,1,1.856,1.12c.269.182.529.377.794.566.355.252-.491-.416.044.037.168.142.34.279.507.424a25.5,25.5,0,0,1,2.954,3.079c.28.338-.378-.521.038.052.085.119.172.235.258.354q.318.445.616.9.6.919,1.11,1.89.257.485.493.981c.063.132.125.265.186.4,0,.009.3.668.127.276s.109.273.113.283c.054.137.107.273.159.411q.233.619.436,1.249a27.287,27.287,0,0,1,.973,4.079c.019.12.164.85.027.147.027.141.036.3.051.439q.06.549.1,1.1.076,1.1.064,2.209-.013,1.049-.107,2.094-.045.494-.108.987c.069-.527-.011.037-.032.167q-.061.382-.132.762c-1.241,6.7-4.522,12.771-6.823,19.13-3.867,10.689-4.3,23.506,1.989,33.383.326.513.672,1.014,1.019,1.513.634.91.892,1.232,1.51,1.991a25.658,25.658,0,0,0,2.757,2.877,44.988,44.988,0,0,0,8.521,5.665c5.575,3.072,11.376,6.348,16.23,10.234a42.286,42.286,0,0,1,11.8,13.857c2.556,5.069,3.84,11.095,2.612,16.775a21.209,21.209,0,0,1-1.235,3.923,1.583,1.583,0,0,0,.55,2.1,1.547,1.547,0,0,0,2.1-.55c2.817-5.74,2.954-12.4,1.337-18.511a37.174,37.174,0,0,0-9.653-16.5,77.286,77.286,0,0,0-16.06-11.914c-2.947-1.732-6-3.3-8.906-5.088a25.026,25.026,0,0,1-6.717-5.778c.237.3.019.026-.023-.032-.121-.162-.241-.325-.359-.49q-.264-.371-.514-.751A19.117,19.117,0,0,1,865.473,213q-.23-.452-.444-.913c-.057-.123-.113-.247-.168-.371-.033-.074-.287-.7-.076-.17-.249-.628-.483-1.261-.691-1.9a39.676,39.676,0,0,1-1.065-3.964q-.216-1.017-.37-2.045c-.02-.137-.046-.276-.06-.414.115,1.121-.139-1.065-.081-.622-.02-.152-.119-.507.015.108a6.175,6.175,0,0,1-.074-.624,40.362,40.362,0,0,1,0-8.54c.033-.317.071-.633.109-.949.086-.72-.1.6.017-.112.022-.139.042-.279.063-.419q.172-1.1.4-2.186a42.867,42.867,0,0,1,1.091-4.164c2.079-6.561,5.5-12.644,7.137-19.355a30.533,30.533,0,0,0-1.233-18.959A25.638,25.638,0,0,0,857.47,133.68a23.684,23.684,0,0,0-18.268-.954,21.961,21.961,0,0,0-4.234,2.124,2.49,2.49,0,1,0,2.513,4.3" transform="translate(-346.601 -54.593)" fill="#75a501"/>
        <path id="Path_347" data-name="Path 347" d="M759.082,122.013a47.85,47.85,0,0,0-76.778-3.445,57.978,57.978,0,0,0-6.573,10.325c-1.93,3.778-3.667,7.652-5.745,11.354-2.055,3.664-4.347,7.191-6.36,10.879a52.483,52.483,0,0,0-4.929,12.23,102.907,102.907,0,0,0-2.179,13.144c-.547,4.59-1.07,9.182-1.483,13.786-.414,4.622-.71,9.257-.783,13.9-.069,4.366.054,8.732.117,13.1.061,4.262.068,8.529-.223,12.784q-.11,1.616-.282,3.227c-.053.491-.115.981-.174,1.472-.062.512.1-.648-.029.2-.053.355-.1.71-.161,1.064a55.222,55.222,0,0,1-1.379,6.316c-1.146,4.05-2.907,7.881-4.188,11.884a43.7,43.7,0,0,0-1.545,5.99,22.157,22.157,0,0,0-.362,3.1,25.368,25.368,0,0,0,.01,3.2,18.073,18.073,0,0,0,1.43,5.936,1.569,1.569,0,0,0,1.978.648,1.6,1.6,0,0,0,.917-1.868,19.223,19.223,0,0,1-.258-5.7c-.006.066.089-.739.048-.42a4.737,4.737,0,0,0,.086-.481c.1-.483.2-.965.327-1.443.251-.977.515-1.947.82-2.91,1.236-3.911,2.941-7.662,4.368-11.506a59.5,59.5,0,0,0,3.12-11.818,96.305,96.305,0,0,0,1-13.129c.118-8.583-.378-17.153.082-25.734.244-4.539.657-9.068,1.14-13.588q.355-3.319.749-6.633c.118-1,.236-2.006.361-3.008.068-.545.136-1.089.21-1.632-.076.564.047-.33.051-.358q.067-.475.138-.95a57.724,57.724,0,0,1,3.023-12.307c.095-.244.193-.487.29-.73.318-.8-.219.475.13-.308.178-.4.354-.8.539-1.191.443-.948.916-1.881,1.408-2.8.987-1.852,2.053-3.66,3.13-5.46,2.078-3.471,4.138-6.934,5.943-10.557,1.853-3.718,3.573-7.51,5.689-11.091a46.533,46.533,0,0,1,3.1-4.617c-.4.518.064-.076.123-.15q.209-.262.424-.521.428-.518.872-1.022.887-1.009,1.834-1.963a45.455,45.455,0,0,1,3.829-3.441c.175-.14.351-.279.528-.417-.515.4.082-.057.157-.114q.449-.336.906-.66,1.1-.779,2.237-1.494a46.937,46.937,0,0,1,4.713-2.591q.506-.241,1.017-.47c.2-.092.41-.181.616-.271.689-.3-.53.206.171-.07.834-.33,1.668-.654,2.517-.945a45.838,45.838,0,0,1,4.958-1.391q1.2-.265,2.418-.463.331-.054.664-.1c.115-.017.866-.108.157-.023.519-.062,1.038-.122,1.558-.169a42.551,42.551,0,0,1,5.149-.152q1.232.039,2.46.147.669.06,1.336.14c.016,0,.745.1.3.036-.4-.055.445.068.521.079a45.719,45.719,0,0,1,10.12,2.814c.094.038.785.335.171.068l.411.179q.616.271,1.224.559,1.216.577,2.4,1.222a46.806,46.806,0,0,1,4.47,2.782q.5.355,1,.722.27.2.536.4c-.518-.4.076.064.15.123q1.05.839,2.05,1.737a44.672,44.672,0,0,1,3.623,3.656c.543.616,1.065,1.25,1.576,1.892.467.587-.327-.451.117.154.132.181.268.359.4.54q.4.543.775,1.1a2.748,2.748,0,1,0,4.746-2.774" transform="translate(-268.55 -41.953)" fill="#75a501"/>
        <path id="Path_348" data-name="Path 348" d="M787.28,165.636c.035,9.6,7.666,16.069,14.851,21.176,1.455,1.035,3.218-1.275,1.905-2.47-2.969-2.7-6.155-5.354-8.5-8.606a27.791,27.791,0,0,1-1.6-2.456q-.365-.638-.687-1.3c-.106-.22-.21-.442-.312-.664-.023-.05-.28-.618-.172-.368a13.933,13.933,0,0,1-1.171-5.314,2.157,2.157,0,0,0-4.315,0" transform="translate(-327.291 -67.962)" fill="#75a501"/>
        <path id="Path_349" data-name="Path 349" d="M821.651,198.12a6.6,6.6,0,0,1-.042-.687c0-.158.064-.678-.009-.258a6.1,6.1,0,0,1,.155-.671c.032-.11.077-.218.108-.328.092-.325-.171.241.022-.034a6.86,6.86,0,0,0,.353-.592c.133-.242-.013.012-.053.057.076-.086.15-.174.229-.257s.162-.162.244-.244c-.072.071-.4.245.025-.012.231-.138.465-.263.709-.378.1-.048.208-.1.314-.145-.058.023-.388.113-.108.064.222-.039.443-.132.666-.179.113-.024.227-.041.339-.063-.048.009-.461.018-.154.028.266.009.537-.006.8,0,.52.011-.383-.111.12.013.2.051.408.1.608.161.242.078.521.269.146.044.211.127.438.226.648.355.083.051.576.387.348.22s.238.209.312.278q.238.219.457.455c.109.117.5.609.225.233a8.236,8.236,0,0,1,.741,1.205c.058.115.113.23.168.346-.023-.05-.109-.272,0,0s.21.56.3.844c.155.489.282.987.387,1.489.054.252.1.5.145.759.022.127.041.255.061.382.066.425-.035-.309.017.12.136,1.122.2,2.251.282,3.378.1,1.4.182,2.8.219,4.205a17.189,17.189,0,0,0,.322,4.425,1.969,1.969,0,0,0,1.853,1.41,2.018,2.018,0,0,0,1.853-1.41,8.6,8.6,0,0,0,.406-2.395c.073-.724.113-1.449.135-2.176.044-1.447.067-2.9.015-4.349a25.055,25.055,0,0,0-1.3-8.241,11.681,11.681,0,0,0-4.837-6.037,7.986,7.986,0,0,0-8.288.028,8.608,8.608,0,0,0-3.746,8.611,2.448,2.448,0,0,0,4.8-.65" transform="translate(-339.542 -78.565)" fill="#75a501"/>
        <path id="Path_350" data-name="Path 350" d="M760.059,159c-1.8-4.134-6.377-6.182-10.7-5.866a13.577,13.577,0,0,0-6.62,2.189A19.776,19.776,0,0,0,737.309,161a44.072,44.072,0,0,0-3.374,6.273c-1.206,2.673-2.352,5.384-3.307,8.157-.921,2.673-1.464,5.429-2.256,8.137a12.909,12.909,0,0,1-1.316,3.181,34.64,34.64,0,0,1-2.157,3.247,37.832,37.832,0,0,0-4.563,7.215,11.1,11.1,0,0,0-.181,8.911,1.524,1.524,0,0,0,1.922.629,1.539,1.539,0,0,0,.891-1.815,8.429,8.429,0,0,1,.917-5.949,26.118,26.118,0,0,1,3.948-5.492,26.816,26.816,0,0,0,4.127-6.006,54.385,54.385,0,0,0,2.382-7.628c.368-1.273.788-2.531,1.248-3.773s.9-2.31,1.354-3.347c.941-2.137,1.93-4.266,3.08-6.3a27.217,27.217,0,0,1,1.79-2.809c.043-.059.338-.439.14-.189-.182.23.054-.064.076-.091.168-.2.336-.406.509-.6q.554-.635,1.166-1.217c.381-.361.783-.693,1.187-1.028.036-.03.331-.262.074-.064-.277.214.105-.072.172-.12q.367-.261.751-.5c.4-.245.809-.437,1.218-.656.277-.149-.244.119-.237.1a2.036,2.036,0,0,1,.342-.13q.345-.125.7-.227a7.159,7.159,0,0,1,1.441-.311c.01.023-.585.051-.27.041.153-.005.307-.03.46-.04.245-.015.491-.023.736-.023s.49.009.733.026c.122.008.242.022.364.031.455.034-.181.005-.184-.027,0,.02,1.266.279,1.4.32.226.07.446.154.669.234-.027-.009.331.111.33.116l-.318-.138.64.27c.465.185-.147-.078-.152-.071a2.538,2.538,0,0,1,.39.19c.2.107.386.248.586.356.255.136-.184-.138-.166-.134.106.025.25.211.326.281.17.158.311.334.47.5.182.194-.112-.138-.119-.151.069.126.165.242.241.366a7.422,7.422,0,0,1,.377.708,2.439,2.439,0,0,0,3.321.871,2.5,2.5,0,0,0,.871-3.321" transform="translate(-299.033 -63.648)" fill="#75a501"/>
        <path id="Path_351" data-name="Path 351" d="M731.11,223.285c.139,3.392.061,6.772.116,10.164.053,3.282.345,6.577.564,9.853.431,6.461,1.244,13.027,3.8,19.034a16.9,16.9,0,0,0,5.31,7,14.93,14.93,0,0,0,7.3,2.74,20.463,20.463,0,0,0,14.726-4.234c5.173-3.92,9.116-9.357,12.258-14.982a1.718,1.718,0,0,0-.441-2.21,1.7,1.7,0,0,0-2.249.134c-3.34,4.129-6.229,8.478-10.378,11.936a13.808,13.808,0,0,1-1.226.94q-.821.581-1.686,1.1c-.5.3-1.012.577-1.537.83-.249.12-.5.236-.757.345.086-.037.43-.167,0-.006-.162.061-.324.123-.487.183a20.849,20.849,0,0,1-3.321.932c-.274.051-.549.1-.825.136-.476.071-.055,0,.035-.006-.138.013-.276.032-.414.044a17.808,17.808,0,0,1-1.86.08c-.547-.005-1.09-.043-1.634-.1-.05-.005-.388-.054-.077-.008.333.05-.1-.019-.176-.032q-.448-.076-.89-.18a13.614,13.614,0,0,1-1.535-.456c-.125-.046-.248-.095-.373-.141.644.242-.322-.134-.367-.153.46.2.126.055.033.009-.18-.087-.359-.172-.536-.264a14.07,14.07,0,0,1-1.359-.834c-.074-.05-.348-.27-.006,0q-.158-.127-.313-.258a8.881,8.881,0,0,1-.68-.65c-.225-.238-.444-.484-.647-.742-.25-.317.148.212-.085-.119-.095-.134-.189-.268-.28-.4a17.111,17.111,0,0,1-1.054-1.812c-.149-.294-.287-.594-.425-.895-.009-.019-.172-.394-.064-.138-.064-.152-.124-.306-.185-.46-.272-.694-.518-1.4-.745-2.107a38.95,38.95,0,0,1-1.092-4.328,64.858,64.858,0,0,1-1.039-8.561c-.234-3.493-.261-6.994-.461-10.488-.208-3.636-.692-7.25-.888-10.89a2.067,2.067,0,0,0-2.023-2.022,2.042,2.042,0,0,0-2.022,2.022" transform="translate(-303.939 -91.984)" fill="#75a501"/>
        <path id="Path_352" data-name="Path 352" d="M772.888,305.777a21.94,21.94,0,0,1-1.005,8.863,26.645,26.645,0,0,1-1.541,3.936c-.345.719-.733,1.413-1.138,2.1a22.492,22.492,0,0,0-1.23,2.024,1.7,1.7,0,0,0,.255,1.981,1.652,1.652,0,0,0,1.981.256,13.6,13.6,0,0,0,3.528-4.1A21.3,21.3,0,0,0,776,316.023a24.431,24.431,0,0,0,1.024-10.246,2.129,2.129,0,0,0-2.068-2.068,2.084,2.084,0,0,0-2.067,2.068" transform="translate(-319.182 -126.259)" fill="#75a501"/>
        <path id="Path_353" data-name="Path 353" d="M824.058,251.378a94.728,94.728,0,0,0-.437,20.7,91.429,91.429,0,0,0,4.04,20.328c1.1,3.318,2.643,6.522,5.572,8.569a1.6,1.6,0,0,0,2.079-.415,1.628,1.628,0,0,0-.126-2.117,18.114,18.114,0,0,1-3.681-6.857,81.383,81.383,0,0,1-2.258-9.247,105.036,105.036,0,0,1-1.917-19.651,110.771,110.771,0,0,1,.491-11.314,1.9,1.9,0,0,0-1.882-1.882,1.929,1.929,0,0,0-1.882,1.882" transform="translate(-342.244 -103.721)" fill="#75a501"/>
        <path id="Path_354" data-name="Path 354" d="M187.558,680.705c-.05,4.056-.411,8.093-.541,12.148-.107,3.32-.264,6.64-.5,9.954-.2,2.833-.6,5.658-.765,8.49q-.107,1.775-.281,3.543c-.03.305-.06.611-.1.914-.019.15-.044.3-.059.449,0-.04.085-.621.027-.2-.081.581-.164,1.162-.254,1.741a70.384,70.384,0,0,1-2.537,11.067c-.5,1.525-1.037,3.039-1.65,4.522a2.062,2.062,0,0,0-.24.577c-.008-.269.175-.41.061-.147l-.1.238q-.244.57-.495,1.137-.479,1.086-.977,2.164a86.642,86.642,0,0,0-4.373,10.749,1.523,1.523,0,0,0,2.771,1.169c1.7-2.947,3.271-5.94,4.7-9.031.665-1.44,1.316-2.885,1.935-4.345q.294-.695.583-1.392c.073-.177.146-.354.217-.532.051-.13.213-.494-.044.092.1-.223.19-.45.283-.676q.469-1.138.9-2.291a96.137,96.137,0,0,0,5.707-25.866c.3-3.624.485-7.256.611-10.89.074-2.141.2-4.31.085-6.45-.126-2.379-.2-4.747-.233-7.128a2.365,2.365,0,1,0-4.731,0" transform="translate(-72.629 -282.001)" fill="#c1d72d"/>
        <path id="Path_355" data-name="Path 355" d="M289.481,782.261c-.846,4.594.311,9.032,2.16,13.231a15.8,15.8,0,0,0,3.068,4.586,13.28,13.28,0,0,0,2.22,1.822,5.4,5.4,0,0,0,2.986,1.1,1.936,1.936,0,0,0,1.654-2.883,4.821,4.821,0,0,0-.913-.959c-.285-.268-.58-.523-.858-.8-.256-.254-.5-.521-.728-.8-.119-.143-.3-.378-.089-.1-.129-.174-.252-.35-.373-.529a26.9,26.9,0,0,1-2.143-4c-.077-.169-.151-.339-.226-.509.151.344.083.2-.02-.062q-.238-.6-.453-1.2-.482-1.352-.829-2.747c-.109-.44-.206-.883-.286-1.329,0,.018-.108-.719-.074-.445a4.27,4.27,0,0,0-.039-.449,14.386,14.386,0,0,1-.042-1.481c.005-.224.016-.448.033-.672.008-.095.108-.841.036-.372a2.7,2.7,0,0,0-1.841-3.242,2.669,2.669,0,0,0-3.242,1.841" transform="translate(-120.227 -324.411)" fill="#c1d72d"/>
        <path id="Path_356" data-name="Path 356" d="M189.275,634.318a9.951,9.951,0,0,0-4.712-3.911,5.555,5.555,0,0,0-5.583,1.3,9.285,9.285,0,0,0-2.317,4.717,40.632,40.632,0,0,0-.737,6.08,61.655,61.655,0,0,0,.638,12.933c.591,3.892,1.32,8.625,5.066,10.78a5.954,5.954,0,0,0,6.408-.161,9.675,9.675,0,0,0,3.527-5.175,1.858,1.858,0,0,0-.839-2.062,1.827,1.827,0,0,0-2.212.285,32.612,32.612,0,0,1-2.433,3.1c-.044.044-.313.253-.036.049-.106.078-.218.151-.33.219.015-.009-.549.266-.272.154s-.331.087-.307.08c-.094.027-.376.02-.046.013a4.029,4.029,0,0,1-.445-.006c.376.033-.081-.031-.178-.058a3.142,3.142,0,0,1-.318-.1q.225.095.018-.006a4.638,4.638,0,0,1-.486-.29c.082.058.239.233-.085-.075-.11-.1-.217-.215-.327-.32-.281-.267-.164-.169-.084-.069a6.088,6.088,0,0,1-.62-1.042c-.013-.026-.168-.4-.063-.131-.091-.229-.168-.466-.241-.7a30.665,30.665,0,0,1-.919-4.788c-.072-.524.065.574-.042-.333-.022-.185-.045-.37-.066-.555q-.072-.625-.131-1.252-.124-1.323-.193-2.65c-.092-1.771-.146-3.543-.11-5.317.033-1.679.143-3.357.283-5.03q.058-.7.133-1.391c.022-.207.145-1.077.051-.494a12.9,12.9,0,0,1,.442-1.964c.041-.126.093-.249.133-.375-.157.5.026-.046.078-.145s.121-.224.188-.332c.12-.2.338-.41.068-.127.105-.11.214-.218.318-.329.34-.363-.011.029.1-.089.082-.086.5-.238.044-.064.088-.034.7-.174.272-.117a3.6,3.6,0,0,1,.435-.011c.5-.006-.207-.1.285.051a2.171,2.171,0,0,1,.754.31,5.672,5.672,0,0,1,1.52,1.37,2.015,2.015,0,0,0,2.667.7,1.966,1.966,0,0,0,.7-2.667" transform="translate(-73.094 -261.961)" fill="#c1d72d"/>
        <path id="Path_357" data-name="Path 357" d="M322.232,665a77.156,77.156,0,0,1,.33,10.989,97.973,97.973,0,0,1-.733,10.774c-.011.092-.023.185-.034.276-.04.309.033-.234-.009.07q-.05.352-.1.7c-.06.387-.129.773-.2,1.159-.127.7-.227,1.4-.356,2.1a1.527,1.527,0,0,0,.875,1.782,1.5,1.5,0,0,0,1.887-.618,29.657,29.657,0,0,0,2.168-9.462A68.188,68.188,0,0,0,326.347,671c-.155-2.157-.49-4.31-.86-6.44-.316-1.818-3.5-1.416-3.255.441" transform="translate(-133.485 -275.785)" fill="#c1d72d"/>
        <path id="Path_358" data-name="Path 358" d="M831.6,226.65a4.673,4.673,0,0,0-4.633-.048,6.014,6.014,0,0,0-2.878,3.6,11.226,11.226,0,0,0-.511,4.218,9.335,9.335,0,0,0,1.381,4.5,6.51,6.51,0,0,0,8,2.505c2.82-1.311,3.577-5.028,3.308-7.839a8.671,8.671,0,0,0-1.943-4.963,6.214,6.214,0,0,0-4.273-2.185,1.587,1.587,0,0,0-1.572,1.388,1.631,1.631,0,0,0,1.146,1.756c-.231-.092.017.007.053.025.1.047.191.093.285.145.064.036.581.378.3.174a4.774,4.774,0,0,1,.488.42c.077.076.153.154.226.234.05.055.318.453.113.125a12.032,12.032,0,0,1,.652,1.134c-.2-.413.078.259.112.377.082.282.126.57.2.854.08.318-.011-.3.006.03.007.13.023.259.03.389q.021.392.009.784t-.054.785c-.006.061-.063.47-.022.205s-.039.215-.05.271a4.032,4.032,0,0,1-.363,1.316c.272-.425-.083.1-.152.238-.213.41.053-.035.053-.034a3.418,3.418,0,0,1-.345.361c-.022-.022.448-.271.077-.063a2.688,2.688,0,0,1-.252.144c-.016-.028.54-.165.13-.057-.089.024-.189.049-.276.078-.312.1.068-.139.165-.009-.006-.007-.307.017-.289.016-.1,0-.195-.007-.292-.006-.408,0,.341.091.084.011-.165-.051-.337-.089-.5-.139-.377-.113.082.016.124.06a1.6,1.6,0,0,0-.269-.136c-.069-.037-.511-.255-.508-.324,0-.019.371.328.12.075-.106-.107-.21-.211-.313-.321-.149-.158-.174-.059.06.082a1.457,1.457,0,0,1-.194-.287c-.126-.2-.233-.4-.341-.6-.1-.182-.207-.193.03.088a1.409,1.409,0,0,1-.117-.328,7.589,7.589,0,0,1-.206-.762c-.025-.115-.04-.233-.067-.346-.078-.332.046.443.009.1-.025-.236-.058-.472-.079-.709a12.144,12.144,0,0,1-.044-1.509c0-.119.009-.239.018-.358.006-.093.014-.7,0-.117a3.483,3.483,0,0,1,.168-.787c.032-.113.078-.223.107-.336.06-.237-.178.3.024-.045.058-.1.118-.2.175-.305.24-.431-.254.205.066-.087.027-.025.216-.216.22-.209.016.023-.387.251.009.016.067-.04.364-.164.094-.063-.3.11.122-.02.182-.041.374-.127-.055.046-.108,0,.076.065.361-.083.44,0,.023.025-.525-.152-.12.012-.3-.123-.177-.089.04.044a2.072,2.072,0,0,0,2.806-.736,2.1,2.1,0,0,0-.736-2.806" transform="translate(-342.37 -93.958)" fill="#c1d72d"/>
        <path id="Path_359" data-name="Path 359" d="M833.218,252.311a8.17,8.17,0,0,1,.025,1.944q.031-.233.062-.467a4.6,4.6,0,0,1-.141.695c-.018.061-.04.12-.059.181-.047.15-.174.245.081-.182-.055.092-.1.191-.154.285-.158.278.312-.339.043-.054-.032.034-.067.064-.1.1-.181.187.339-.221.168-.127-.04.022-.082.05-.12.075-.259.169.167-.1.195-.071-.006-.006-.385.1-.425.107l.474-.064a2.231,2.231,0,0,1-.467-.006l.476.064a4.077,4.077,0,0,1-.412-.1c-.2-.056.383.2.119.048-.057-.032-.116-.061-.172-.094-.071-.042-.137-.093-.207-.135-.183-.11.281.245.126.1-.109-.1-.224-.2-.329-.31-.058-.06-.114-.121-.168-.184-.041-.047-.193-.24-.014-.011s0,0-.035-.061-.074-.112-.11-.168c-.089-.142-.172-.288-.248-.437-.031-.06-.059-.12-.089-.18-.138-.279.118.312.042.105-.105-.283-.217-.564-.3-.855-.041-.144-.078-.29-.109-.438-.013-.065-.025-.131-.038-.2-.074-.371.081.633-.014-.07-.016-.124-.032-.249-.053-.373-.035-.209.04.4.013.1-.013-.15-.026-.3-.03-.451a5.8,5.8,0,0,1,.051-.939,1.457,1.457,0,0,0-.433-1.045,1.518,1.518,0,0,0-.848-.406,1.5,1.5,0,0,0-1.621,1.058,6.81,6.81,0,0,0,1.526,7.175,4.233,4.233,0,0,0,4.137,1.247,3.861,3.861,0,0,0,2.49-2.668,8.537,8.537,0,0,0,.091-3.646,1.717,1.717,0,0,0-.8-1.041,1.793,1.793,0,0,0-1.11-.207,1.716,1.716,0,0,0-1.51,1.71" transform="translate(-344.202 -103.377)" fill="#c1d72d"/>
        <path id="Path_360" data-name="Path 360" d="M835.06,262.779a6.439,6.439,0,0,0,.082,2.793c.148.675.359,1.336.453,2.022-.02-.155-.042-.311-.063-.467a3.519,3.519,0,0,1,.01.866l.063-.468a2.342,2.342,0,0,1-.148.537l.178-.421a2.242,2.242,0,0,1-.265.436l.276-.357a2.023,2.023,0,0,1-.254.247l.359-.277a1.994,1.994,0,0,1-.414.241l.425-.18a2.271,2.271,0,0,1-.463.126l.477-.064a3.023,3.023,0,0,1-.779-.005l.479.064a3.253,3.253,0,0,1-.709-.195l.429.181a3.265,3.265,0,0,1-.706-.408l.362.279a3.682,3.682,0,0,1-.6-.609l.275.356a4.692,4.692,0,0,1-.536-.931l.172.407a13.392,13.392,0,0,1-.73-2.828,1.479,1.479,0,0,0-2.9.393,9.936,9.936,0,0,0,.4,3.513,4.83,4.83,0,0,0,2.456,2.929,4.181,4.181,0,0,0,3.931-.046,3.814,3.814,0,0,0,1.767-3.417,35.364,35.364,0,0,0-.68-3.485c.021.155.042.31.063.466a4,4,0,0,1-.015-1.006c-.021.155-.042.31-.063.464.011-.076.025-.15.04-.226a1.747,1.747,0,0,0-3.369-.929" transform="translate(-345.269 -108.717)" fill="#c1d72d"/>
      </g>
    </g>
  </g>
</svg>
