<?xml version="1.0" encoding="UTF-8"?>
<svg id="Layer_2" data-name="Layer 2" xmlns="http://www.w3.org/2000/svg" xmlns:xlink="http://www.w3.org/1999/xlink" viewBox="0 0 959.84 979.7">
  <defs>
    <style>
      .cls-1, .cls-2 {
        fill: none;
      }

      .cls-3 {
        fill: #3f4040;
      }

      .cls-4 {
        fill: #93cee2;
        opacity: .21;
      }

      .cls-5 {
        fill: #c1d72d;
      }

      .cls-6 {
        opacity: .48;
      }

      .cls-6, .cls-7 {
        fill: #fff;
      }

      .cls-8 {
        fill: #434243;
      }

      .cls-9 {
        font-family: BrandonText-Black, 'Brandon Text';
        font-size: 298px;
        font-weight: 800;
      }

      .cls-9, .cls-10 {
        fill: #0089bf;
      }

      .cls-11 {
        fill: #00aeef;
      }

      .cls-12 {
        fill: #b1e1f5;
      }

      .cls-13 {
        fill: #ff9700;
      }

      .cls-14 {
        opacity: .53;
      }

      .cls-15 {
        fill: #00dbff;
      }

      .cls-16 {
        fill: #f2f2f2;
      }

      .cls-2 {
        stroke: #0089bf;
        stroke-linecap: round;
        stroke-linejoin: round;
        stroke-width: 10px;
      }

      .cls-17 {
        clip-path: url(#clippath);
      }

      .cls-18 {
        fill: #000089;
      }
    </style>
    <clipPath id="clippath">
      <path class="cls-1" d="M626.13,352.7c-6.12-62.88-50.63-112.76-108.07-128.71-17.1-4.75-35.34-6.49-54.05-4.66-12.04,1.17-23.61,3.75-34.55,7.56-63.2,22-105.59,85-98.82,154.56,7.94,81.6,80.52,141.31,162.12,133.37,81.6-7.94,141.31-80.52,133.37-162.12Z"/>
    </clipPath>
  </defs>
  <g id="Layer_2-2" data-name="Layer 2">
    <circle class="cls-4" cx="470.56" cy="529.06" r="234.12"/>
    <text class="cls-9" transform="translate(685.09 365.83) rotate(19.93)"><tspan x="0" y="0">?</tspan></text>
    <path class="cls-10" d="M87.88,338.67l19.55,14.57,23-8.1c6-2.11,11.8,3.61,9.76,9.64l-7.81,23.1,14.81,19.37c3.86,5.05.21,12.34-6.15,12.26l-24.38-.29-13.85,20.07c-3.61,5.23-11.67,4.01-13.56-2.06l-7.26-23.28-23.37-6.97c-6.09-1.82-7.42-9.86-2.23-13.53l19.9-14.09-.59-24.38c-.15-6.36,7.08-10.1,12.18-6.3Z"/>
    <g>
      <path class="cls-10" d="M745.94,778.86h0,0M743.46,779.15c1.89,21.5,9.84,40.04,23.07,53.76,13.88,14.39,33,22.31,53.85,22.31,8.53,0,17-1.35,25.24-4.02-3.98,9.91-11.3,18.44-21.4,24.86-14.55,9.25-34.13,13.94-58.19,13.94-5.83,0-11.98-.28-18.27-.85-.51-.05-1.03-.07-1.54-.07-4.58,0-8.95,1.79-12.3,5.03-4.8,4.64-13.79,8.32-21.98,10.7,1.45-1.89,2.89-3.93,4.22-6.09,4.76-7.71,2.88-17.68-4.39-23.19-3.82-2.9-11.12-8.96-17.07-17.02-6.19-8.39-9.33-16.7-9.33-24.71,0-10.31,6.74-23.34,17.59-34,11.45-11.26,26.08-18.69,40.51-20.65M850.39,849.49h0,0M745.72,768.87c-.23,0-.46.01-.7.03-38.01,3.5-69.66,38.23-69.66,64.9,0,23.34,19.97,41.82,30.36,49.7,3.09,2.35,3.96,6.66,1.92,9.96-3.98,6.45-9.52,12.31-13.42,15.81-3.65,3.28-1.86,8.57,2.9,8.57.13,0,.26,0,.39-.01,8.17-.48,32.37-5.93,43.34-16.54,1.45-1.4,3.36-2.22,5.35-2.22.22,0,.43,0,.65.03,6.73.6,13.11.89,19.16.89,55.94,0,83.28-24.45,90.78-50.64,1.46-5.08-2.48-9.71-7.25-9.71-.91,0-1.86.17-2.8.54-6.76,2.64-15.85,5.04-26.37,5.04-37.54,0-64.49-28.23-67.14-69.31-.26-3.98-3.61-7.03-7.52-7.03h0Z"/>
      <path class="cls-10" d="M887.32,831.85h0,0M887.07,837.12c8.13,8.07,11.66,17.68,11.66,31.18,0,14.24-4.25,26.62-24.96,40.7-6.08,4.13-8.94,11.66-7.13,18.73.41,1.61,1.21,4.7,3.34,8.31-7.27-2.75-12.97-5.82-17.9-9.57-3-2.28-6.75-3.54-10.55-3.54-.17,0-.35,0-.52,0-1.2.04-2.58.09-4.11.14-4.71.17-10.57.39-17.18.39-5.24,0-10.08-.14-14.57-.41,19.19-5.41,36.87-14.76,50.83-27.04,18.64-16.39,29.31-36.66,31.1-58.89M884.93,824.32c-3.86,0-7.53,2.98-7.6,7.37-.77,46.06-44.36,77.2-88.24,84.76-8.42,1.45-8.41,13.58.02,14.94,10.2,1.64,21.09,2.08,30.61,2.08,8.99,0,16.76-.39,21.59-.53.07,0,.15,0,.22,0,1.62,0,3.21.52,4.5,1.5,10.57,8.03,23.11,12.52,37.26,16.18,1.54.4,2.9.58,4.08.58,7.81,0,7.85-7.76,2.98-10.19-3.15-1.58-11.39-5.44-14.03-15.75-.77-3.02.49-6.22,3.07-7.97,23.23-15.79,29.34-30.95,29.34-48.97,0-15.25-3.76-29.83-19.1-42.3-1.43-1.16-3.08-1.69-4.7-1.69h0Z"/>
      <circle class="cls-11" cx="820.88" cy="777.85" r="50.84"/>
    </g>
    <path class="cls-2" d="M30.64,49.93c3.95,99.1,91.06,192.56,189.71,189.71,8.06,0,13.35-2.59,13.35-12.24v-38.26c.18-8.56-5.1-10.39-12.75-10.57s-29.7-3.1-34.62-5.83-11.17-3.3-18.04,3.64-17.81,19.07-17.81,19.07c-37.97-12.78-72.29-67.54-74.12-74.12,3.65-2.92,19.69-20.79,19.69-20.79,7.96-7.76,3.38-14.92,1.99-18.31s-6.37-27.86-6.17-35.02c.2-7.16-4.38-10.55-11.34-10.75s-38.8.4-41.39.4c-6.57.2-8.85,4.44-8.5,13.07Z"/>
    <g class="cls-14">
      <rect class="cls-12" x="3.56" y="774.35" width="187.09" height="29.25" rx="13.37" ry="13.37"/>
      <rect class="cls-12" x="3.56" y="818.55" width="187.09" height="29.25" rx="13.37" ry="13.37"/>
      <rect class="cls-12" x="3.56" y="862.74" width="187.09" height="29.25" rx="13.37" ry="13.37"/>
      <rect class="cls-12" x="3.56" y="906.94" width="187.09" height="29.25" rx="13.37" ry="13.37"/>
    </g>
    <path class="cls-10" d="M173.43,894.43c-3.21-7.82,4.28-15.78,12.28-13.05l37.46,12.8,43.53,14.88c6.77,2.31,8.88,10.84,3.98,16.05l-46.57,4.72-1.9,46.77c-4.9,5.21-13.55,3.61-16.26-3.01l-17.48-42.55-15.04-36.62Z"/>
    <path class="cls-11" d="M934.45,556.92l.99,24.36,20.77,12.78c5.42,3.33,4.62,11.44-1.35,13.65l-22.87,8.47-5.73,23.7c-1.5,6.18-9.46,7.93-13.4,2.94l-15.12-19.13-24.31,1.87c-6.34.49-10.46-6.54-6.93-11.84l13.52-20.29-9.29-22.54c-2.42-5.88,2.99-11.97,9.11-10.25l23.48,6.59,18.57-15.8c4.84-4.12,12.31-.85,12.57,5.5Z"/>
    <path class="cls-12" d="M637.99,23.05l4.43,23.98,22.37,9.7c5.84,2.53,6.19,10.67.6,13.7l-21.43,11.63-2.31,24.27c-.6,6.33-8.23,9.19-12.85,4.81l-17.68-16.79-23.8,5.3c-6.21,1.38-11.28-4.99-8.54-10.73l10.51-22-12.4-21c-3.23-5.48,1.26-12.27,7.57-11.44l24.17,3.19,16.14-18.28c4.21-4.77,12.06-2.59,13.22,3.66Z"/>
    <path class="cls-11" d="M600.88,881.93c-2.63,2.79-5.39,5.43-8.29,7.94-1.4,1.21-2.82,2.43-4.32,3.51-1.63,1.17-3.39,2.15-5.04,3.28-6.78,4.68-13.92,8.91-21.32,12.54s-15,6.6-23.06,9.01c-4.04,1.2-8.14,2.23-12.27,3.07s-7.57,1.37-11.45,1.74-7.55.52-11.33.43c-1.77-.04-3.53-.14-5.29-.3-.8-.07-1.59-.15-2.39-.25-.1-.01-.8-.1-.36-.04.4.05-.15-.02-.19-.03-.44-.06-.88-.13-1.32-.2-3.18-.51-6.33-1.24-9.4-2.2-1.47-.46-2.93-.98-4.37-1.54-.18-.07-1.02-.41-.7-.28.36.15-.54-.23-.68-.3-.73-.33-1.46-.66-2.18-1.02-2.66-1.31-5.22-2.81-7.66-4.49-.56-.39-1.12-.79-1.67-1.19-.28-.2-.55-.41-.82-.62-.32-.25.11.09.15.11-.19-.15-.38-.3-.57-.46-1.15-.92-2.26-1.88-3.34-2.87-2.18-2.01-4.23-4.15-6.14-6.42-.45-.53-.9-1.07-1.33-1.62-.22-.27-.44-.55-.65-.83.46.59-.23-.31-.36-.47-.91-1.22-1.79-2.46-2.64-3.72-1.73-2.58-3.33-5.25-4.82-7.99-1.85-3.41-3.48-6.64-3.98-10.58.01.09.04.35,0-.06-.03-.27-.05-.54-.06-.81-.02-.47-.03-.94,0-1.41.01-.27.03-.53.05-.8,0,.08-.07.4,0-.03.09-.59.24-1.17.42-1.74.24-.76.4-1.06.93-1.87.08-.12.17-.25.25-.37.29-.44-.38.41-.02.03.26-.28.52-.57.8-.84.21-.19.83-.67.27-.26.31-.22.63-.43.96-.63.29-.17.59-.32.89-.47.36-.19-.16.06-.2.07.22-.09.45-.17.68-.25.7-.24,1.41-.39,2.13-.54.63-.13-.54.02.38-.04.4-.03.8-.05,1.2-.05.35,0,.71,0,1.06.03.2.01,1.12.1.74.05-.42-.05.58.1.74.13.45.09.9.2,1.35.33.35.1.69.21,1.03.33.19.07.39.14.58.22-.05-.02-.52-.23-.15-.06.75.34,1.47.72,2.16,1.17.3.19.59.4.88.61-.54-.4.16.16.33.31.65.59,1.25,1.24,1.81,1.92-.3-.36.09.11.12.16.15.2.29.4.43.61.24.36.47.73.69,1.1.47.8.9,1.63,1.27,2.48-.17-.39.27.73.33.88.13.35.24.71.36,1.07.3.96.55,1.94.75,2.93.41,1.99.51,2.99.61,5.14.09,1.92.06,3.84-.07,5.75-.05.84-.13,1.67-.21,2.51-.04.41-.09.83-.14,1.24-.07.6.07-.5-.01.1-.04.29-.08.59-.13.88-.53,3.45-1.33,6.86-2.37,10.19-1.14,3.64-2.17,6.2-3.71,9.35s-3.28,6.18-5.23,9.08c-2.1,3.13-3.67,5.15-6.21,7.98-2.38,2.65-4.94,5.14-7.65,7.44-.63.54-1.28,1.06-1.93,1.58-.19.15-.37.29-.56.44.06-.05.35-.27.02-.02-.43.32-.85.64-1.28.95-1.39,1.01-2.81,1.97-4.27,2.88-3.01,1.88-6.15,3.55-9.4,4.98-.16.07-.33.14-.49.21.51-.22-.04.02-.12.05-.38.16-.77.31-1.15.46-.88.34-1.77.67-2.66.98-1.68.58-3.38,1.09-5.1,1.53s-3.35.79-5.05,1.09c-2.04.36-2.6.43-4.68.62-3.53.32-7.09.36-10.63.14-.83-.05-1.65-.12-2.48-.19-.41-.04-.82-.08-1.24-.13-.24-.03-.47-.05-.7-.08-.12-.01-.9-.12-.28-.03-1.76-.25-3.51-.55-5.25-.92-3.42-.73-6.79-1.69-10.08-2.88s-5.86-2.31-9.23-4.09c-3.09-1.64-6.08-3.48-8.92-5.51-1.62-1.16-2.23-1.63-3.77-2.92-1.36-1.14-2.68-2.33-3.96-3.56-2.54-2.46-4.97-5.06-7.27-7.74-1.88-2.19-4.18-4.97-5.81-7.96s-6.34-.33-4.67,2.73c1.77,3.25,3.43,6.59,5.57,9.68,1.33,1.92,2.19,3.01,3.69,4.76,1.23,1.44,2.56,2.78,3.94,4.09,5.5,5.21,11.79,9.66,18.54,13.12,13.54,6.93,29.15,10.26,44.33,8.5,15.43-1.79,29.73-8.55,41.33-18.84,11.38-10.09,19.96-23.55,24-38.23,2.05-7.46,3.16-15.55,2.24-23.27-.96-8.1-4.28-16.74-11.8-20.89-6.23-3.44-14.67-3.76-20.48.73-3.52,2.72-5.35,6.84-5.64,11.23-.31,4.65,1.28,9.29,3.23,13.44,5.58,11.87,14.02,22.76,24.53,30.64s24.31,12.3,37.89,13c16.99.88,34.36-3.03,50.15-9.1,8.45-3.25,16.64-7.16,24.43-11.78,3.67-2.18,7.2-4.55,10.63-7.1,1.85-1.38,3.49-2.94,5.24-4.45,1.55-1.33,3.13-2.62,4.67-3.96,2.93-2.56,5.74-5.27,8.39-8.12s-1.54-6.83-4.11-4.11h0Z"/>
    <path class="cls-11" d="M27.66,455.47c-1.55,3.78-2.89,7.63-4.02,11.55s-2.55,8.15-3.4,12.31c-1.79,8.8-2.62,17.8-2.73,26.77-.21,17.58,2.31,35.68,8.72,52.12,5.18,13.28,13.08,25.23,24.54,33.86,9.89,7.45,21.92,11.6,34.11,13.27,7.09.97,14.94,1.94,21.85-.4,3.92-1.33,7.56-3.76,9.58-7.46,1.85-3.38,2.17-7.31,1.29-11.03-1.83-7.77-8.55-13.76-16.35-15.04-9.31-1.53-18.55,1.96-26.42,6.72-13.04,7.88-23.45,19.98-29.8,33.8-6.47,14.08-8.98,29.7-6.58,45.05,2.36,15.08,9.97,29.12,20.52,40.05,5.32,5.52,11.48,10.32,18.14,14.14,6.57,3.76,13.77,6.8,21.26,8.05,1.82.3,3.63.55,5.78.75,1.83.17,3.67.14,5.5.26,1.46.1,2.7-1.31,2.7-2.7,0-1.55-1.24-2.61-2.7-2.7-3.29-.22-6.84-1.2-10.04-2.13s-6.7-2.08-9.95-3.36c-.39-.15-.77-.31-1.16-.47-.67-.27-.27-.12-.13-.05-.22-.09-.44-.19-.65-.28-.82-.36-1.62-.74-2.43-1.12-1.6-.78-3.18-1.61-4.73-2.5s-3.06-1.84-4.55-2.83c-.69-.46-1.38-.94-2.05-1.43-.34-.24-.68-.49-1.01-.74-.19-.14-.38-.29-.57-.43-.14-.1-.42-.33-.12-.09-2.82-2.19-5.49-4.59-7.98-7.15-1.25-1.28-2.45-2.6-3.6-3.97-1.3-1.54-1.94-2.36-2.96-3.77-2.06-2.84-3.92-5.81-5.56-8.91-.83-1.57-1.61-3.18-2.32-4.81-.03-.07-.32-.75-.17-.39.13.32-.09-.22-.09-.23-.18-.44-.35-.88-.53-1.32-.32-.83-.62-1.67-.91-2.51-1.13-3.32-2.01-6.73-2.6-10.19-.08-.47-.16-.94-.23-1.4-.03-.18-.05-.35-.08-.53-.09-.6.06.5-.01-.1-.11-.88-.21-1.76-.28-2.65-.15-1.77-.24-3.54-.26-5.31s.03-3.55.14-5.32c.05-.83.12-1.65.2-2.48.04-.41.08-.82.13-1.24.03-.24.06-.47.08-.7.01-.12.13-.9.04-.28.5-3.46,1.22-6.88,2.18-10.25.49-1.71,1.04-3.41,1.64-5.08.28-.78.58-1.56.88-2.33.15-.39.31-.77.47-1.15-.21.5.02-.05.06-.13.12-.27.24-.54.36-.82,1.43-3.2,3.07-6.3,4.91-9.28.94-1.51,1.92-2.99,2.96-4.44.24-.34.49-.67.73-1,.09-.12.72-.95.41-.55.58-.75,1.18-1.49,1.78-2.21,2.28-2.72,4.75-5.27,7.41-7.63.62-.55,1.25-1.09,1.88-1.62.32-.26.64-.52.96-.78.18-.15.37-.29.56-.44.51-.4-.65.48.26-.2,1.38-1.02,2.78-2.01,4.22-2.94,3.26-2.09,6.77-3.99,10.27-5.24,4.01-1.43,7.63-2.14,11.83-1.73.57.06,1.67.28,2.56.53.48.13.94.31,1.42.45.12.04.64.26.03,0,.2.09.39.18.58.27.68.34,1.29.75,1.93,1.15.56.35.18.11.05.01.17.13.34.27.5.41.33.28.65.57.95.88.27.27.53.54.78.83.12.14.73.91.36.4.51.69.97,1.41,1.38,2.17.18.33.34.66.49,1,.17.38-.03-.08-.05-.13.08.2.15.39.22.59.28.79.43,1.59.62,2.41-.16-.68,0,.11.03.41.02.35.03.71.02,1.06,0,.2-.08,1.12-.03.72.06-.48-.03.15-.05.26-.04.2-.08.39-.13.59-.09.34-.2.67-.31,1.01-.21.64-.06.11,0-.01-.09.18-.18.37-.28.55-.18.32-.37.63-.58.93s0,.01.05-.04c-.18.23-.37.44-.57.65-.96,1.02-2.19,1.84-3.48,2.37.33-.14-.2.07-.21.08-.22.08-.44.16-.66.23-.39.13-.79.24-1.18.35s-.81.2-1.21.28c-.23.05-.47.09-.7.13-.08.01-.99.15-.59.1.17-.02-.71.07-.96.09-.42.04-.84.06-1.27.08-.9.04-1.8.05-2.7.03-1.59-.04-3.18-.14-4.76-.27s-3.03-.28-4.55-.46c-.2-.03-.4-.05-.6-.08.04,0,.63.09.21.03-.35-.05-.69-.1-1.04-.15-.79-.12-1.58-.25-2.36-.39-2.9-.52-5.77-1.18-8.59-2.01-1.34-.4-2.68-.83-4-1.3-.68-.24-1.35-.5-2.02-.76-.31-.12-.62-.25-.93-.38-.13-.05-.27-.11-.4-.17.74.31.09.04-.07-.03-2.62-1.17-5.18-2.47-7.63-3.97-1.19-.73-2.36-1.49-3.49-2.3-.59-.42-1.18-.85-1.75-1.29-.32-.25.12.09.15.12-.15-.12-.31-.24-.46-.36-.3-.24-.61-.49-.91-.74-2.3-1.91-4.45-4-6.45-6.22-1.04-1.15-2.03-2.34-2.98-3.57.4.52-.18-.24-.3-.4-.22-.3-.44-.6-.66-.9-.5-.7-.99-1.41-1.47-2.12-1.84-2.77-3.49-5.67-4.96-8.65-.37-.74-.72-1.49-1.07-2.25-.18-.38-.35-.77-.52-1.15-.1-.22-.19-.44-.29-.67-.24-.54,0,0-.14-.32-.73-1.74-1.4-3.5-2.03-5.28-1.33-3.78-2.45-7.64-3.39-11.54-2.03-8.39-3.16-16.35-3.66-24.9s-.3-17,.59-25.45c.24-2.26.46-3.89.74-6.04.05-.39.26-1.81.38-2.57.16-1.02.33-2.04.51-3.06.38-2.14.46-3.98.93-6.08.43-1.96.94-3.89,1.5-5.82,1.05-3.6,2.28-7.14,3.68-10.62.59-1.45-.64-3.19-2.03-3.57-1.67-.46-2.97.57-3.57,2.03h0Z"/>
    <path class="cls-5" d="M817.68,425.62c3.52,9.97,6.94,19.98,11.2,29.66.82,1.85,3.42,2.38,5.1,1.67,1.86-.78,2.9-2.83,2.36-4.82-2.66-9.84-6.21-19.41-9.6-29.01-.82-2.31-3.24-4.1-5.78-3.28-2.28.74-4.16,3.3-3.28,5.78h0Z"/>
    <path class="cls-11" d="M817.68,425.62c3.52,9.97,6.94,19.98,11.2,29.66.82,1.85,3.42,2.38,5.1,1.67,1.86-.78,2.9-2.83,2.36-4.82-2.66-9.84-6.21-19.41-9.6-29.01-.82-2.31-3.24-4.1-5.78-3.28-2.28.74-4.16,3.3-3.28,5.78h0Z"/>
    <path class="cls-11" d="M869.89,378.44c7.07,7.64,14.14,15.28,21.22,22.91s14.12,15.29,21.52,22.61c1.59,1.57,4.47,1.7,6.03,0,1.67-1.82,1.55-4.21,0-6.03-6.74-7.95-13.83-15.57-20.91-23.22s-14.14-15.28-21.22-22.91c-1.67-1.81-4.97-1.82-6.64,0-1.78,1.93-1.78,4.71,0,6.64h0Z"/>
    <path class="cls-11" d="M905.45,317.09c9.58.59,19.25,1.39,28.85,1.2,2.06-.04,3.77-1.54,4.05-3.57.24-1.82-.92-4.23-2.95-4.52-9.9-1.42-19.96-1.88-29.95-2.49-2.46-.15-4.81,2.27-4.7,4.7.12,2.67,2.06,4.53,4.7,4.7h0Z"/>
    <path class="cls-11" d="M261.29,130.49c9.89-2.49,19.84-4.83,29.51-8.05,2.02-.67,3.56-2.85,2.85-5.02s-2.76-3.24-5.02-2.85c-10.06,1.74-19.94,4.38-29.84,6.87-2.38.6-4.05,3.4-3.28,5.78s3.22,3.92,5.78,3.28h0Z"/>
    <path class="cls-11" d="M218.13,74.65c8.33-6.38,16.66-12.76,24.99-19.14s17.02-13,25.24-19.88c1.63-1.36,1.53-4.05.33-5.6s-3.75-2.32-5.5-1.1c-8.53,5.96-16.75,12.29-25.01,18.62s-16.53,12.66-24.79,18.99c-1.94,1.49-3.18,4.11-1.68,6.43,1.24,1.92,4.34,3.28,6.43,1.68h0Z"/>
    <path class="cls-11" d="M160.84,33.89c1.54-9.88,3.31-19.83,4.04-29.81.15-2.04-1.68-3.79-3.57-4.05s-4.04.95-4.52,2.95c-2.25,9.33-3.53,18.93-5,28.41-.38,2.42.61,5.17,3.28,5.78,2.25.51,5.37-.68,5.78-3.28h0Z"/>
    <path class="cls-11" d="M587.35,102.34c3.37-1.14,6.77-2.48,10.23-3.33.6-.15,1.16-.05,1.84-.1,1.01-.06,2.05-.33,3.04-.57,1.73-.43,3.38-1.08,5.09-1.57l.45-.13c.56-.12.61-.14.13-.06h.46c-.46-.09-.54-.09-.22-.01.62.18-.8-.61.12.06.13.09,1.14.86.33.18,1.12.93,2.16,1.98,3.16,3.04,1.93,2.05,3.71,4.24,5.51,6.41,3.89,4.7,8.25,9.92,14.08,12.2,3.72,1.46,7.77.34,10.67-2.26,2.51-2.26,3.82-5.53,4.32-8.8.62-4.02.79-8.13,1.11-12.19s.66-8.21.98-12.31l-3.45,4.53c6.38-2.02,13.01-4.21,18.52-8.1,6.28-4.44,13.25-12.45,9.55-20.6-1.46-3.21-4.68-5.43-7.74-6.94-3.68-1.82-7.47-3.43-11.21-5.13-1.9-.86-3.8-1.72-5.7-2.59-.68-.31-1.36-.63-2.02-.98-.38-.21-.76-.42-1.13-.66-.16-.1-.3-.21-.46-.31-.53-.32.5.51.08.05-.24-.26-.52-.52-.77-.77-.44-.43.29.65.08.07-.06-.17-.21-.37-.3-.53.37.63-.04-.17-.12-.48-.13-.49-.2-.98-.31-1.48-.12-.54,0,.09.02.17-.04-.3-.08-.61-.11-.91-.06-.48-.12-.96-.18-1.45-.17-1.38-.31-2.76-.52-4.13-.36-2.29-.86-4.58-1.38-6.84-.39-1.7-.68-3.41-1.31-5.04-1.4-3.64-3.96-7.41-8.35-7.13-3.38.22-4.08,4.81-.8,5.9l.28.09c-.3-.12-.29-.1.02.06l-.22-.19c.14.12.28.23.43.34.21.19.41.38.6.59-.52-.57.05.11.12.25.15.26.29.53.41.81-.32-.76.04.22.07.32.22.73.36,1.47.48,2.22-.13-.84-.02-.12,0,.09.02.26.04.52.06.78.06.9.06,1.81.09,2.71.06,2.08.1,4.19.31,6.26.17,1.75.42,3.5.65,5.24.31,2.4.64,4.75,1.89,6.88,1.86,3.17,5.06,4.92,8.29,6.39,3.54,1.61,7.08,3.23,10.61,4.84,1.68.77,3.38,1.51,5.05,2.31.53.25,1.06.51,1.57.79.6.32,1.68.75,2.1,1.3-.63-.84-.13-.1.12.13s.47.48.71.71c.74.73-.39-.83.05.09l.16.28c.23.46.21.38-.07-.24.1.05.27.85.26.95.14-1.21-.09.12-.11.33.08-.93.02-.21-.06-.02-.07.27-.16.54-.26.8.21-.47.2-.45-.03.04-.37.67-.73,1.34-1.16,1.98-.2.3-.41.59-.62.88.69-.95-.02,0-.16.17-.93,1.09-1.98,2.04-3.06,2.98-.91.79.8-.55-.18.14-.39.28-.78.56-1.18.83-.71.47-1.43.91-2.17,1.33-1.4.79-2.85,1.47-4.31,2.13-1.15.52.92-.36-.26.11-.46.18-.93.37-1.39.55-.82.31-1.64.61-2.46.9-1.64.57-3.28,1.11-4.94,1.63-2.11.67-3.28,2.38-3.45,4.53-.53,6.73-1.06,13.46-1.6,20.19-.06.73-.12,1.46-.2,2.19.11-1.04-.07.38-.09.49-.05.29-.11.57-.18.85-.1.42-.24.83-.36,1.25-.06.19-.39.73-.02.09-.17.31-.35.62-.53.93-.45.8.57-.5-.16.18-.17.16-.35.33-.51.5.76-.76.05-.08-.2.09-.81.55.17-.04.17-.04l-.33.1c-.52.11-.45.12.22.01-.08.07-.73,0-.75,0,1.08.04-.03-.09-.29-.17.19.06.79.42.02,0-.41-.23-.82-.46-1.21-.72-.28-.18-.55-.38-.82-.57-.72-.51-.15-.11,0,0-.52-.41-1.03-.84-1.52-1.28-1.09-.97-2.12-2.02-3.11-3.09-1.86-2.02-3.58-4.16-5.34-6.27-3.84-4.61-8.65-11.15-15.38-10.24-1.93.26-3.81,1.03-5.61,1.75-2.09.84-4.22,1.67-5.9,3.21-.44.41.92-.26-.29.09-.46.13-.92.36-1.37.53-.92.34-1.84.67-2.76,1.01-1.84.67-3.69,1.33-5.53,1.98-1.68.6-2.81,2.26-2.31,4.07.45,1.65,2.37,2.88,4.07,2.31h0Z"/>
    <path class="cls-11" d="M614.08,27.1c-1.38,1.83-2.77,3.66-4.12,5.52-.34.47-.42,1.36-.25,1.9s.45.95.88,1.28.95.55,1.49.53c.61-.03,1.34-.22,1.74-.72,1.44-1.79,2.83-3.61,4.24-5.42.32-.32.53-.69.65-1.12l.09-.68c.04-.79-.4-1.53-1-2-.56-.43-1.18-.59-1.88-.5-.34.02-.65.12-.95.3-.38.23-.69.53-.91.91h0Z"/>
    <path class="cls-11" d="M590.44,33.12c-3.23-.51-6.41-.88-9.45-1.21-1.45-.16-2.99-.17-4.38.32-1.49.53-2.73,1.6-3.58,2.92-1.41,2.17-1.64,5.12-.98,7.58.78,2.9,2.63,5.28,4.55,7.52.8.93,2.33.89,3.24.19s1.36-2.18.64-3.18c-.66-.92-1.32-1.84-1.94-2.79-.33-.51-.65-1.03-.92-1.57-.04-.08-.31-.74-.15-.33-.09-.24-.18-.48-.25-.73s-.12-.51-.19-.75c-.16-.5.02.46-.04-.23-.03-.45-.03-.91.02-1.36-.07.66.02.04.06-.12.06-.23.15-.46.22-.69.07-.19.05-.13-.07.18.06-.12.12-.24.19-.36.1-.18.22-.34.32-.51-.26.5-.1.12.07-.06.09-.1.19-.19.29-.27l-.25.19c.11-.16.44-.28.61-.36.11-.06.22-.11.33-.15-.27.11-.24.11.06,0,.26-.06.5-.13.76-.18-.53.1.22,0,.33-.02.63-.04,1.26-.02,1.89,0,2.56.08,4.93.42,7.3.79,1.29.2,2.76-.33,3.08-1.75.27-1.2-.37-2.86-1.75-3.08h0Z"/>
    <path class="cls-11" d="M584.45,64.84c.46.28.09-.11.35.36.2.36.11.18.21.56.11.45.05,1.11-.14,1.8-.56,2.03-1.55,3.95-2.39,5.87-1.89,4.34-3.85,8.68-5.57,13.09-1.02,2.63,3.24,4.38,4.54,1.92,2.61-4.92,4.93-10,7.34-15.01,1.09-2.27,2.26-4.66,2.13-7.25s-1.3-4.98-3.57-6.31c-3.2-1.88-6.05,3.02-2.91,4.97h0Z"/>
    <path class="cls-11" d="M9.07,774.51c-5.13,1.83-7.71,6.66-8.44,11.81-.08.55-.16,1.11-.21,1.66-.07.75,0,.13.02-.02-.09.84-.24,1.67-.33,2.51-.2,1.82-.13,3.55.19,5.36.58,3.28,2.47,6.06,5.16,7.97,4.73,3.35,11.03,3.3,16.57,3.4,6.77.12,13.53.05,20.3-.14,13.54-.38,27.06-1.2,40.59-1.74,13.55-.54,27.12-.74,40.68-.56,3.8.05,7.61.24,11.41.19s7.6-.17,11.41-.25c7.67-.16,15.37.18,23.04.29,1.57.02,2.91-1.35,2.91-2.91,0-1.74-1.34-2.7-2.91-2.91-6.42-.86-12.86-1.53-19.32-2.1-6.45-.57-12.86-1.42-19.34-1.57-12.9-.3-25.81-.26-38.71.11-12.88.37-25.75,1.13-38.62,1.67-6.35.27-12.7.48-19.06.56s-12.2.27-18.24-.24c-.3-.02-.59-.06-.89-.09-1-.09.9.17-.18-.02-.58-.1-1.16-.21-1.74-.35-.46-.11-1.62-.26-1.98-.61.05.05.97.48.18.07-.3-.16-.59-.3-.88-.47-.05-.03-.99-.58-.35-.2.59.36-.42-.37-.54-.49-.16-.15-.31-.32-.47-.47-.69-.69.4.81-.16-.23-.17-.31-.33-.6-.49-.92-.12-.28-.11-.25.05.08-.07-.2-.13-.4-.19-.6-.1-.34-.17-.68-.25-1.02-.08-.46-.1-.55-.06-.28.07.5.03.18-.13-.97.09.63-.03-.08-.04-.18-.06-.48-.09-.96-.13-1.44-.04-.61-.04-1.2,0-1.81.02-.22.04-.45.06-.67.06-.89-.1.46.04-.35.12-.66.24-1.32.42-1.97.14-.52.31-1.04.49-1.56.35-1.02-.41.84.19-.45.21-.51.24-.56.07-.16.09-.19.19-.37.29-.55.04-.1.35-.52,0-.08.18-.24.42-.44.64-.65.65-.63-.28.15.18-.13.11-.07,1.01-.52.48-.31,1.63-.66,2.77-2.17,2.27-4-.44-1.6-2.34-2.86-4-2.27h0Z"/>
    <path class="cls-11" d="M4.03,822.75c-3.49,3.95-4.35,9.44-3.22,14.49,1.2,5.37,4.98,9.89,9.86,12.34,5.59,2.81,11.82,3.5,18.01,3.45s12.81-.49,19.2-.76c13.58-.59,27.16-1.19,40.75-1.77,6.68-.28,13.36-.53,20.04-.62s13.35.14,20.02.03c7.55-.13,15.09.38,22.64.26s15.25,0,22.79-1.23c2.91-.48,2.2-5.19-.69-5.11-6.4.19-12.75.26-19.15-.1s-12.81-1.22-19.2-1.87-12.78-1.26-19.24-1.34-12.87.09-19.3.32c-12.91.45-25.81,1.08-38.72,1.63-6.38.27-12.76.55-19.14.82-2.98.13-5.96.29-8.94.35-1.27.02-2.54.03-3.82-.01-.7-.02-1.41-.06-2.11-.11-.28-.02-.56-.04-.84-.07-.14-.01-1.61-.18-1.04-.1.72.09-.63-.1-.61-.1-.41-.07-.82-.14-1.22-.23-.67-.14-1.34-.3-2-.49-.79-.23-1.57-.49-2.33-.79.18.07.78.37-.02-.02-.37-.18-.74-.36-1.11-.56-.42-.23-1.55-.7-1.81-1.13.04.06.82.7.17.12-.25-.22-.5-.43-.73-.66-.44-.42-.86-.86-1.26-1.3-.17-.18-.43-.41-.54-.63.43.92.1.12-.08-.14-.68-1-1.31-2-1.84-3.09-.33-.68,0-.03.04.1-.11-.3-.23-.6-.33-.91-.19-.6-.34-1.21-.45-1.82.03.15.03.78.03.08,0-.3.01-.62,0-.92-.06-.88-.17.39-.02-.1.1-.34.15-.7.25-1.04.06-.19.13-.38.19-.58-.24.74.07-.13.13-.26.12-.23.26-.44.39-.67.08-.13.17-.26.26-.39-.24.3-.23.29.04-.03,1.25-1.47,1.44-3.6,0-5.04-1.3-1.3-3.76-1.45-5.04,0h0Z"/>
    <path class="cls-11" d="M5.66,865.74c-2.69,3.68-4.42,8.62-4.51,13.18-.04,2.4.48,4.71,1.26,6.96,1.01,2.91,2.93,5.08,5.4,6.86,4.48,3.23,10.4,3.69,15.74,3.75,6.28.08,12.57.02,18.85,0,25.31-.09,50.62-.41,75.93-.96,3.58-.08,7.16-.15,10.74-.37s7.16-.54,10.74-.67c7.32-.26,14.59-.46,21.82-1.7,1.54-.26,2.49-2.06,2.27-3.48-.25-1.67-1.5-2.58-3.12-2.75-6.16-.67-12.29-.53-18.48-.42s-11.98-.13-17.98-.07c-12.15.12-24.31.47-36.46.64s-24.31.29-36.47.35c-6.08.03-12.16.05-18.23.06-2.94,0-5.89.02-8.83.01-1.18,0-2.37-.02-3.55-.08-.59-.03-1.19-.07-1.78-.13-.26-.02-.52-.06-.78-.08,1.14.1-.14-.03-.31-.06-1.28-.22-2.48-.6-3.7-1.01.88.29.27.13.07.02-.34-.17-.68-.33-1.01-.51-.22-.12-.44-.25-.65-.39-.29-.18-.89-.7-.31-.19-.42-.37-.82-.74-1.2-1.15-.18-.19-.35-.43-.54-.61-.21-.25-.14-.16.2.25-.24-.36-.51-.7-.8-1.01l-.11-.12c.35.45.38.48.1.1-.12-.23-.25-.5-.4-.7-.34-.48.28.88-.03-.07-.1-.31-.22-.62-.31-.93-.15-.53-.24-1.07-.38-1.6-.04-.16-.12-.76-.01.04-.04-.33-.07-.67-.09-1.01-.07-1.13,0-2.25.07-3.38.04-.69.03-.26,0-.11.06-.34.14-.67.24-1,.15-.55.33-1.1.55-1.62-.19.44.11-.21.16-.31.15-.31.31-.61.47-.91.3-.54.63-1.07.99-1.58.99-1.43.27-3.58-1.16-4.41-1.63-.96-3.38-.25-4.41,1.16h0Z"/>
    <path class="cls-11" d="M12.38,906.3c-4.98,1.16-9.35,5.63-10.79,10.5-1.7,5.74.13,11.45,3.79,15.99,8.15,10.07,22.06,10.04,33.83,9.87,26.92-.38,53.83-.73,80.75-1.14,7.49-.11,14.95-.47,22.43-.87s15.28-1.29,22.93-1.78c3.42-.22,3.47-5.23,0-5.35-12.79-.46-25.57-1.63-38.38-1.46-12.71.17-25.42.35-38.13.53-12.71.18-25.42.37-38.13.55-6.25.09-12.51.3-18.76.22-1.38-.02-2.76-.06-4.14-.16-.69-.05-1.37-.12-2.06-.19-1.45-.14.51.11-.34-.04-.45-.08-.9-.14-1.35-.23-1.39-.26-2.78-.61-4.12-1.06-.47-.16-.93-.33-1.39-.51,1.08.43-.07-.04-.24-.13-.34-.16-.67-.33-.99-.51-.55-.29-1.08-.61-1.6-.95-.21-.13-.41-.27-.62-.41-.2-.14-.4-.29-.6-.43.41.32.48.37.22.16-.95-.87-1.88-1.71-2.7-2.72.65.8.13.15-.02-.07-.2-.3-.4-.6-.58-.92-.15-.26-.3-.52-.43-.79-.12-.23-.54-1.26-.13-.2-.21-.54-.41-1.09-.55-1.65-.06-.25-.08-.55-.17-.79-.06-.35-.05-.21.05.43-.02-.16-.03-.32-.04-.48-.02-.6-.06-1.19-.04-1.78,0-.22.03-.43.04-.65.02-.99-.19.8,0-.1.14-.63.22-1.28.36-1.91.05-.21.11-.41.16-.62.23-.94-.36.66.08-.22.26-.52.54-1.02.85-1.51s-.6.58.08-.1c.22-.22.43-.45.66-.66.15-.14.31-.28.47-.4-.62.49.2-.1.28-.15.22-.13.45-.25.69-.37.23-.11.19-.09-.12.05.2-.07.4-.14.61-.2,1.81-.55,2.96-2.46,2.45-4.32s-2.47-2.88-4.32-2.45h0Z"/>
    <g>
      <g>
        <path class="cls-11" d="M626.13,352.7c-6.12-62.88-50.63-112.76-108.07-128.71-17.1-4.75-35.34-6.49-54.05-4.66-12.04,1.17-23.61,3.75-34.55,7.56-63.2,22-105.59,85-98.82,154.56,7.94,81.6,80.52,141.31,162.12,133.37,81.6-7.94,141.31-80.52,133.37-162.12Z"/>
        <g class="cls-17">
          <ellipse class="cls-16" cx="478.42" cy="262.03" rx="63.69" ry="64"/>
        </g>
        <ellipse class="cls-18" cx="478.42" cy="345.06" rx="117.63" ry="81.3"/>
        <g>
          <circle class="cls-15" cx="563.55" cy="299.81" r="4.62"/>
          <circle class="cls-15" cx="552.46" cy="293.75" r="4.62"/>
          <circle class="cls-15" cx="539.39" cy="292.6" r="4.62"/>
        </g>
        <g>
          <circle class="cls-15" cx="424.7" cy="304.77" r="3.99"/>
          <circle class="cls-15" cx="413.9" cy="303.3" r="3.99"/>
          <circle class="cls-15" cx="403.02" cy="306.4" r="3.99"/>
        </g>
        <path class="cls-8" d="M429.18,759.36c-.42,17.39,20.14,32.05,44.01,33.07,23.86,1.02,46.89-12.18,47.31-29.57.42-17.39-20.53-20.58-44.39-21.6-23.86-1.02-46.5.71-46.92,18.1Z"/>
        <g>
          <path class="cls-11" d="M342.81,616.3c-2.01,72.82,54.72,155.16,127.41,157.63,72.7,2.47,133.84-75.86,135.85-148.69,2.01-72.82-29.72-94.1-129.08-97-96.29-2.81-132.17,15.23-134.18,88.05Z"/>
          <ellipse class="cls-8" cx="476" cy="551.83" rx="23.61" ry="102.3" transform="translate(-89.65 1011.33) rotate(-88.31)"/>
        </g>
        <circle class="cls-7" cx="644.09" cy="487.54" r="46.5"/>
        <circle class="cls-7" cx="289.72" cy="546.33" r="46.5"/>
        <path class="cls-7" d="M428.83,694.55c.77,1.24,1.59,2.43,2.46,3.59,2.73,3.74,5.93,7.14,9.52,10.12.06.05.12.1.19.15l44.15-34.22c2.23-1.94,3.79-4.67,4.19-7.84.18-1.39.12-2.74-.15-4.04-.15-.74-.37-1.47-.65-2.17-.84-2.09-2.46-3.65-2.59-6.01-.02-.42,0-.84.05-1.26.23-1.8,1.11-3.34,2.39-4.43l.53-.41c1.37-.96,3.09-1.44,4.88-1.21,4.46.56,6.76,5.58,8.05,9.4.33.99.61,1.99.82,3.01.44,2.08.62,4.21.54,6.34-.03.8-.1,1.6-.2,2.39-.33,2.63-1.05,5.14-2.08,7.45,0,.01-.01.03-.02.05-1.53,3.42-3.76,6.42-6.48,8.86-2.22,1.97-41.06,31.83-41.06,31.83,5.07,2.31,10.57,3.9,16.39,4.64,5.8.74,11.52.56,16.99-.41,0,0,.02,0,.02,0,4.95-.88,9.69-2.41,14.13-4.49,7.56-3.56,14.25-8.74,19.58-15.17,0,0,.02-.02.02-.03,3.12-3.78,5.77-7.98,7.85-12.53,2.31-5.08,3.9-10.57,4.64-16.38.4-3.18.53-6.32.4-9.42-.09-2.58-.37-5.12-.81-7.6-.87-4.86-2.36-9.53-4.4-13.92-.03-.07-.06-.14-.1-.22-.92-1.94-1.95-3.83-3.07-5.65-.06-.09-.12-.19-.18-.29-.04-.07-.08-.13-.12-.19-.66-1.04-1.35-2.06-2.08-3.05-1.47-2.04-3.08-3.97-4.82-5.81-1.51-1.58-3.12-3.09-4.82-4.5l-44.28,34.34c-2.2,1.94-3.72,4.65-4.12,7.77-.15,1.22-.13,2.43.07,3.59.25,1.57.81,3.06,1.61,4.39.1.13.61.93.62.96.34.63.58,1.3.72,2,.14.72.16,1.47.07,2.2-.24,1.91-1.24,3.55-2.65,4.65-1.42,1.09-3.25,1.65-5.16,1.41-2.55-.32-4.38-2.03-5.64-4.21-.47-.76-.89-1.54-1.26-2.34-.99-2.07-1.7-4.29-2.12-6.6-.45-2.55-.53-5.23-.19-7.93.34-2.67,1.06-5.18,2.12-7.5,1.35-3.03,3.26-5.72,5.57-7.98,3.65-3.57,42.1-32.64,42.1-32.64-5.11-2.34-10.64-3.95-16.51-4.69-30.99-3.92-59.31,18.03-63.23,49.02-1.7,13.43,1.45,26.35,8.09,37Z"/>
        <g>
          <path class="cls-3" d="M483.81,230.39c.13.05.26.11.4.15,3.18,1.09,6.64-.61,7.73-3.79,3.81-11.15,13.09-20.51,24.21-24.42,3.17-1.12,4.84-4.59,3.72-7.76-1.11-3.17-4.59-4.84-7.76-3.72-14.77,5.2-26.62,17.15-31.69,31.97-1.04,3.05.47,6.35,3.39,7.58Z"/>
          <circle class="cls-11" cx="538.79" cy="186.39" r="25.62"/>
        </g>
        <g>
          <circle class="cls-15" cx="543.37" cy="339.51" r="28.03"/>
          <circle class="cls-7" cx="543.37" cy="339.51" r="10.53"/>
        </g>
        <g>
          <circle class="cls-15" cx="415.78" cy="345.03" r="24.17"/>
          <circle class="cls-7" cx="415.78" cy="345.03" r="9.07"/>
        </g>
      </g>
      <g>
        <g>
          <path class="cls-13" d="M551.07,274.14c36.3,0,65.73,29.43,65.73,65.73s-29.43,65.73-65.73,65.73-65.73-29.43-65.73-65.73,29.43-65.73,65.73-65.73M551.07,263.76c-41.97,0-76.11,34.14-76.11,76.11s34.14,76.11,76.11,76.11,76.11-34.14,76.11-76.11-34.14-76.11-76.11-76.11h0Z"/>
          <circle class="cls-6" cx="551.07" cy="339.87" r="65.73"/>
        </g>
        <path class="cls-13" d="M583.96,397.81h29.87v74.47c0,2.84-2.3,5.14-5.14,5.14h-19.58c-2.84,0-5.14-2.3-5.14-5.14v-74.47h0Z" transform="translate(-128.41 291.97) rotate(-24.83)"/>
      </g>
    </g>
  </g>
</svg>