<svg id="Group_216" data-name="Group 216" xmlns="http://www.w3.org/2000/svg" xmlns:xlink="http://www.w3.org/1999/xlink" width="593.852" height="606.141" viewBox="0 0 593.852 606.141">
  <defs>
    <clipPath id="clip-path">
      <rect id="Rectangle_85" data-name="Rectangle 85" width="593.852" height="606.141" fill="none"/>
    </clipPath>
    <clipPath id="clip-path-3">
      <rect id="Rectangle_77" data-name="Rectangle 77" width="289.701" height="289.7" fill="none"/>
    </clipPath>
    <clipPath id="clip-path-5">
      <rect id="Rectangle_83" data-name="Rectangle 83" width="115.752" height="100.129" fill="none"/>
    </clipPath>
    <clipPath id="clip-path-6">
      <rect id="Rectangle_79" data-name="Rectangle 79" width="115.752" height="18.099" fill="none"/>
    </clipPath>
  </defs>
  <g id="Group_215" data-name="Group 215" clip-path="url(#clip-path)">
    <g id="Group_197" data-name="Group 197">
      <g id="Group_196" data-name="Group 196" clip-path="url(#clip-path)">
        <g id="Group_195" data-name="Group 195" transform="translate(146.291 182.48)" opacity="0.212">
          <g id="Group_194" data-name="Group 194">
            <g id="Group_193" data-name="Group 193" clip-path="url(#clip-path-3)">
              <path id="Path_383" data-name="Path 383" d="M236.452,439.793A144.85,144.85,0,1,1,381.3,584.643a144.85,144.85,0,0,1-144.849-144.85" transform="translate(-236.451 -294.943)" fill="#c1d72d"/>
            </g>
          </g>
        </g>
        <path id="Path_384" data-name="Path 384" d="M498.154,730.442a27.835,27.835,0,1,1-28.892-26.736,27.835,27.835,0,0,1,28.892,26.736" transform="translate(-168.729 -268.319)" fill="#414042"/>
        <path id="Path_385" data-name="Path 385" d="M475.054,546.193a2.408,2.408,0,0,1,.7,1.5c.182,4.7-17.151,9.193-38.715,10.029s-39.192-2.3-39.374-7a2.007,2.007,0,0,1,.106-.676c-18.05,17.182-32.027,43.674-31,70.3a72.635,72.635,0,0,0,145.161-5.624c-1.06-27.377-17.218-52.969-36.879-68.528" transform="translate(-139.832 -208.266)" fill="#c0d52e"/>
        <path id="Path_386" data-name="Path 386" d="M416.9,550.549q1.649-1.569,3.342-3.027c-1.854.966-3.015,1.987-3.342,3.027" transform="translate(-158.967 -208.773)" fill="#414042"/>
        <path id="Path_387" data-name="Path 387" d="M539.569,544.41c.468.356.929.735,1.394,1.1a6.082,6.082,0,0,0-1.394-1.1" transform="translate(-205.741 -207.586)" fill="#414042"/>
        <path id="Path_388" data-name="Path 388" d="M456.1,554.248c21.564-.835,38.9-5.325,38.715-10.029a2.414,2.414,0,0,0-.7-1.5c-.465-.367-.926-.747-1.394-1.1-5.284-3.189-20.017-5.068-37.285-4.4-15.726.609-29.193,3.163-35.266,6.325q-1.691,1.463-3.342,3.027a1.993,1.993,0,0,0-.106.676c.182,4.7,17.811,7.839,39.374,7" transform="translate(-158.901 -204.792)" fill="#414042"/>
        <path id="Path_389" data-name="Path 389" d="M488.246,642.135a4.066,4.066,0,0,1,2.584.8c.245.179,4.749,4.395,4.749,4.395a33.269,33.269,0,0,0,.437-15.353,32.62,32.62,0,0,0-1.2-4.294s-20.63,22.293-20.639,22.3a15.41,15.41,0,1,1-11.127-26.648,15.726,15.726,0,0,1,9.435,2.773,4.491,4.491,0,0,1,2.289,3.57,4.08,4.08,0,0,1-.814,2.616,4.181,4.181,0,0,1-.57.612,4.079,4.079,0,0,1-2.545,1.017c-1.378.054-2.326-.717-3.425-1.426a7.121,7.121,0,0,0-4.056-1.04A7.279,7.279,0,0,0,463.93,646a6.967,6.967,0,0,0,4.833-2.134c.4-.423,22.147-23.844,22.107-23.9a33.06,33.06,0,1,0,1.373,35.362s-6.726-6.186-6.914-6.4a4.095,4.095,0,0,1,2.918-6.791" transform="translate(-164.186 -230.943)" fill="#fff"/>
        <path id="Path_390" data-name="Path 390" d="M471.44,217.368c-.084.014-.169.025-.257.033a3.682,3.682,0,0,1-4-3.336,24.338,24.338,0,0,0-10.715-17.818,3.682,3.682,0,0,1,4.022-6.168A31.434,31.434,0,0,1,474.52,213.4a3.683,3.683,0,0,1-3.079,3.966" transform="translate(-173.417 -72.249)" fill="#434343"/>
        <path id="Path_391" data-name="Path 391" d="M414.911,167.752a15.488,15.488,0,1,0,17.98-12.509,15.488,15.488,0,0,0-17.98,12.509" transform="translate(-158.114 -59.101)" fill="#c0d52e"/>
        <path id="Path_392" data-name="Path 392" d="M475.518,248.624a49.008,49.008,0,0,1-96.42-3.78,82.679,82.679,0,0,0-37.223,65.867c-2.009,51.24,42.6,100.684,78.92,102.155,35.411,1.435,84.692-45.074,86.675-95.663a82.682,82.682,0,0,0-31.952-68.58" transform="translate(-130.334 -93.36)" fill="#c0d52e"/>
        <path id="Path_393" data-name="Path 393" d="M448.706,278.636A49.035,49.035,0,0,0,498.5,240.15a82.469,82.469,0,0,0-96.42-3.78,49.034,49.034,0,0,0,46.627,42.266" transform="translate(-153.315 -84.887)" fill="#fff"/>
        <path id="Path_394" data-name="Path 394" d="M502.1,323.647c-1.528,38.973-39.494,74.8-66.774,73.7-27.978-1.133-62.347-39.226-60.8-78.7a63.836,63.836,0,1,1,127.574,5" transform="translate(-142.79 -98.113)" fill="#000289"/>
        <path id="Path_395" data-name="Path 395" d="M537.14,328.133a14.613,14.613,0,1,1-15.453-13.721,14.613,14.613,0,0,1,15.453,13.721" transform="translate(-193.68 -119.877)" fill="#05dbff"/>
        <path id="Path_396" data-name="Path 396" d="M538.164,331.737a10.323,10.323,0,1,1-10.916-9.693,10.322,10.322,0,0,1,10.916,9.693" transform="translate(-197.339 -122.79)" fill="#fff"/>
        <path id="Path_397" data-name="Path 397" d="M552.311,378.644a4.115,4.115,0,0,0-.884-8.147l-8.4.123a4.115,4.115,0,1,0,.119,8.229l8.406-.124a4.11,4.11,0,0,0,.763-.081" transform="translate(-205.512 -141.272)" fill="#05dbff"/>
        <path id="Path_398" data-name="Path 398" d="M407.873,382.934a4.115,4.115,0,0,1,.39-8.185l8.4-.385a4.115,4.115,0,0,1,.379,8.221l-8.4.385a4.125,4.125,0,0,1-.766-.035" transform="translate(-154.176 -142.745)" fill="#05dbff"/>
        <path id="Path_399" data-name="Path 399" d="M441.8,331.018A14.613,14.613,0,1,1,426.343,317.3,14.614,14.614,0,0,1,441.8,331.018" transform="translate(-157.325 -120.977)" fill="#05dbff"/>
        <path id="Path_400" data-name="Path 400" d="M442.819,334.622a10.323,10.323,0,1,1-10.916-9.693,10.323,10.323,0,0,1,10.916,9.693" transform="translate(-160.984 -123.89)" fill="#fff"/>
        <path id="Path_401" data-name="Path 401" d="M319.015,576.084c9.336-21.833,9.5-42.7.355-46.609s-24.119,10.622-33.455,32.454-9.5,42.7-.355,46.609,24.119-10.622,33.455-32.454" transform="translate(-106.311 -201.649)" fill="#fff"/>
        <path id="Path_402" data-name="Path 402" d="M396.579,359.236l-10.794-.491a29.935,29.935,0,0,1-28.467-31.18l.215-4.719a29.933,29.933,0,0,1,31.18-28.466l10.794.49a29.932,29.932,0,0,1,28.466,31.18l-.214,4.719a29.96,29.96,0,0,1-27.535,28.413,30.027,30.027,0,0,1-3.644.054m-25.672-53.048a24.249,24.249,0,0,0-7.952,16.9l-.216,4.719a24.506,24.506,0,0,0,23.293,25.509l10.794.492a24.507,24.507,0,0,0,25.509-23.293l.214-4.719a24.506,24.506,0,0,0-23.291-25.509l-10.794-.491a24.739,24.739,0,0,0-2.978.044,24.271,24.271,0,0,0-14.58,6.343" transform="translate(-136.235 -112.237)" fill="#3f3f3f"/>
        <path id="Path_403" data-name="Path 403" d="M524.044,354.3l-10.794-.491a29.935,29.935,0,0,1-28.467-31.18l.215-4.719a29.933,29.933,0,0,1,31.18-28.466l10.794.49a29.932,29.932,0,0,1,28.466,31.18l-.214,4.719a29.96,29.96,0,0,1-27.535,28.413,30.033,30.033,0,0,1-3.644.054m-25.671-53.047a24.249,24.249,0,0,0-7.952,16.9l-.216,4.719A24.506,24.506,0,0,0,513.5,348.384l10.794.492A24.507,24.507,0,0,0,549.8,325.583l.214-4.719a24.506,24.506,0,0,0-23.291-25.509l-10.794-.491a24.733,24.733,0,0,0-2.978.044,24.271,24.271,0,0,0-14.58,6.343" transform="translate(-184.838 -110.354)" fill="#3f3f3f"/>
        <path id="Path_404" data-name="Path 404" d="M467.189,336.681c.06-.031,6.011-2.9,10.367-.926l2.243-4.945c-6.721-3.043-14.685.84-15.021,1.007Z" transform="translate(-177.222 -125.697)" fill="#3f3f3f"/>
        <path id="Path_405" data-name="Path 405" d="M589.263,422.924c-6.019-22.97-18.7-39.547-28.311-37.027s-12.532,23.184-6.513,46.153,18.7,39.547,28.311,37.027,12.532-23.184,6.513-46.153" transform="translate(-210.216 -147.048)" fill="#fff"/>
      </g>
    </g>
    <text id="_" data-name="?" transform="matrix(0.94, 0.341, -0.341, 0.94, 424.119, 225.645)" fill="#75a501" font-size="184" font-family="BrandonText-Black, Brandon Text" font-weight="800"><tspan x="0" y="0">?</tspan></text>
    <g id="Group_214" data-name="Group 214">
      <g id="Group_213" data-name="Group 213" clip-path="url(#clip-path)">
        <path id="Path_406" data-name="Path 406" d="M74.657,338.094l12.1,9.013,14.231-5.008a4.72,4.72,0,0,1,6.038,5.964l-4.834,14.291,9.161,11.987a4.719,4.719,0,0,1-3.807,7.585l-15.085-.181L83.89,394.16a4.719,4.719,0,0,1-8.39-1.276l-4.489-14.4-14.457-4.312a4.72,4.72,0,0,1-1.379-8.374l12.311-8.72-.366-15.082a4.719,4.719,0,0,1,7.538-3.9" transform="translate(-20.278 -128.557)" fill="#75a501"/>
        <path id="Path_407" data-name="Path 407" d="M719.035,775.065h0Zm-1.534.175c1.169,13.3,6.087,24.771,14.274,33.258a45.75,45.75,0,0,0,33.317,13.8,50.554,50.554,0,0,0,15.614-2.486,32.849,32.849,0,0,1-13.239,15.379c-9,5.722-21.115,8.624-36,8.624-3.606,0-7.41-.176-11.305-.524-.315-.028-.635-.042-.952-.042a10.918,10.918,0,0,0-7.612,3.111c-2.968,2.869-8.534,5.146-13.6,6.621a45.021,45.021,0,0,0,2.613-3.766,10.809,10.809,0,0,0-2.715-14.345,54.478,54.478,0,0,1-10.562-10.531c-3.83-5.19-5.772-10.333-5.772-15.287,0-6.377,4.169-14.439,10.881-21.039A45.338,45.338,0,0,1,717.5,775.24m66.158,43.52h0M718.9,768.884c-.142,0-.286.007-.431.02-23.517,2.167-43.1,23.651-43.1,40.151,0,14.437,12.357,25.876,18.784,30.748a4.669,4.669,0,0,1,1.19,6.162,48.128,48.128,0,0,1-8.3,9.783c-2.258,2.031-1.154,5.3,1.794,5.3.079,0,.16,0,.242-.007,5.057-.3,20.025-3.669,26.815-10.232a4.784,4.784,0,0,1,3.312-1.373c.133,0,.267.006.4.018q6.246.557,11.855.548c34.613,0,51.528-15.128,56.166-31.331a4.681,4.681,0,0,0-6.22-5.676,45.108,45.108,0,0,1-16.316,3.116c-23.224,0-39.9-17.466-41.54-42.882a4.669,4.669,0,0,0-4.654-4.346" transform="translate(-257.522 -293.18)" fill="#75a501"/>
        <path id="Path_408" data-name="Path 408" d="M847.47,828.989h0Zm-.158,3.259c5.028,5,7.213,10.935,7.213,19.293,0,8.813-2.626,16.467-15.445,25.179a10.812,10.812,0,0,0-4.412,11.585,18.585,18.585,0,0,0,2.068,5.139,42.927,42.927,0,0,1-11.074-5.919,10.85,10.85,0,0,0-6.529-2.19c-.107,0-.213,0-.322.005-.742.022-1.6.052-2.543.087-2.913.107-6.54.24-10.629.24-3.239,0-6.234-.084-9.017-.254a81.211,81.211,0,0,0,31.451-16.727c11.531-10.139,18.137-22.68,19.238-36.438m-1.323-7.924a4.667,4.667,0,0,0-4.705,4.56c-.479,28.5-27.443,47.766-54.594,52.442-5.206.9-5.2,8.4.013,9.242a122.357,122.357,0,0,0,18.936,1.285c5.561,0,10.369-.242,13.355-.33l.139,0a4.6,4.6,0,0,1,2.786.929c6.54,4.969,14.3,7.745,23.052,10.012a10.14,10.14,0,0,0,2.525.357c4.83,0,4.854-4.8,1.845-6.307-1.951-.975-7.046-3.368-8.68-9.745a4.612,4.612,0,0,1,1.9-4.932c14.375-9.771,18.154-19.152,18.154-30.3,0-9.435-2.327-18.456-11.818-26.173a4.561,4.561,0,0,0-2.9-1.043" transform="translate(-298.481 -314.319)" fill="#75a501"/>
        <path id="Path_409" data-name="Path 409" d="M832.96,758.473a31.453,31.453,0,1,1-31.453-31.453,31.453,31.453,0,0,1,31.453,31.453" transform="translate(-293.626 -277.217)" fill="#c1d72e"/>
        <path id="Path_410" data-name="Path 410" d="M56.91,31.432c1.183,0,2.144.008,2.78.026,6.345.181,10.185,3.947,10.022,9.827C69.6,45.374,72.6,59.954,73.3,61.693l.269.606c1.033,2.265,3.776,8.282-2.2,14.111-1.265,1.418-7.227,8.036-10.622,11.405,3.9,7.286,21.83,33.678,41.246,41.475,2.206-2.422,6.548-7.151,9.706-10.347,2.852-2.887,5.933-4.351,9.157-4.351a11.69,11.69,0,0,1,5.706,1.566c2.126,1.181,14.751,3.094,19.989,3.219,2.748.065,11.111.264,10.91,9.7v23.607c0,4.867-1.969,10.668-11.351,10.668-.85.026-1.784.039-2.719.039C83.216,163.388,28.195,107.134,25.641,43c-.1-2.619.027-6.389,2.358-8.889a8.059,8.059,0,0,1,5.9-2.41c.513,0,2.186-.027,4.5-.063C43.645,31.562,52.144,31.432,56.91,31.432Zm45.966,104.575a3.089,3.089,0,0,1-.986-.162C77.526,127.647,55.571,93.4,54.04,87.887a3.093,3.093,0,0,1,1.048-3.243c1.5-1.2,8.042-8.313,11.814-12.515,2.806-2.746,2.225-4.652,1.035-7.263l-.362-.819c-1.024-2.487-4.182-18.116-4.049-22.932.045-1.622-.224-3.362-4.014-3.47-.6-.017-1.495-.024-2.6-.024-4.741,0-13.2.13-18.418.209-2.363.036-4.072.062-4.5.062a2.159,2.159,0,0,0-1.468.444c-.253.271-.828,1.246-.7,4.424C34.251,103.723,86.384,157.2,143.387,157.2c.876,0,1.751-.013,2.63-.038,4.473,0,5.253-1.175,5.253-4.482V129.008c.044-2.1.07-3.328-4.871-3.446-4.2-.1-18.906-1.806-22.847-4a5.529,5.529,0,0,0-2.7-.788c-1.509,0-3.109.845-4.756,2.512-4.326,4.377-10.911,11.683-10.921,11.694A3.094,3.094,0,0,1,102.876,136.008Z" transform="translate(-9.768 -11.985)" fill="#75a501"/>
        <g id="Group_212" data-name="Group 212" transform="translate(2.211 479.094)" opacity="0.53">
          <g id="Group_211" data-name="Group 211">
            <g id="Group_210" data-name="Group 210" clip-path="url(#clip-path-5)">
              <g id="Group_200" data-name="Group 200">
                <g id="Group_199" data-name="Group 199">
                  <g id="Group_198" data-name="Group 198" clip-path="url(#clip-path-6)">
                    <path id="Path_411" data-name="Path 411" d="M111.052,792.461h-99.2a8.3,8.3,0,0,1-8.274-8.274v-1.55a8.3,8.3,0,0,1,8.274-8.274h99.2a8.3,8.3,0,0,1,8.274,8.274v1.55a8.3,8.3,0,0,1-8.274,8.274" transform="translate(-3.574 -774.362)" fill="#c1d72e"/>
                  </g>
                </g>
              </g>
              <g id="Group_203" data-name="Group 203" transform="translate(0 27.343)">
                <g id="Group_202" data-name="Group 202">
                  <g id="Group_201" data-name="Group 201" clip-path="url(#clip-path-6)">
                    <path id="Path_412" data-name="Path 412" d="M111.052,836.656h-99.2a8.3,8.3,0,0,1-8.274-8.274v-1.55a8.3,8.3,0,0,1,8.274-8.274h99.2a8.3,8.3,0,0,1,8.274,8.274v1.55a8.3,8.3,0,0,1-8.274,8.274" transform="translate(-3.574 -818.557)" fill="#c1d72e"/>
                  </g>
                </g>
              </g>
              <g id="Group_206" data-name="Group 206" transform="translate(0 54.687)">
                <g id="Group_205" data-name="Group 205">
                  <g id="Group_204" data-name="Group 204" clip-path="url(#clip-path-6)">
                    <path id="Path_413" data-name="Path 413" d="M111.052,880.852h-99.2a8.3,8.3,0,0,1-8.274-8.274v-1.55a8.3,8.3,0,0,1,8.274-8.274h99.2a8.3,8.3,0,0,1,8.274,8.274v1.55a8.3,8.3,0,0,1-8.274,8.274" transform="translate(-3.574 -862.753)" fill="#c1d72e"/>
                  </g>
                </g>
              </g>
              <g id="Group_209" data-name="Group 209" transform="translate(0 82.03)">
                <g id="Group_208" data-name="Group 208">
                  <g id="Group_207" data-name="Group 207" clip-path="url(#clip-path-6)">
                    <path id="Path_414" data-name="Path 414" d="M111.052,925.047h-99.2a8.3,8.3,0,0,1-8.274-8.274v-1.55a8.3,8.3,0,0,1,8.274-8.274h99.2a8.3,8.3,0,0,1,8.274,8.274v1.55a8.3,8.3,0,0,1-8.274,8.274" transform="translate(-3.574 -906.948)" fill="#c1d72e"/>
                  </g>
                </g>
              </g>
            </g>
          </g>
        </g>
        <path id="Path_415" data-name="Path 415" d="M173.152,889.254a6.087,6.087,0,0,1,7.6-8.072l23.174,7.919,26.933,9.2a6.087,6.087,0,0,1,2.464,9.931l-28.814,2.921-1.174,28.938a6.087,6.087,0,0,1-10.062-1.859l-10.814-26.328Z" transform="translate(-65.844 -335.87)" fill="#75a501"/>
        <path id="Path_416" data-name="Path 416" d="M908.053,554.13l.611,15.074,12.85,7.905a4.72,4.72,0,0,1-.835,8.446l-14.147,5.239-3.548,14.663a4.72,4.72,0,0,1-8.29,1.816l-9.355-11.836L870.3,596.594a4.719,4.719,0,0,1-4.289-7.322l8.365-12.555-5.748-13.948a4.719,4.719,0,0,1,5.639-6.342L888.79,560.5l11.489-9.777a4.72,4.72,0,0,1,7.775,3.4" transform="translate(-329.908 -209.563)" fill="#c1d72e"/>
        <path id="Path_417" data-name="Path 417" d="M614.294,20.675l2.744,14.834,13.841,6a4.72,4.72,0,0,1,.372,8.479l-13.26,7.194L616.559,72.2a4.72,4.72,0,0,1-7.948,2.974L597.672,64.787l-14.726,3.28a4.719,4.719,0,0,1-5.285-6.64l6.5-13.614-7.67-12.991a4.72,4.72,0,0,1,4.682-7.078l14.956,1.975,9.985-11.309a4.72,4.72,0,0,1,8.178,2.266" transform="translate(-219.565 -6.41)" fill="#eaf4b5"/>
        <path id="Path_418" data-name="Path 418" d="M497.51,873.149a70.276,70.276,0,0,1-5.127,4.914c-.864.749-1.742,1.5-2.672,2.171-1.007.722-2.1,1.328-3.116,2.032a103.416,103.416,0,0,1-13.191,7.758,91.254,91.254,0,0,1-14.266,5.571q-3.751,1.117-7.592,1.9a66.362,66.362,0,0,1-7.085,1.075,58.889,58.889,0,0,1-7.007.264q-1.639-.04-3.274-.184-.741-.066-1.477-.155c-.061-.007-.5-.062-.223-.026.249.032-.093-.013-.118-.017-.273-.04-.546-.08-.818-.124a41.483,41.483,0,0,1-5.818-1.36q-1.368-.428-2.7-.955c-.113-.045-.632-.256-.431-.173.224.093-.334-.145-.423-.184q-.681-.3-1.35-.63a37.6,37.6,0,0,1-4.742-2.779q-.524-.361-1.036-.739-.255-.189-.508-.382c-.2-.153.072.054.092.07-.118-.093-.238-.187-.356-.282q-1.063-.853-2.067-1.776a44.268,44.268,0,0,1-3.8-3.97q-.418-.495-.825-1-.2-.254-.4-.511c.289.369-.144-.19-.219-.291q-.848-1.129-1.635-2.3c-1.073-1.6-2.062-3.251-2.98-4.942a18.39,18.39,0,0,1-2.462-6.545c.007.058.027.221,0-.038q-.023-.251-.036-.5c-.014-.291-.017-.582-.006-.872.007-.165.017-.33.033-.493,0,.052-.04.246,0-.018a7.176,7.176,0,0,1,.259-1.074,3.9,3.9,0,0,1,.572-1.157c.05-.077.1-.152.156-.228.182-.272-.233.257-.012.02.163-.176.319-.355.494-.52.129-.12.513-.411.164-.163.192-.137.388-.268.593-.389.179-.105.365-.2.55-.29.225-.115-.1.035-.123.044.139-.056.279-.108.421-.156a10.81,10.81,0,0,1,1.321-.335c.393-.081-.337.012.233-.024.249-.016.5-.031.746-.033q.329,0,.658.016a4.329,4.329,0,0,0,.458.032c-.262-.032.357.063.455.082q.421.085.835.2.321.091.637.2c.12.043.239.088.358.134-.029-.011-.325-.145-.092-.04a10.4,10.4,0,0,1,1.338.723c.186.119.367.244.544.377-.333-.249.1.1.2.192a11.06,11.06,0,0,1,1.118,1.191c-.151-.184.282.39.339.474.15.222.293.449.429.68a13.658,13.658,0,0,1,.785,1.534c-.106-.246.169.452.2.543q.117.329.22.662c.185.6.338,1.2.465,1.815a16.885,16.885,0,0,1,.377,3.178,31.787,31.787,0,0,1-.043,3.561q-.051.778-.133,1.552c-.027.256-.057.51-.087.765-.044.373.045-.309-.007.063q-.038.272-.08.544a42.886,42.886,0,0,1-1.466,6.3,38.009,38.009,0,0,1-2.292,5.786,47.4,47.4,0,0,1-3.235,5.62q-.459.686-.943,1.356-.225.313-.456.622c-.088.118-.176.235-.265.352-.067.089-.2.259-.056.074q-1.019,1.3-2.123,2.533a48.271,48.271,0,0,1-4.735,4.6q-.587.5-1.191.976c-.115.091-.23.182-.346.272.038-.029.216-.165.014-.012-.263.2-.527.4-.794.59q-1.289.936-2.64,1.784a44.809,44.809,0,0,1-5.815,3.078c-.1.045-.2.088-.3.131.315-.135-.025.011-.076.031-.238.1-.475.192-.713.286q-.818.319-1.649.605-1.559.536-3.158.948-1.548.4-3.123.676a26.152,26.152,0,0,1-2.9.382,43.625,43.625,0,0,1-6.577.089q-.767-.047-1.532-.121-.382-.036-.764-.08-.218-.024-.436-.051c-.072-.009-.561-.075-.171-.02q-1.632-.228-3.246-.571A47.884,47.884,0,0,1,357,916.284a40.894,40.894,0,0,1-5.712-2.533,48.052,48.052,0,0,1-5.521-3.412c-1.006-.72-1.376-1.006-2.332-1.805q-1.264-1.056-2.451-2.2c-1.573-1.52-3.072-3.131-4.5-4.79-.614-.715-1.14-1.371-1.738-2.182a24.519,24.519,0,0,1-1.854-2.741c-1.032-1.9-3.931-.206-2.9,1.693a64.3,64.3,0,0,0,3.445,5.991,31.036,31.036,0,0,0,2.282,2.943,34.308,34.308,0,0,0,2.436,2.529,49.544,49.544,0,0,0,11.471,8.115,48.544,48.544,0,0,0,27.426,5.258,46.739,46.739,0,0,0,25.573-11.654,49.55,49.55,0,0,0,14.852-23.658,38.163,38.163,0,0,0,1.387-14.4c-.6-5.013-2.646-10.359-7.3-12.928-3.859-2.13-9.081-2.328-12.675.452a9.385,9.385,0,0,0-3.493,6.948,17.3,17.3,0,0,0,2,8.315,50.874,50.874,0,0,0,15.177,18.961,42.52,42.52,0,0,0,23.442,8.045c10.515.546,21.258-1.874,31.028-5.629a99.56,99.56,0,0,0,15.114-7.289,75.551,75.551,0,0,0,6.576-4.392c1.146-.854,2.162-1.823,3.243-2.754.956-.825,1.938-1.621,2.89-2.453a70.357,70.357,0,0,0,5.19-5.021c1.578-1.693-.952-4.239-2.547-2.547" transform="translate(-125.745 -327.502)" fill="#c1d72d"/>
        <path id="Path_419" data-name="Path 419" d="M23.787,454.66a70.617,70.617,0,0,0-2.49,7.147c-.732,2.521-1.579,5.042-2.1,7.613a88.228,88.228,0,0,0-1.688,16.566,86.537,86.537,0,0,0,5.4,32.25c3.2,8.217,8.091,15.61,15.186,20.954A45.123,45.123,0,0,0,59.2,547.4c4.385.6,9.243,1.2,13.522-.248a10.377,10.377,0,0,0,5.93-4.62,9.581,9.581,0,0,0,.8-6.827,12.584,12.584,0,0,0-10.118-9.311c-5.761-.949-11.481,1.213-16.351,4.157a47.862,47.862,0,0,0-18.438,20.911,48.742,48.742,0,0,0-4.073,27.873,46.59,46.59,0,0,0,12.695,24.782,50.566,50.566,0,0,0,11.224,8.747,40.091,40.091,0,0,0,13.155,4.979c1.129.187,2.245.343,3.579.465,1.135.1,2.272.086,3.406.162a1.678,1.678,0,0,0,0-3.355,30.44,30.44,0,0,1-6.212-1.32c-2.077-.606-4.145-1.285-6.158-2.078q-.359-.141-.716-.288c-.413-.17-.168-.072-.079-.033l-.4-.176q-.756-.334-1.5-.7-1.489-.723-2.925-1.55t-2.813-1.752q-.642-.432-1.271-.883-.314-.226-.624-.457c-.119-.088-.236-.177-.354-.265-.086-.065-.262-.2-.076-.057a48.184,48.184,0,0,1-4.938-4.425q-1.155-1.188-2.228-2.454c-.807-.953-1.2-1.457-1.834-2.329a45.805,45.805,0,0,1-3.439-5.514q-.772-1.46-1.433-2.976c-.02-.045-.2-.462-.1-.241.083.2-.056-.137-.058-.141-.11-.273-.22-.545-.325-.819q-.3-.771-.564-1.554a41.351,41.351,0,0,1-1.612-6.3c-.049-.289-.1-.579-.14-.869-.016-.109-.032-.218-.048-.327-.054-.371.038.31-.009-.062-.068-.545-.128-1.091-.176-1.638q-.143-1.64-.16-3.287t.087-3.29q.048-.767.123-1.532c.025-.255.053-.51.082-.764q.025-.218.052-.436c.009-.072.078-.561.022-.171a48.19,48.19,0,0,1,1.35-6.34q.454-1.588,1.016-3.142.262-.726.548-1.442.142-.358.29-.714c-.131.314.013-.029.034-.077.074-.168.147-.337.222-.5a48.426,48.426,0,0,1,3.035-5.741q.868-1.4,1.831-2.746.225-.313.455-.621c.053-.072.443-.588.251-.338.358-.465.728-.919,1.1-1.369a45.174,45.174,0,0,1,4.581-4.723q.574-.51,1.166-1,.3-.245.6-.484c.114-.092.229-.182.344-.272.317-.248-.4.3.159-.121.853-.634,1.719-1.246,2.614-1.82a31.834,31.834,0,0,1,6.355-3.241,16.151,16.151,0,0,1,7.32-1.07,11.29,11.29,0,0,1,1.582.33c.3.083.584.192.879.281.077.024.394.162.017,0,.121.053.24.109.358.168a13.722,13.722,0,0,1,1.194.71c.348.22.108.069.03.008.105.081.208.168.309.254q.3.26.588.543.249.247.48.511c.078.088.453.561.22.249a10.706,10.706,0,0,1,.853,1.343c.109.2.209.41.305.619.108.234-.02-.048-.033-.08.046.121.093.243.136.365a14.238,14.238,0,0,1,.384,1.489c-.1-.422.006.067.017.254.014.218.019.437.014.656,0,.121-.05.7-.019.446.038-.3-.017.092-.033.163-.027.121-.052.243-.083.363-.054.212-.125.416-.194.624-.13.4-.033.069.006-.01-.058.113-.111.228-.173.34-.109.2-.231.389-.358.577s0,.007.03-.026c-.11.139-.23.272-.352.4a6.364,6.364,0,0,1-2.152,1.468c.1-.043-.4.142-.54.189-.241.079-.486.15-.731.215s-.5.123-.75.174q-.217.044-.436.082c-.049.009-.612.093-.365.06.105-.014-.436.045-.594.058q-.391.033-.783.051c-.556.026-1.113.031-1.67.019-.982-.022-1.966-.088-2.946-.166q-1.409-.112-2.813-.288l-.371-.048c.024,0,.39.058.13.017-.215-.034-.43-.062-.645-.094q-.731-.111-1.46-.241a49.963,49.963,0,0,1-5.316-1.247q-1.247-.367-2.472-.806-.63-.226-1.252-.471-.29-.115-.578-.233l-.246-.1c.459.192.056.022-.04-.02A41.351,41.351,0,0,1,43.37,537.4q-1.1-.674-2.16-1.422-.549-.39-1.085-.8c-.2-.153.075.057.094.072l-.283-.224q-.283-.227-.562-.458a38.255,38.255,0,0,1-3.992-3.848c-.64-.713-1.257-1.45-1.844-2.208.249.322-.109-.149-.184-.249q-.206-.276-.408-.557-.466-.649-.908-1.314a48.27,48.27,0,0,1-3.071-5.35q-.342-.689-.662-1.389-.163-.354-.321-.712c-.061-.137-.12-.275-.181-.412l-.089-.208q.093.225,0,.009-.675-1.615-1.253-3.269a74.043,74.043,0,0,1-2.1-7.142A84.974,84.974,0,0,1,22.1,492.515a96.023,96.023,0,0,1,.368-15.747c.149-1.4.284-2.4.46-3.739.031-.235.161-1.121.234-1.589.1-.632.2-1.263.316-1.894.236-1.325.286-2.461.574-3.762.267-1.21.579-2.41.927-3.6q.979-3.338,2.28-6.568A1.813,1.813,0,0,0,26,453.4a1.846,1.846,0,0,0-2.216,1.258" transform="translate(-6.673 -172.859)" fill="#c1d72d"/>
        <path id="Path_420" data-name="Path 420" d="M817.592,423.346c2.179,6.168,4.293,12.364,6.927,18.355a2.536,2.536,0,0,0,4.629-1.951c-1.648-6.085-3.842-12.01-5.941-17.951a2.912,2.912,0,1,0-5.615,1.548" transform="translate(-311.7 -160.011)" fill="#c1d72d"/>
        <path id="Path_421" data-name="Path 421" d="M817.592,423.346c2.179,6.168,4.293,12.364,6.927,18.355a2.536,2.536,0,0,0,4.629-1.951c-1.648-6.085-3.842-12.01-5.941-17.951a2.912,2.912,0,1,0-5.615,1.548" transform="translate(-311.7 -160.011)" fill="#c1d72d"/>
        <path id="Path_422" data-name="Path 422" d="M869.381,375.4l13.127,14.177c4.377,4.727,8.735,9.457,13.315,13.989a2.677,2.677,0,0,0,3.741,0,2.713,2.713,0,0,0,0-3.741c-4.171-4.919-8.557-9.633-12.938-14.366L873.5,371.28a2.934,2.934,0,0,0-4.117,0,2.974,2.974,0,0,0,0,4.117" transform="translate(-331.184 -141.25)" fill="#c1d72d"/>
        <path id="Path_423" data-name="Path 423" d="M903.667,313.523c5.93.364,11.909.861,17.85.739a2.562,2.562,0,0,0,2.51-2.216,2.519,2.519,0,0,0-1.831-2.8c-6.128-.879-12.352-1.163-18.529-1.542a2.929,2.929,0,0,0-2.912,2.912,2.979,2.979,0,0,0,2.912,2.912" transform="translate(-343.462 -117.326)" fill="#c1d72d"/>
        <path id="Path_424" data-name="Path 424" d="M259.025,124.4c6.117-1.538,12.272-2.988,18.26-4.982a2.533,2.533,0,1,0-1.346-4.884c-6.224,1.078-12.339,2.711-18.461,4.25a2.912,2.912,0,0,0,1.548,5.615" transform="translate(-97.357 -43.651)" fill="#c1d72d"/>
        <path id="Path_425" data-name="Path 425" d="M215.434,56.993,230.894,45.15c5.264-4.032,10.533-8.041,15.616-12.3a2.648,2.648,0,0,0-3.205-4.154c-5.274,3.687-10.364,7.606-15.472,11.519L212.5,51.965a2.992,2.992,0,0,0-1.045,3.984c.768,1.19,2.691,2.035,3.984,1.044" transform="translate(-80.471 -10.799)" fill="#c1d72d"/>
        <path id="Path_426" data-name="Path 426" d="M157.371,20.977c.952-6.114,2.05-12.271,2.5-18.444a2.56,2.56,0,0,0-5.021-.68c-1.389,5.771-2.182,11.713-3.1,17.576a2.989,2.989,0,0,0,2.034,3.582c1.393.317,3.331-.424,3.582-2.034" transform="translate(-57.847 0)" fill="#c1d72d"/>
        <path id="Path_427" data-name="Path 427" d="M585.763,68.536c2.084-.7,4.188-1.546,6.33-2.055a6.86,6.86,0,0,1,1.139-.057,10.914,10.914,0,0,0,1.883-.355c1.071-.263,2.093-.667,3.152-.97l.279-.078q.524-.107.077-.038l.283,0q-.432-.081-.137,0c.386.11-.5-.376.07.035.079.057.709.53.2.109A22.494,22.494,0,0,1,601,67c1.2,1.268,2.295,2.625,3.407,3.968,2.407,2.907,5.109,6.138,8.713,7.552a6.4,6.4,0,0,0,6.606-1.4,9.088,9.088,0,0,0,2.675-5.446c.383-2.49.486-5.032.686-7.541l.609-7.617-2.136,2.806c3.949-1.249,8.05-2.6,11.461-5.015,3.89-2.751,8.2-7.708,5.909-12.751a9.846,9.846,0,0,0-4.793-4.3c-2.275-1.126-4.625-2.119-6.935-3.171-1.175-.535-2.352-1.067-3.525-1.6-.421-.194-.841-.39-1.25-.608-.238-.127-.473-.261-.7-.406-.1-.061-.187-.133-.285-.192-.329-.2.309.315.051.035-.148-.162-.319-.322-.476-.476-.27-.264.179.4.05.045a2.265,2.265,0,0,0-.187-.329c.23.39-.022-.1-.074-.3-.082-.3-.123-.609-.189-.913-.072-.335,0,.057.01.109-.027-.187-.047-.376-.07-.562q-.056-.447-.111-.894c-.105-.853-.193-1.711-.324-2.559-.22-1.419-.533-2.834-.854-4.233a22.851,22.851,0,0,0-.808-3.116c-.864-2.253-2.455-4.585-5.172-4.407a1.867,1.867,0,0,0-.494,3.648l.176.058q-.278-.114.014.038l-.137-.119.263.213a4.206,4.206,0,0,1,.369.366c-.322-.358.028.071.075.153.037.063.3.617.1.149a5.569,5.569,0,0,1,.191.551,10.438,10.438,0,0,1,.3,1.375c-.092-.585.029.41.037.54.037.559.037,1.119.053,1.68.036,1.288.064,2.592.191,3.874.108,1.083.262,2.165.4,3.244a10.829,10.829,0,0,0,1.171,4.261c1.149,1.962,3.131,3.045,5.128,3.956l6.566,2.994c1.041.475,2.089.937,3.123,1.427.329.155.654.317.973.49a4.364,4.364,0,0,1,1.3.8c-.388-.517-.085-.065.074.079s.291.294.439.441c.459.452-.245-.514.032.057l.1.173q.213.426-.044-.149a1.679,1.679,0,0,1,.158.59c.092-.745-.053.066-.066.2.05-.575.012-.134-.036-.014q-.068.251-.159.495.194-.436-.021.025c-.23.416-.454.829-.719,1.226-.124.185-.255.365-.385.546.426-.589-.014,0-.1.1a17.3,17.3,0,0,1-1.9,1.841c-.564.486.5-.34-.113.088-.244.171-.484.346-.732.511-.438.291-.887.564-1.345.822-.866.488-1.761.911-2.666,1.318-.711.32.569-.22-.157.066-.288.114-.574.23-.862.342q-.758.29-1.525.558c-1.012.355-2.032.685-3.054,1.008a3.024,3.024,0,0,0-2.136,2.805q-.5,6.246-.992,12.491c-.036.452-.075.9-.124,1.354.071-.649-.04.231-.053.3-.033.177-.07.353-.112.528-.063.263-.147.517-.225.775-.036.122-.241.455-.015.053-.108.192-.219.384-.327.575-.278.495.352-.312-.1.11-.105.1-.215.2-.317.307.47-.471.032-.05-.121.055-.5.342.109-.027.108-.024l-.2.065q-.483.107.138.008a1.773,1.773,0,0,1-.463,0c.673.022-.016-.055-.181-.105.117.035.489.262.014,0-.255-.144-.507-.286-.751-.447-.173-.114-.34-.236-.509-.355-.447-.316-.09-.065,0,0q-.482-.384-.941-.8c-.674-.6-1.311-1.247-1.923-1.912-1.152-1.25-2.217-2.576-3.3-3.882-2.374-2.855-5.355-6.9-9.519-6.338a14.9,14.9,0,0,0-3.474,1.084c-.689.276-1.374.573-2.043.894-.6.29-1.045.753-1.609,1.094a17.578,17.578,0,0,1-2.731,1.011c-1.138.417-2.281.822-3.424,1.226a2.1,2.1,0,0,0-1.43,2.518,2.067,2.067,0,0,0,2.518,1.43" transform="translate(-222.366 -5.213)" fill="#c1d72d"/>
        <path id="Path_428" data-name="Path 428" d="M612.387,26.632c-.854,1.134-1.714,2.264-2.549,3.412a1.525,1.525,0,0,0-.154,1.176,1.579,1.579,0,0,0,.547.793,1.453,1.453,0,0,0,.924.328,1.482,1.482,0,0,0,1.079-.447c.889-1.107,1.753-2.233,2.624-3.355a1.578,1.578,0,0,0,.4-.695l.056-.418a1.516,1.516,0,0,0-.62-1.236,1.5,1.5,0,0,0-1.163-.309,1.168,1.168,0,0,0-.585.187,1.581,1.581,0,0,0-.564.564" transform="translate(-232.455 -9.863)" fill="#c1d72d"/>
        <path id="Path_429" data-name="Path 429" d="M583.3,32.629c-2-.318-3.964-.543-5.849-.749a6.175,6.175,0,0,0-2.711.2,4.454,4.454,0,0,0-2.217,1.808,6.005,6.005,0,0,0-.605,4.692,12.289,12.289,0,0,0,2.816,4.653,1.528,1.528,0,0,0,2.4-1.849c-.411-.567-.814-1.14-1.2-1.725a9.239,9.239,0,0,1-.569-.971c-.025-.049-.193-.46-.1-.2-.056-.149-.109-.3-.155-.452s-.071-.314-.119-.466c-.1-.308.009.284-.022-.14a4.588,4.588,0,0,1,.014-.84c-.045.41.01.025.036-.072.038-.145.09-.284.137-.426q.068-.174-.044.11c.036-.075.076-.149.116-.222.06-.109.139-.21.195-.319-.158.307-.06.072.046-.037.057-.059.116-.116.179-.17l-.155.115a1.12,1.12,0,0,1,.374-.225,2.127,2.127,0,0,1,.207-.093q-.247.1.039,0c.158-.038.311-.08.471-.11-.326.061.134-.006.206-.01.39-.022.78-.01,1.17,0a36.044,36.044,0,0,1,4.514.491,1.589,1.589,0,0,0,1.906-1.082,1.567,1.567,0,0,0-1.082-1.906" transform="translate(-217.992 -12.133)" fill="#c1d72d"/>
        <path id="Path_430" data-name="Path 430" d="M581.526,62.8c.283.175.057-.066.219.225a.683.683,0,0,1,.127.35,2.426,2.426,0,0,1-.087,1.112,28.042,28.042,0,0,1-1.476,3.63c-1.171,2.688-2.385,5.368-3.449,8.1-.634,1.628,2,2.709,2.811,1.185,1.613-3.042,3.048-6.186,4.539-9.289a9.479,9.479,0,0,0,1.32-4.484,4.669,4.669,0,0,0-2.207-3.905c-1.982-1.166-3.744,1.87-1.8,3.075" transform="translate(-219.923 -22.673)" fill="#c1d72d"/>
        <path id="Path_431" data-name="Path 431" d="M5.619,774.458c-3.177,1.134-4.773,4.117-5.227,7.3-.048.34-.1.686-.132,1.029-.046.463,0,.077.012-.014-.054.519-.146,1.035-.2,1.555a11.59,11.59,0,0,0,.116,3.318,7.661,7.661,0,0,0,3.2,4.933c2.925,2.073,6.828,2.044,10.257,2.106,4.186.077,8.373.03,12.558-.087,8.377-.233,16.742-.74,25.114-1.077s16.777-.458,25.168-.345c2.352.032,4.71.148,7.061.119s4.7-.1,7.057-.153c4.744-.1,9.509.1,14.253.177a1.824,1.824,0,0,0,1.8-1.8,1.845,1.845,0,0,0-1.8-1.8c-3.975-.529-7.96-.945-11.953-1.3s-7.957-.88-11.968-.972q-11.973-.276-23.948.07c-7.969.23-15.929.7-23.895,1.033-3.929.165-7.859.3-11.792.348-3.742.049-7.55.165-11.284-.146-.184-.015-.368-.036-.551-.053-.621-.054.559.1-.107-.014-.36-.065-.718-.131-1.073-.218a3.539,3.539,0,0,1-1.227-.376c.031.03.6.3.113.043-.183-.1-.368-.186-.545-.293-.034-.02-.614-.361-.215-.12.366.221-.262-.23-.335-.3-.1-.095-.191-.2-.289-.293-.426-.424.251.5-.1-.143-.1-.19-.207-.373-.3-.568q-.116-.262.028.054-.064-.183-.115-.371c-.059-.209-.106-.419-.153-.63q-.073-.426-.036-.173.064.467-.08-.6c.058.391-.017-.047-.025-.107-.038-.294-.058-.593-.079-.888a7.73,7.73,0,0,1,0-1.123c.011-.137.027-.275.035-.413.037-.552-.065.285.025-.217.074-.41.15-.816.261-1.217.09-.325.193-.645.3-.963.217-.634-.25.531.118-.28q.2-.473.041-.1.082-.173.176-.34c.026-.061.213-.327,0-.048a3.953,3.953,0,0,1,.394-.4c.405-.392-.171.092.113-.08.066-.041.622-.32.3-.189a2.074,2.074,0,0,0,1.4-2.474,2.029,2.029,0,0,0-2.474-1.405" transform="translate(0 -295.27)" fill="#c1d72d"/>
        <path id="Path_432" data-name="Path 432" d="M2.63,822.357A10.127,10.127,0,0,0,.638,831.33a11.508,11.508,0,0,0,6.1,7.64,24.03,24.03,0,0,0,11.143,2.136c3.959-.034,7.923-.3,11.877-.473q12.606-.548,25.21-1.093c4.132-.174,8.265-.329,12.4-.384s8.258.088,12.384.017c4.671-.081,9.339.238,14.01.154a97.077,97.077,0,0,0,14.1-.765c1.8-.3,1.362-3.212-.428-3.16-3.959.116-7.891.159-11.848-.064s-7.927-.762-11.876-1.16c-3.973-.4-7.908-.776-11.9-.831-3.981-.054-7.965.058-11.943.2-7.987.28-15.971.666-23.955,1.009l-11.844.509c-1.842.079-3.686.179-5.53.214-.787.016-1.575.017-2.361-.007-.436-.014-.871-.035-1.3-.066-.173-.012-.346-.026-.518-.041-.089-.008-1-.11-.642-.064.446.057-.387-.064-.377-.062q-.379-.064-.756-.14c-.416-.086-.83-.186-1.239-.3A15.171,15.171,0,0,1,9.9,834.1c.11.043.488.232-.01-.012-.23-.113-.461-.223-.687-.346-.259-.14-.964-.435-1.118-.7.021.035.51.437.105.076-.152-.136-.307-.267-.454-.407-.27-.258-.531-.53-.78-.807a1.94,1.94,0,0,1-.331-.388c.265.567.064.079-.05-.087a15.043,15.043,0,0,1-1.137-1.912c-.206-.421,0-.017.025.064-.068-.187-.14-.372-.2-.562a9.038,9.038,0,0,1-.278-1.128c.017.093.022.488.017.05,0-.188.006-.384-.006-.571-.035-.547-.1.242-.012-.058.064-.209.091-.431.153-.642.036-.12.079-.238.119-.357-.152.458.039-.077.082-.159.075-.142.162-.275.241-.415.051-.082.105-.163.162-.242q-.226.28.021-.016a2.272,2.272,0,0,0,0-3.129,2.234,2.234,0,0,0-3.129,0" transform="translate(-0.133 -313.325)" fill="#c1d72d"/>
        <path id="Path_433" data-name="Path 433" d="M3.95,865.141a14.858,14.858,0,0,0-2.793,8.153A12.357,12.357,0,0,0,1.94,877.6a8.762,8.762,0,0,0,3.344,4.25c2.771,2,6.436,2.282,9.742,2.324,3.887.048,7.778.011,11.665,0q23.491-.085,46.978-.594c2.215-.048,4.432-.094,6.644-.228s4.427-.337,6.644-.414a97.519,97.519,0,0,0,13.5-1.059,1.945,1.945,0,0,0,1.407-2.155,2,2,0,0,0-1.929-1.7,88.433,88.433,0,0,0-11.431-.264c-3.708.069-7.415-.08-11.124-.042-7.52.075-15.04.292-22.559.4s-15.042.178-22.563.218q-5.642.031-11.282.036c-1.821,0-3.641.013-5.462.009-.733,0-1.466-.012-2.2-.049-.368-.019-.734-.043-1.1-.078-.162-.015-.324-.036-.486-.051.708.065-.084-.018-.19-.036a15.746,15.746,0,0,1-2.291-.624c.546.183.17.079.043.016-.21-.105-.423-.2-.627-.317-.136-.077-.271-.157-.4-.242-.18-.116-.551-.436-.19-.118-.258-.228-.505-.46-.741-.711-.113-.12-.215-.264-.336-.375q-.192-.232.125.159a5.1,5.1,0,0,0-.494-.627l-.066-.072q.322.422.062.061a4.193,4.193,0,0,0-.245-.435c-.208-.3.172.545-.015-.041-.062-.194-.133-.383-.19-.578-.095-.327-.151-.661-.234-.99-.025-.1-.073-.47-.009.029-.027-.207-.045-.416-.058-.624a19.8,19.8,0,0,1,.038-2.091c.018-.42.015-.163,0-.066.036-.209.089-.416.145-.621a8.238,8.238,0,0,1,.343-1c-.115.275.067-.132.1-.194.092-.191.189-.378.291-.563.186-.337.392-.661.611-.978a2.012,2.012,0,0,0-.715-2.728,2.039,2.039,0,0,0-2.728.715" transform="translate(-0.441 -329.507)" fill="#c1d72d"/>
        <path id="Path_434" data-name="Path 434" d="M8.025,906.265a9.718,9.718,0,0,0-6.679,6.5,10.765,10.765,0,0,0,2.349,9.9c5.042,6.231,13.651,6.211,20.937,6.109q24.979-.35,49.958-.708c4.636-.07,9.248-.289,13.877-.539,4.74-.255,9.452-.8,14.186-1.108a1.657,1.657,0,0,0,0-3.312c-7.912-.288-15.818-1.012-23.746-.908q-11.8.155-23.591.327l-23.591.339c-3.866.056-7.739.187-11.605.135-.855-.011-1.709-.04-2.563-.1-.425-.03-.848-.074-1.272-.115-.9-.087.317.067-.211-.026-.278-.049-.558-.089-.836-.142a19.042,19.042,0,0,1-2.549-.655c-.289-.1-.574-.205-.858-.317.673.265-.038-.027-.147-.079q-.311-.15-.616-.312-.506-.273-.989-.585-.193-.125-.381-.256t-.371-.268q.381.3.139.1A15.875,15.875,0,0,1,7.8,918.56c.4.495.08.093-.012-.043q-.189-.277-.359-.567-.141-.241-.268-.491c-.073-.145-.337-.778-.081-.125a8.805,8.805,0,0,1-.341-1.023,4.2,4.2,0,0,0-.105-.487q-.058-.328.028.265c-.012-.1-.02-.2-.027-.3-.009-.368-.036-.735-.025-1.1,0-.133.019-.267.022-.4.014-.616-.12.5,0-.062.087-.392.135-.791.225-1.183.029-.129.067-.255.1-.383.142-.583-.225.409.046-.134a9.7,9.7,0,0,1,.528-.935c.192-.3-.375.359.049-.062.137-.136.265-.28.408-.41.093-.086.191-.171.291-.249-.389.3.124-.059.174-.089.139-.083.28-.157.427-.227l-.074.035q.187-.068.377-.121a2.178,2.178,0,0,0-1.158-4.2" transform="translate(-0.362 -345.54)" fill="#c1d72d"/>
      </g>
    </g>
  </g>
</svg>
